<?xml version="1.0" encoding="UTF-8"?>
<svg id="Camada_2" data-name="Camada 2" xmlns="http://www.w3.org/2000/svg" viewBox="0 0 2500 2500">
  <path d="M1005.09,2140.57c-474.3-149.32-703.26-576.05-687.7-966.5,16.17-405.76,286.37-719.54,531.14-831.94-22.03,14.4-44.39,28.31-66.03,43.29-192.4,133.16-331.41,307.35-405.74,530.68-34.48,103.61-50.47,210.45-46.81,319.49,7.48,222.33,80.47,420.67,223.58,591.86,107.64,128.77,242.18,219.8,398.62,279.21,14.8,5.62,29.74,10.93,44.81,15.77,19.31,6.21,19.4,5.95,28.35-15.36-7.6-2.96-15.09-6.09-22.74-8.81-205.65-73.39-369.14-199.95-487.49-384.34-70.35-109.6-115.26-228.96-134.64-357.06-29.07-192.18-.18-376.19,87.23-550.41,96.3-191.93,239.85-336.45,432.98-431.15,11.75-5.76,23.17-12.76,35.54-16.58,16.04-4.96,24.01-15.69,31.2-29.94,26.16-51.85,57.4-100.63,95.64-144.45,13.5-15.47,29.31-29.15,45.26-42.17,8.32-6.79,18.82-11.66,29.09-15.19,28.03-9.62,52.47,1.14,65.07,28.08,12.37,26.46,13.49,54.56,10.31,83.01-1.3,11.63-3.09,23.23-5.34,34.71-1.95,9.97,1.96,11.84,11.1,10.9,49.49-5.12,99.07-5.98,148.73-2.4,243.9,17.58,455.49,106.75,627.82,283.03,129.33,132.3,211.01,289.9,247.62,470.74,19.12,94.48,23.33,189.77,11.97,285.95-25.09,212.33-114.14,394.08-260.83,547.93-148.3,155.53-329.93,250.62-540.37,291.66-.68.13-1.35.31-2.04.35-24.05,1.69-39.45,13.16-54.15,33.73-57.4,80.32-132.27,137.62-230,161.7-31.24,7.7-62.77,9.57-94.43,5.87-82.28-9.64-105.49-69.18-95.22-127.64,5.54-31.5,17.82-61.81,27.46-94.01ZM946.33,371.57c-4.26.24-5.74-.05-6.89.44-10.74,4.61-21.63,8.94-32.1,14.12-166.33,82.28-297.88,202.44-392.82,362.08-117.52,197.6-159.28,409.9-115.31,636,50.59,260.13,188.98,462.64,411.81,606.73,63.93,41.34,132.48,73.42,204.48,98.04,19.24,6.58,19.57,6.2,30.89-10.95,35.85-54.33,78.37-103.18,123.46-149.88,105.73-109.52,222.62-205.95,346.54-294,9.55-6.79,13.38-13.96,13.8-25.32,1.07-28.93,3.24-57.82,5.05-86.73,1.28-20.43,2.69-40.85,4.03-61.27,4.38,49.73,2.59,99.61,6.29,151.95,126.06-85.8,250.82-165.85,387.54-225.18-24.05,18.55-49.19,35.31-74.27,52.15-100.71,67.65-201.32,135.42-302.2,202.81-9.4,6.28-13.83,12.86-14.75,24.72-4.95,63.87-9.16,127.9-17.37,191.39-11.45,88.59-34.79,174.18-75.55,254.33-2.74,5.38-4.9,11.05-8.8,19.92,13-1.87,23.02-2.97,32.91-4.77,213.01-38.81,391.67-140.25,530.04-305.55,191.57-228.84,261.76-493.76,202.45-786.62-55.37-273.45-209.08-481.13-450.23-621.82-164.99-96.26-343.81-134.73-534.33-117.1-17.93,1.66-18.22,1.68-23.35,19.75-15.5,54.6-36.1,107.34-65.28,155.88-35.83,59.6-74.61,117.43-112.21,175.97-2.62,4.08-6.03,7.66-9.07,11.47,1.47-8.07,5.21-14.39,9.09-20.62,41.14-66.11,84.59-131.08,114.28-203.43,15.91-38.77,28.06-79.12,41.1-119.03,4.43-13.56,2.69-15.01-10.45-12.71-53.67,9.4-106.52,21.92-157.8,40.71-9.2,3.37-15.19,8.1-18.7,17.31-12.25,32.15-26.71,63.56-37.14,96.27-15.54,48.75-25.75,98.78-22.47,150.51,3.4,53.66,24.01,98.74,68.03,131.27,14.37,10.62,29.33,20.7,44.98,29.29,26.56,14.58,53.72,28.11,80.93,41.48,53.23,26.16,105.96,53.07,154.35,87.81,52.29,37.53,96.62,81.94,125.51,140.3.43.86,2.34.99,4.44,1.8,4.43-4.69,9.16-9.61,13.8-14.63,42.18-45.64,85.91-89.73,134.75-128.27,44.96-35.48,91.25-69.44,144.81-91.01,21.51-8.66,44.42-16.16,67.29-18.63,45.92-4.94,74.01,22.01,64.78,68.29-3.21,16.1-7.51,32.31-13.89,47.38-24.31,57.32-60.69,106.34-105.98,148.86-3.2,3.01-6.88,5.51-10.33,8.25,2.23-7.88,6.48-13.81,10.97-19.54,36.39-46.48,65.86-96.86,84.59-153.02,3.88-11.63,6.3-24.12,6.98-36.35,1.09-19.44-9.5-30.03-28.87-29.08-10.09.49-20.33,3.37-29.98,6.7-46.79,16.16-87.7,43.02-127.4,71.8-70.15,50.85-130.35,112.56-190.29,174.61-9.31,9.64-8.42,18.54-5.47,29.88,20.55,78.99-6.98,156.58-72.25,205.36-28.46,21.27-59.85,37.33-93.74,47.04-17.35,4.97-27.43,13.79-32.73,30.04-1.49,4.56-3.94,8.8-5.74,13.27-10.14,25.1-20.33,50.2-12.16,81.69-20.4-17.51-17.23-37.48-14.51-55.89,2.83-19.16,9.25-37.79,14.34-57.6-27.27-.47-53.11,3.42-77.36-7.58,10.32-.21,20.51,1.36,30.73,1.55,10.98.21,22.03-1.7,32.98-1.18,15.03.71,21.24-7.04,26.84-20.02,39.28-91.06,93.31-173.43,152.49-252.45,9.44-12.6,10.64-21.5,3.63-34.83-25.93-49.32-63.44-88.04-107.35-121.37-53.07-40.28-113.11-68.3-171.84-98.68-28.75-14.87-57.97-29.08-85.49-46-34.81-21.41-66.05-47.09-87.07-83.63-29.75-51.74-33.1-107.34-25.26-164.39,7.99-58.16,24.5-114.19,47.79-170.07ZM1053.02,2099.07c5.76,2.13,8.81,3.49,11.99,4.4,102.97,29.3,208.08,39.94,314.88,36.58,10.52-.33,16.61-4.91,20.91-13.65,12.46-25.31,26.2-50.08,37.3-75.97,46.28-107.96,67.68-222.18,82.88-337.83,1.9-14.42,1.74-29.1,2.7-46.54-6.73,4.33-10.26,6.31-13.47,8.7-50.28,37.48-101.09,74.27-150.64,112.7-74.71,57.95-145.65,120.22-210.25,189.47-34.84,37.34-65.57,77.87-96.3,122.14ZM1367.04,2175.41c-7.47,0-12.07-.22-16.63.03-76.62,4.26-153.02,3.18-228.76-10.71-27.74-5.09-55.24-11.47-82.82-17.36-6.7-1.43-13.36-4.33-17.66,4.48-17.35,35.5-32.48,71.76-32.97,112.06-.55,45.01,22.95,75.32,67.38,83.09,22.04,3.85,45.52,4.47,67.69,1.55,66.68-8.8,121.22-43.08,170.31-87.12,27.72-24.87,51.06-53.4,73.47-86.02ZM1007.77,326.13c2.46.94,3.83,2.03,4.87,1.77,53.49-12.86,107-25.66,160.34-39.16,4.01-1.01,9.38-6.99,9.61-10.92,1.55-27.39,5.68-55.4,1.78-82.15-6.34-43.52-35.84-51.92-68.69-22.48-.51.46-1.06.89-1.54,1.38-43.8,44.62-77.01,96.57-106.36,151.56ZM1878.7,476.85c168.33,139.29,282.55,313.05,333.38,526.39,50.72,212.87,27.59,419.28-60.02,619.12,106.14-206.26,127.42-422.05,68.27-645.18-54.76-206.53-168.87-373.95-341.63-500.34ZM1242.82,1351.55c57.17-20.88,104.23-47.94,135.95-95.77,27.64-41.68,28.07-87.71,18.32-136.07-27.03,26.27-123.19,170.52-154.27,231.84ZM1034.16,2132.79c111.13,29.04,222.92,38.77,337.79,25.45-1.47-2.5-1.75-3.47-2.09-3.49-2.71-.14-5.43-.14-8.15-.12-101.83.62-202.12-10.99-300.52-37.73q-17.62-4.79-27.03,15.89Z"/>
  <path d="M924.99,790.73c-27.71,35.02-55.44,70.03-83.09,105.09-5.12,6.49-10.35,12.96-14.73,19.95-15.86,25.27-13.4,45.69,7.86,66.97,3.84,3.85,8.38,7.01,12.53,10.43,23.59-23.02,42.94-26.57,72.82-13.77,17.73,7.59,29.64,16.36,41.85,33.35-9.34-4.57-18.3-10.37-28.12-13.42-15.59-4.85-31.65-8.36-47.71-11.36-5.04-.94-11.07.72-16.05,2.69-11.94,4.74-12.97,10.52-3.79,19.37,5.45,5.25,11.67,9.7,17.22,14.86,24.93,23.23,29.03,46.03,13.74,76.23-3.42,6.76-7.04,13.44-11.04,19.88-10.18,16.4-7.38,31.5,4.22,45.75,3.91,4.8,7.97,9.58,12.54,13.73,14.9,13.51,18.73,29.87,13.49,48.84-2.2,7.96-4.42,15.91-6.47,23.91-6.82,26.59-2.67,31.12,23.97,28.17,26.97-2.98,52.74-10.1,77.49-20.95,19.93-8.74,39.65-17.98,60.14-25.47-39.06,30.61-81.38,54.18-135.71,60.42,8.08,4.31,12.58,6.71,17.08,9.11,19.54,10.39,23.91,20.02,18.99,42.39-3.69,16.8-8.28,33.43-11.23,50.35-11.09,63.63,21.2,105.65,85.47,113.82,43.94,5.58,86.68-.82,129.13-10.34,124.83-28,240.33-79.22,350.9-142.45,19.74-11.29,39.42-22.7,58.88-34.46,6.02-3.64,10.56-5.02,16.27.76,25.84,26.17,59.68,33.16,94.16,37.15,23.89,2.77,48.04,3.17,74.67,4.78-4.54,2.81-7.19,5.4-10.31,6.25-51.4,13.97-102.36,14.35-151.51-8.31-10.51-4.85-16.33-1.07-24.02,3.93-86.5,56.31-178.57,101.23-277.33,131.39-81.45,24.88-164.46,40.93-250.37,35.31-25.78-1.69-50.35-7.56-72.86-20.68-35.14-20.48-51.02-52.13-44.57-92.14,3.17-19.63,8.83-38.86,13.4-58.27.47-2.01,1.22-3.95,1.82-5.92,10.21-33.79,5.86-43.29-26.57-58.04-28.82-13.11-33.03-22.74-23.42-53.58.61-1.97,1.01-4.05,1.89-5.9,11.55-24.47,7.42-43.58-14.69-61.54-23.89-19.39-26.77-42.82-14.14-70.6,1.42-3.13,3.16-6.12,4.78-9.16,16.28-30.69,14.24-43.82-11.43-66.85-9.22-8.27-19.51-15.33-29.04-23.26-7.93-6.6-16.1-13.1-23.07-20.65-20.03-21.68-22.65-47.02-7.11-72.09,6.5-10.49,14.44-20.2,22.55-29.54,28.9-33.27,58.17-66.23,87.29-99.31,1.07,1.06,2.15,2.12,3.22,3.18Z"/>
  <path d="M1079.4,1195.49c-17.69-4.84-36.01-8.13-52.91-14.93-20.29-8.16-39.45-19.19-58.96-29.23-15.21-7.82-30.23-16.02-44.93-25.03,56.49,12.95,104.42,45.61,156.12,69.61l.69-.43Z"/>
  <path d="M1078.71,1195.92c6.56,1.43,13.11,2.87,19.67,4.3-54.62,8.17-107.56,4.29-157.66-21.13,21.47,3.64,42.93,7.41,64.43,10.9,18.94,3.08,37.88,6.29,56.93,8.5,5.58.65,11.53-1.91,17.31-3l-.69.43Z"/>
</svg>