<?xml version="1.0" encoding="UTF-8"?>
<svg xmlns="http://www.w3.org/2000/svg" xmlns:xlink="http://www.w3.org/1999/xlink" viewBox="0 0 12734 6397.82">
  <defs>
    <style>
      .cls-1 {
        fill: #b58f3d;
      }

      .cls-2 {
        fill: url(#linear-gradient-61);
      }

      .cls-3 {
        fill: url(#linear-gradient-15);
      }

      .cls-4 {
        fill: url(#linear-gradient-13);
      }

      .cls-5 {
        fill: url(#linear-gradient-28);
      }

      .cls-6 {
        fill: #ffd87c;
      }

      .cls-7 {
        fill: url(#linear-gradient-53);
      }

      .cls-8 {
        fill: url(#linear-gradient-42);
      }

      .cls-9 {
        font-family: GreatVibes-Regular, 'Great Vibes';
      }

      .cls-9, .cls-10, .cls-11, .cls-12, .cls-13, .cls-14, .cls-15, .cls-16, .cls-17 {
        fill: #040505;
      }

      .cls-9, .cls-10, .cls-11, .cls-15, .cls-16, .cls-17 {
        font-size: 184px;
      }

      .cls-18 {
        fill: url(#linear-gradient-46);
      }

      .cls-19 {
        letter-spacing: -.06em;
      }

      .cls-20 {
        fill: url(#linear-gradient-60);
      }

      .cls-21 {
        fill: url(#linear-gradient-2);
      }

      .cls-22 {
        letter-spacing: .61em;
      }

      .cls-23 {
        fill: url(#linear-gradient-56);
      }

      .cls-24 {
        fill: url(#linear-gradient-43);
      }

      .cls-25 {
        fill: url(#linear-gradient-25);
      }

      .cls-26 {
        fill: url(#linear-gradient-10);
      }

      .cls-27 {
        fill: url(#linear-gradient-12);
      }

      .cls-28 {
        letter-spacing: -.05em;
      }

      .cls-29 {
        fill: url(#linear-gradient-40);
      }

      .cls-30 {
        fill: url(#linear-gradient-27);
      }

      .cls-31 {
        letter-spacing: .5em;
      }

      .cls-32 {
        fill: url(#linear-gradient-37);
      }

      .cls-33 {
        letter-spacing: -.09em;
      }

      .cls-34 {
        fill: url(#linear-gradient-55);
      }

      .cls-35 {
        fill: #fff;
      }

      .cls-36 {
        fill: url(#linear-gradient-39);
      }

      .cls-37 {
        fill: #d4a94d;
      }

      .cls-38 {
        fill: url(#linear-gradient-52);
      }

      .cls-10 {
        font-family: TheHeartofEverythingDemo, 'The Heart of Everything Demo';
      }

      .cls-11 {
        font-family: Daughter-of-Fortune, 'Daughter of Fortune';
      }

      .cls-39 {
        fill: #a47a1c;
      }

      .cls-40 {
        fill: url(#linear-gradient-58);
      }

      .cls-41 {
        fill: url(#linear-gradient-47);
      }

      .cls-42 {
        fill: url(#linear-gradient-26);
      }

      .cls-43 {
        fill: url(#linear-gradient-4);
      }

      .cls-44 {
        fill: url(#linear-gradient-35);
      }

      .cls-45 {
        fill: url(#linear-gradient-30);
      }

      .cls-12 {
        font-family: HelloPatty, 'Hello Patty';
      }

      .cls-12, .cls-13, .cls-14 {
        font-size: 340px;
      }

      .cls-46 {
        fill: #956e14;
      }

      .cls-47 {
        fill: url(#linear-gradient-44);
      }

      .cls-48 {
        letter-spacing: .19em;
      }

      .cls-49 {
        fill: url(#linear-gradient-49);
      }

      .cls-50 {
        fill: url(#linear-gradient-3);
      }

      .cls-51 {
        fill: url(#linear-gradient-34);
      }

      .cls-52 {
        fill: url(#linear-gradient-5);
      }

      .cls-53 {
        fill: url(#linear-gradient-38);
      }

      .cls-54 {
        fill: url(#linear-gradient-22);
      }

      .cls-55 {
        fill: url(#linear-gradient-24);
      }

      .cls-56 {
        fill: url(#linear-gradient-54);
      }

      .cls-57 {
        letter-spacing: -.14em;
      }

      .cls-13 {
        font-family: Jeans-&-Fashions, 'Jeans & Fashions';
      }

      .cls-58 {
        fill: url(#linear-gradient-33);
      }

      .cls-59 {
        letter-spacing: -.16em;
      }

      .cls-60 {
        fill: url(#linear-gradient-51);
      }

      .cls-61 {
        fill: url(#linear-gradient-8);
      }

      .cls-62 {
        fill: url(#linear-gradient-57);
      }

      .cls-63 {
        fill: url(#linear-gradient-14);
      }

      .cls-64 {
        fill: url(#linear-gradient-62);
      }

      .cls-65 {
        letter-spacing: -.09em;
      }

      .cls-66 {
        fill: url(#linear-gradient-29);
      }

      .cls-67 {
        fill: url(#linear-gradient-20);
      }

      .cls-68 {
        letter-spacing: .23em;
      }

      .cls-69 {
        fill: url(#linear-gradient-17);
      }

      .cls-70 {
        fill: url(#linear-gradient-50);
      }

      .cls-71 {
        fill: url(#linear-gradient-7);
      }

      .cls-72 {
        fill: url(#linear-gradient-9);
      }

      .cls-14 {
        font-family: Biscuit-&-Chocolat, 'Biscuit & Chocolat';
      }

      .cls-73 {
        fill: url(#linear-gradient-59);
      }

      .cls-74 {
        fill: url(#linear-gradient-11);
      }

      .cls-75 {
        fill: url(#linear-gradient-19);
      }

      .cls-15 {
        font-family: Journey-to-Thailand, 'Journey to Thailand';
      }

      .cls-76 {
        fill: url(#linear-gradient-6);
      }

      .cls-77 {
        fill: url(#linear-gradient-36);
      }

      .cls-78 {
        fill: url(#linear-gradient-21);
      }

      .cls-79 {
        fill: url(#linear-gradient-45);
      }

      .cls-80 {
        fill: url(#linear-gradient-48);
      }

      .cls-81 {
        letter-spacing: .2em;
      }

      .cls-82 {
        fill: url(#linear-gradient-32);
      }

      .cls-83 {
        fill: url(#linear-gradient-41);
      }

      .cls-84 {
        fill: url(#linear-gradient-16);
      }

      .cls-85 {
        fill: url(#linear-gradient);
      }

      .cls-86 {
        fill: url(#linear-gradient-23);
      }

      .cls-87 {
        fill: url(#linear-gradient-31);
      }

      .cls-88 {
        letter-spacing: -.07em;
      }

      .cls-89 {
        fill: #e6be68;
      }

      .cls-16 {
        font-family: AcryleScriptPersonalUse, 'Acryle Script Personal Use';
      }

      .cls-90 {
        fill: url(#linear-gradient-63);
      }

      .cls-17 {
        font-family: SouthernAirePersonalUseOnly, 'Southern Aire Personal Use Only';
      }

      .cls-91 {
        letter-spacing: -.03em;
      }

      .cls-92 {
        fill: url(#linear-gradient-18);
      }

      .cls-93 {
        letter-spacing: -.06em;
      }

      .cls-94 {
        fill: #ffec94;
      }
    </style>
    <linearGradient id="linear-gradient" x1="7537.84" y1="1108.82" x2="8007.14" y2="1108.82" gradientUnits="userSpaceOnUse">
      <stop offset="0" stop-color="#a47a1c"/>
      <stop offset=".14" stop-color="#d4a94d"/>
      <stop offset=".3" stop-color="#ffec94"/>
      <stop offset=".49" stop-color="#e6be68"/>
      <stop offset=".68" stop-color="#ffd87c"/>
      <stop offset=".84" stop-color="#b58f3d"/>
      <stop offset="1" stop-color="#956e14"/>
    </linearGradient>
    <linearGradient id="linear-gradient-2" x1="7654.97" y1="1089.05" x2="7888.77" y2="1089.05" xlink:href="#linear-gradient"/>
    <linearGradient id="linear-gradient-3" x1="7684.1" y1="1088.86" x2="7721.95" y2="1088.86" xlink:href="#linear-gradient"/>
    <linearGradient id="linear-gradient-4" x1="7688.48" y1="1096.22" x2="7726.53" y2="1096.22" xlink:href="#linear-gradient"/>
    <linearGradient id="linear-gradient-5" x1="7544.54" y1="3215.36" x2="8394.75" y2="3215.36" xlink:href="#linear-gradient"/>
    <linearGradient id="linear-gradient-6" x1="7756.73" y1="3179.55" x2="8180.29" y2="3179.55" xlink:href="#linear-gradient"/>
    <linearGradient id="linear-gradient-7" x1="7809.51" y1="3179.22" x2="7878.08" y2="3179.22" xlink:href="#linear-gradient"/>
    <linearGradient id="linear-gradient-8" x1="7817.44" y1="3192.54" x2="7886.38" y2="3192.54" xlink:href="#linear-gradient"/>
    <linearGradient id="linear-gradient-9" x1="7711.14" y1="339.01" x2="8176.29" y2="339.01" xlink:href="#linear-gradient"/>
    <linearGradient id="linear-gradient-10" x1="8582.53" y1="3091.2" x2="8704.7" y2="3091.2" xlink:href="#linear-gradient"/>
    <linearGradient id="linear-gradient-11" x1="8720.58" y1="3091.2" x2="8873.21" y2="3091.2" xlink:href="#linear-gradient"/>
    <linearGradient id="linear-gradient-12" x1="8885.18" y1="3093.46" x2="9060.44" y2="3093.46" xlink:href="#linear-gradient"/>
    <linearGradient id="linear-gradient-13" x1="9071.1" y1="3091.2" x2="9238.19" y2="3091.2" xlink:href="#linear-gradient"/>
    <linearGradient id="linear-gradient-14" x1="9251.82" y1="3091.2" x2="9328.13" y2="3091.2" xlink:href="#linear-gradient"/>
    <linearGradient id="linear-gradient-15" x1="9340.57" y1="3091.2" x2="9504.93" y2="3091.2" xlink:href="#linear-gradient"/>
    <linearGradient id="linear-gradient-16" x1="9593.09" y1="3091.2" x2="9759.11" y2="3091.2" xlink:href="#linear-gradient"/>
    <linearGradient id="linear-gradient-17" x1="9759.7" y1="3089.66" x2="9926.08" y2="3089.66" xlink:href="#linear-gradient"/>
    <linearGradient id="linear-gradient-18" x1="9935.32" y1="3092.8" x2="10097.31" y2="3092.8" xlink:href="#linear-gradient"/>
    <linearGradient id="linear-gradient-19" x1="10105.13" y1="3091.2" x2="10246.15" y2="3091.2" xlink:href="#linear-gradient"/>
    <linearGradient id="linear-gradient-20" x1="10267.24" y1="3091.2" x2="10343.55" y2="3091.2" xlink:href="#linear-gradient"/>
    <linearGradient id="linear-gradient-21" x1="10352.32" y1="3089.66" x2="10518.69" y2="3089.66" xlink:href="#linear-gradient"/>
    <linearGradient id="linear-gradient-22" x1="8987.86" y1="3409.87" x2="9056.73" y2="3409.87" xlink:href="#linear-gradient"/>
    <linearGradient id="linear-gradient-23" x1="9064.98" y1="3409.87" x2="9130.83" y2="3409.87" xlink:href="#linear-gradient"/>
    <linearGradient id="linear-gradient-24" x1="9138.22" y1="3409.07" x2="9220.63" y2="3409.07" xlink:href="#linear-gradient"/>
    <linearGradient id="linear-gradient-25" x1="9215.1" y1="3411.04" x2="9301.44" y2="3411.04" xlink:href="#linear-gradient"/>
    <linearGradient id="linear-gradient-26" x1="9307.91" y1="3409.87" x2="9382.44" y2="3409.87" xlink:href="#linear-gradient"/>
    <linearGradient id="linear-gradient-27" x1="9387.43" y1="3409.87" x2="9471.43" y2="3409.87" xlink:href="#linear-gradient"/>
    <linearGradient id="linear-gradient-28" x1="9507.69" y1="3409.07" x2="9590.09" y2="3409.07" xlink:href="#linear-gradient"/>
    <linearGradient id="linear-gradient-29" x1="9590.71" y1="3409.87" x2="9659.39" y2="3409.87" xlink:href="#linear-gradient"/>
    <linearGradient id="linear-gradient-30" x1="9668.69" y1="3409.07" x2="9751.1" y2="3409.07" xlink:href="#linear-gradient"/>
    <linearGradient id="linear-gradient-31" x1="9755.9" y1="3409.87" x2="9838.55" y2="3409.87" xlink:href="#linear-gradient"/>
    <linearGradient id="linear-gradient-32" x1="9847.48" y1="3409.87" x2="9913.33" y2="3409.87" xlink:href="#linear-gradient"/>
    <linearGradient id="linear-gradient-33" x1="9923.56" y1="3409.87" x2="10024.55" y2="3409.87" xlink:href="#linear-gradient"/>
    <linearGradient id="linear-gradient-34" x1="10029.35" y1="3409.87" x2="10113.36" y2="3409.87" xlink:href="#linear-gradient"/>
    <linearGradient id="linear-gradient-35" x1="11009.62" y1="4935.35" x2="12213.79" y2="4935.35" xlink:href="#linear-gradient"/>
    <linearGradient id="linear-gradient-36" x1="11310.15" y1="4884.62" x2="11910.05" y2="4884.62" xlink:href="#linear-gradient"/>
    <linearGradient id="linear-gradient-37" x1="11384.9" y1="4884.15" x2="11482.02" y2="4884.15" xlink:href="#linear-gradient"/>
    <linearGradient id="linear-gradient-38" x1="11396.13" y1="4903.02" x2="11493.78" y2="4903.02" xlink:href="#linear-gradient"/>
    <linearGradient id="linear-gradient-39" x1="10630.72" y1="5830.8" x2="10763.43" y2="5830.8" xlink:href="#linear-gradient"/>
    <linearGradient id="linear-gradient-40" x1="10780.68" y1="5830.8" x2="10946.48" y2="5830.8" xlink:href="#linear-gradient"/>
    <linearGradient id="linear-gradient-41" x1="10959.49" y1="5833.24" x2="11149.87" y2="5833.24" xlink:href="#linear-gradient"/>
    <linearGradient id="linear-gradient-42" x1="11161.46" y1="5830.8" x2="11342.97" y2="5830.8" xlink:href="#linear-gradient"/>
    <linearGradient id="linear-gradient-43" x1="11357.77" y1="5830.8" x2="11440.67" y2="5830.8" xlink:href="#linear-gradient"/>
    <linearGradient id="linear-gradient-44" x1="11454.19" y1="5830.8" x2="11632.73" y2="5830.8" xlink:href="#linear-gradient"/>
    <linearGradient id="linear-gradient-45" x1="11728.51" y1="5830.8" x2="11908.86" y2="5830.8" xlink:href="#linear-gradient"/>
    <linearGradient id="linear-gradient-46" x1="11909.5" y1="5829.12" x2="12090.23" y2="5829.12" xlink:href="#linear-gradient"/>
    <linearGradient id="linear-gradient-47" x1="12100.28" y1="5832.54" x2="12276.25" y2="5832.54" xlink:href="#linear-gradient"/>
    <linearGradient id="linear-gradient-48" x1="12284.74" y1="5830.8" x2="12437.93" y2="5830.8" xlink:href="#linear-gradient"/>
    <linearGradient id="linear-gradient-49" x1="12460.84" y1="5830.8" x2="12543.74" y2="5830.8" xlink:href="#linear-gradient"/>
    <linearGradient id="linear-gradient-50" x1="12553.27" y1="5829.12" x2="12734" y2="5829.12" xlink:href="#linear-gradient"/>
    <linearGradient id="linear-gradient-51" x1="11004.51" y1="6069.65" x2="11087.47" y2="6069.65" xlink:href="#linear-gradient"/>
    <linearGradient id="linear-gradient-52" x1="11097.41" y1="6069.65" x2="11176.73" y2="6069.65" xlink:href="#linear-gradient"/>
    <linearGradient id="linear-gradient-53" x1="11185.63" y1="6068.69" x2="11284.89" y2="6068.69" xlink:href="#linear-gradient"/>
    <linearGradient id="linear-gradient-54" x1="11278.22" y1="6071.06" x2="11382.23" y2="6071.06" xlink:href="#linear-gradient"/>
    <linearGradient id="linear-gradient-55" x1="11390.02" y1="6069.65" x2="11479.79" y2="6069.65" xlink:href="#linear-gradient"/>
    <linearGradient id="linear-gradient-56" x1="11485.8" y1="6069.65" x2="11586.98" y2="6069.65" xlink:href="#linear-gradient"/>
    <linearGradient id="linear-gradient-57" x1="11630.65" y1="6068.69" x2="11729.91" y2="6068.69" xlink:href="#linear-gradient"/>
    <linearGradient id="linear-gradient-58" x1="11730.66" y1="6069.65" x2="11813.39" y2="6069.65" xlink:href="#linear-gradient"/>
    <linearGradient id="linear-gradient-59" x1="11824.59" y1="6068.69" x2="11923.85" y2="6068.69" xlink:href="#linear-gradient"/>
    <linearGradient id="linear-gradient-60" x1="11929.63" y1="6069.65" x2="12029.19" y2="6069.65" xlink:href="#linear-gradient"/>
    <linearGradient id="linear-gradient-61" x1="12039.95" y1="6069.65" x2="12119.27" y2="6069.65" xlink:href="#linear-gradient"/>
    <linearGradient id="linear-gradient-62" x1="12131.58" y1="6069.65" x2="12253.23" y2="6069.65" xlink:href="#linear-gradient"/>
    <linearGradient id="linear-gradient-63" x1="12259.01" y1="6069.65" x2="12360.2" y2="6069.65" xlink:href="#linear-gradient"/>
  </defs>
  <g id="Layer_1" data-name="Layer 1">
    <rect x="7303.94" y="2637.32" width="3578.55" height="1156.09"/>
    <path class="cls-35" d="M9297.39,932.71c-5.62,13.49-9.61,27.01-11.54,41.05-1.89,13.77-1.08,27.19,6.1,39.68,5.07,8.82,12.61,15.02,21.02,20.19,6.64,4.09,13.7,7.51,20.64,11.1,14.18,7.33,28.67,14.1,41.48,23.82,10.6,8.05,19.65,17.39,25.91,29.3,1.69,3.22,1.4,5.37-.88,8.41-14.29,19.07-27.33,38.96-36.81,60.94-1.35,3.13-2.85,5-6.48,4.83-2.64-.13-5.31.34-7.96.29-2.47-.05-4.93-.43-7.42-.37,5.85,2.65,12.09,1.72,18.67,1.83-1.23,4.78-2.78,9.28-3.46,13.9-.66,4.44-1.42,9.26,3.5,13.49-1.97-7.6.49-13.66,2.94-19.72.44-1.08,1.03-2.1,1.39-3.2,1.28-3.92,3.71-6.05,7.9-7.25,8.18-2.34,15.76-6.22,22.63-11.36,15.75-11.77,22.4-30.5,17.44-49.57-.71-2.74-.93-4.89,1.32-7.21,14.47-14.98,29-29.87,45.93-42.15,9.58-6.95,19.46-13.43,30.75-17.33,2.33-.8,4.8-1.5,7.24-1.62,4.68-.23,7.23,2.33,6.97,7.02-.17,2.95-.75,5.97-1.69,8.77-4.52,13.56-11.63,25.72-20.42,36.94-1.08,1.38-2.11,2.81-2.65,4.72.83-.66,1.72-1.27,2.49-1.99,10.93-10.26,19.71-22.09,25.58-35.93,1.54-3.64,2.58-7.55,3.35-11.44,2.23-11.17-4.55-17.68-15.64-16.48-5.52.59-11.05,2.41-16.24,4.5-12.93,5.21-24.1,13.4-34.95,21.97-11.79,9.3-22.35,19.94-32.53,30.96-1.12,1.21-2.26,2.4-3.33,3.53-.51-.2-.97-.23-1.07-.43-6.97-14.09-17.67-24.81-30.29-33.87-11.68-8.38-24.41-14.88-37.26-21.19-6.57-3.23-13.12-6.49-19.53-10.01-3.78-2.07-7.39-4.51-10.86-7.07-10.63-7.85-15.6-18.74-16.42-31.69-.79-12.48,1.67-24.56,5.42-36.33,2.52-7.9,6.01-15.48,8.96-23.24.85-2.22,2.29-3.36,4.51-4.18,12.38-4.54,25.14-7.56,38.09-9.83,3.17-.56,3.59-.21,2.52,3.07-3.15,9.63-6.08,19.37-9.92,28.73-7.17,17.46-17.66,33.14-27.59,49.1-.94,1.5-1.84,3.03-2.19,4.98.73-.92,1.56-1.78,2.19-2.77,9.08-14.13,18.44-28.09,27.09-42.48,7.04-11.71,12.02-24.45,15.76-37.62,1.24-4.36,1.31-4.37,5.64-4.77,45.99-4.25,89.15,5.03,128.98,28.27,58.21,33.96,95.31,84.09,108.67,150.09,14.31,70.69-2.63,134.63-48.87,189.87-33.4,39.9-76.52,64.38-127.94,73.75-2.39.43-4.81.7-7.94,1.15.94-2.14,1.46-3.51,2.12-4.81,9.84-19.35,15.47-40.01,18.24-61.39,1.98-15.32,3-30.78,4.19-46.2.22-2.86,1.29-4.45,3.56-5.97,24.35-16.27,48.64-32.63,72.94-48.95,6.05-4.07,12.12-8.11,17.93-12.59-33,14.32-63.12,33.64-93.54,54.35-.89-12.63-.46-24.67-1.52-36.68-.33,4.93-.67,9.86-.97,14.79-.44,6.98-.96,13.95-1.22,20.93-.1,2.74-1.02,4.47-3.33,6.11-29.91,21.25-58.13,44.53-83.65,70.97-10.88,11.27-21.14,23.06-29.8,36.18-2.73,4.14-2.81,4.23-7.45,2.64-17.38-5.94-33.93-13.69-49.36-23.67-53.79-34.78-87.19-83.66-99.4-146.45-10.61-54.58-.53-105.82,27.83-153.52,22.92-38.53,54.67-67.54,94.82-87.4,2.53-1.25,5.15-2.3,7.75-3.41.28-.12.63-.05,1.66-.11ZM9329.5,1131.59c-1.4.26-2.83.88-4.18.72-4.6-.53-9.17-1.31-13.74-2.05-5.19-.84-10.37-1.75-15.55-2.63,12.09,6.14,24.87,7.07,38.05,5.1-1.58-.35-3.16-.69-4.75-1.04-12.48-5.79-24.05-13.68-37.68-16.8,3.55,2.17,7.17,4.15,10.85,6.04,4.71,2.42,9.33,5.08,14.23,7.05,4.08,1.64,8.5,2.43,12.77,3.6ZM9292.23,1033.89c-.26-.26-.52-.51-.78-.77-7.03,7.98-14.09,15.94-21.07,23.97-1.96,2.25-3.87,4.6-5.44,7.13-3.75,6.05-3.12,12.17,1.72,17.4,1.68,1.82,3.65,3.39,5.57,4.98,2.3,1.91,4.78,3.62,7.01,5.61,6.2,5.56,6.69,8.73,2.76,16.13-.39.73-.81,1.46-1.15,2.21-3.05,6.71-2.35,12.36,3.41,17.04,5.34,4.33,6.33,8.95,3.55,14.85-.21.45-.31.95-.46,1.42-2.32,7.44-1.3,9.77,5.65,12.93,7.83,3.56,8.88,5.86,6.41,14.01-.14.48-.32.95-.44,1.43-1.1,4.68-2.47,9.33-3.23,14.06-1.56,9.66,2.28,17.3,10.76,22.24,5.43,3.17,11.36,4.58,17.59,4.99,20.74,1.36,40.77-2.52,60.43-8.52,23.84-7.28,46.06-18.12,66.94-31.72,1.86-1.21,3.26-2.12,5.8-.95,11.86,5.47,24.16,5.38,36.57,2.01.75-.2,1.39-.83,2.49-1.51-6.43-.39-12.26-.49-18.02-1.15-8.32-.96-16.49-2.65-22.73-8.97-1.38-1.4-2.47-1.06-3.93-.18-4.7,2.84-9.45,5.59-14.21,8.32-26.69,15.26-54.57,27.63-84.7,34.38-10.25,2.3-20.56,3.84-31.17,2.5-15.51-1.97-23.31-12.12-20.63-27.47.71-4.08,1.82-8.1,2.71-12.15,1.19-5.4.13-7.72-4.58-10.23-1.09-.58-2.17-1.16-4.12-2.2,13.11-1.51,23.33-7.19,32.76-14.58-4.95,1.81-9.71,4.04-14.52,6.15-5.97,2.62-12.19,4.34-18.7,5.06-6.43.71-7.43-.38-5.78-6.8.49-1.93,1.03-3.85,1.56-5.77,1.26-4.58.34-8.53-3.26-11.79-1.1-1-2.08-2.16-3.03-3.31-2.8-3.44-3.48-7.08-1.02-11.04.96-1.55,1.84-3.17,2.66-4.8,3.69-7.29,2.7-12.79-3.32-18.4-1.34-1.25-2.84-2.32-4.16-3.59-2.22-2.13-1.97-3.53.91-4.67,1.2-.48,2.66-.88,3.87-.65,3.88.72,7.75,1.57,11.52,2.74,2.37.74,4.53,2.14,6.79,3.24-2.95-4.1-5.82-6.22-10.1-8.05-7.21-3.09-11.88-2.23-17.58,3.32-1-.83-2.1-1.59-3.02-2.52-5.13-5.14-5.73-10.07-1.9-16.17,1.06-1.69,2.32-3.25,3.56-4.81,6.67-8.46,13.37-16.91,20.06-25.37Z"/>
    <path class="cls-35" d="M9323.14,1349.69c7.42-10.68,14.84-20.47,23.24-29.48,15.59-16.71,32.72-31.75,50.75-45.73,11.96-9.28,24.22-18.16,36.36-27.2.78-.58,1.63-1.06,3.25-2.1-.23,4.21-.19,7.75-.65,11.23-3.67,27.91-8.83,55.48-20.01,81.54-2.68,6.25-5.99,12.23-9,18.34-1.04,2.11-2.51,3.21-5.05,3.29-25.78.81-51.15-1.76-76-8.83-.77-.22-1.5-.55-2.89-1.06Z"/>
    <path class="cls-35" d="M9398.94,1368.12c-5.41,7.87-11.04,14.76-17.73,20.76-11.85,10.63-25.01,18.9-41.11,21.03-5.35.71-11.02.56-16.34-.37-10.72-1.87-16.4-9.19-16.26-20.06.12-9.73,3.77-18.48,7.96-27.05,1.04-2.13,2.65-1.43,4.26-1.08,6.66,1.42,13.3,2.96,19.99,4.19,18.28,3.35,36.72,3.61,55.22,2.58,1.1-.06,2.21,0,4.01,0Z"/>
    <path class="cls-35" d="M9312.22,921.75c7.09-13.27,15.1-25.81,25.67-36.58.12-.12.25-.22.37-.33,7.93-7.11,15.05-5.08,16.58,5.43.94,6.46-.06,13.22-.43,19.83-.05.95-1.35,2.39-2.32,2.63-12.87,3.26-25.79,6.35-38.7,9.45-.25.06-.58-.2-1.18-.43Z"/>
    <path class="cls-35" d="M9522.44,958.13c41.7,30.51,69.24,70.92,82.46,120.77,14.28,53.86,9.14,105.94-16.48,155.73,21.15-48.24,26.73-98.06,14.49-149.44-12.27-51.5-39.84-93.44-80.47-127.06Z"/>
    <path class="cls-35" d="M9368.95,1169.26c7.5-14.8,30.71-49.62,37.24-55.96,2.35,11.67,2.25,22.78-4.42,32.84-7.66,11.54-19.02,18.08-32.81,23.12Z"/>
    <path class="cls-35" d="M9318.59,1357.83q2.27-5,6.52-3.84c23.75,6.45,47.96,9.26,72.54,9.11.66,0,1.31,0,1.97.03.08,0,.15.24.5.84-27.72,3.22-54.71.87-81.53-6.14Z"/>
    <rect x="7404.04" y="727.91" width="757.01" height="757.01"/>
    <g>
      <path class="cls-85" d="M7704.02,1325.28c-114.48-36.04-169.75-139.04-165.99-233.29,3.9-97.94,69.12-173.68,128.21-200.81-5.32,3.48-10.72,6.83-15.94,10.45-46.44,32.14-79.99,74.19-97.94,128.09-8.32,25.01-12.18,50.8-11.3,77.12,1.81,53.67,19.42,101.54,53.97,142.86,25.98,31.08,58.46,53.05,96.22,67.39,3.57,1.36,7.18,2.64,10.82,3.81,4.66,1.5,4.68,1.44,6.84-3.71-1.83-.71-3.64-1.47-5.49-2.13-49.64-17.71-89.1-48.26-117.67-92.77-16.98-26.46-27.82-55.26-32.5-86.19-7.02-46.39-.04-90.8,21.06-132.85,23.24-46.33,57.89-81.21,104.51-104.07,2.84-1.39,5.59-3.08,8.58-4,3.87-1.2,5.8-3.79,7.53-7.23,6.31-12.51,13.85-24.29,23.08-34.87,3.26-3.73,7.07-7.03,10.93-10.18,2.01-1.64,4.54-2.82,7.02-3.67,6.77-2.32,12.67.28,15.71,6.78,2.99,6.39,3.26,13.17,2.49,20.04-.31,2.81-.75,5.61-1.29,8.38-.47,2.41.47,2.86,2.68,2.63,11.95-1.24,23.91-1.44,35.9-.58,58.87,4.24,109.94,25.77,151.54,68.32,31.22,31.93,50.93,69.97,59.77,113.63,4.62,22.8,5.63,45.81,2.89,69.02-6.06,51.25-27.55,95.12-62.96,132.26-35.8,37.54-79.64,60.49-130.43,70.4-.16.03-.33.07-.49.09-5.81.41-9.52,3.18-13.07,8.14-13.85,19.39-31.93,33.22-55.52,39.03-7.54,1.86-15.15,2.31-22.79,1.42-19.86-2.33-25.46-16.7-22.98-30.81,1.34-7.6,4.3-14.92,6.63-22.69ZM7689.83,898.29c-1.03.06-1.39-.01-1.66.11-2.59,1.11-5.22,2.16-7.75,3.41-40.15,19.86-71.9,48.86-94.82,87.4-28.37,47.69-38.45,98.94-27.83,153.52,12.21,62.79,45.62,111.67,99.4,146.45,15.43,9.98,31.98,17.72,49.36,23.67,4.64,1.59,4.72,1.5,7.45-2.64,8.65-13.11,18.92-24.91,29.8-36.18,25.52-26.43,53.73-49.71,83.65-70.97,2.31-1.64,3.23-3.37,3.33-6.11.26-6.98.78-13.96,1.22-20.93.31-4.93.65-9.86.97-14.79,1.06,12,.62,24.04,1.52,36.68,30.43-20.71,60.54-40.03,93.54-54.35-5.8,4.48-11.87,8.52-17.93,12.59-24.31,16.33-48.59,32.69-72.94,48.95-2.27,1.52-3.34,3.1-3.56,5.97-1.2,15.42-2.21,30.87-4.19,46.2-2.76,21.38-8.4,42.04-18.24,61.39-.66,1.3-1.18,2.67-2.12,4.81,3.14-.45,5.56-.72,7.94-1.15,51.42-9.37,94.54-33.85,127.94-73.75,46.24-55.24,63.18-119.18,48.87-189.87-13.37-66-50.47-116.13-108.67-150.09-39.83-23.24-82.99-32.52-128.98-28.27-4.33.4-4.4.41-5.64,4.77-3.74,13.18-8.71,25.91-15.76,37.62-8.65,14.39-18.01,28.35-27.09,42.48-.63.99-1.46,1.85-2.19,2.77.35-1.95,1.26-3.47,2.19-4.98,9.93-15.96,20.42-31.64,27.59-49.1,3.84-9.36,6.77-19.1,9.92-28.73,1.07-3.27.65-3.62-2.52-3.07-12.95,2.27-25.71,5.29-38.09,9.83-2.22.81-3.67,1.95-4.51,4.18-2.96,7.76-6.45,15.34-8.96,23.24-3.75,11.77-6.22,23.84-5.42,36.33.82,12.95,5.8,23.83,16.42,31.69,3.47,2.56,7.08,5,10.86,7.07,6.41,3.52,12.97,6.79,19.53,10.01,12.85,6.31,25.58,12.81,37.26,21.19,12.62,9.06,23.32,19.78,30.29,33.87.1.21.56.24,1.07.43,1.07-1.13,2.21-2.32,3.33-3.53,10.18-11.02,20.74-21.66,32.53-30.96,10.85-8.56,22.02-16.76,34.95-21.97,5.19-2.09,10.72-3.9,16.24-4.5,11.08-1.19,17.86,5.31,15.64,16.48-.78,3.89-1.81,7.8-3.35,11.44-5.87,13.84-14.65,25.67-25.58,35.93-.77.73-1.66,1.33-2.49,1.99.54-1.9,1.56-3.33,2.65-4.72,8.78-11.22,15.9-23.38,20.42-36.94.94-2.81,1.52-5.82,1.69-8.77.26-4.69-2.29-7.25-6.97-7.02-2.44.12-4.91.81-7.24,1.62-11.3,3.9-21.17,10.38-30.75,17.33-16.93,12.27-31.46,27.17-45.93,42.15-2.25,2.33-2.03,4.48-1.32,7.21,4.96,19.07-1.68,37.79-17.44,49.57-6.87,5.13-14.45,9.01-22.63,11.36-4.19,1.2-6.62,3.33-7.9,7.25-.36,1.1-.95,2.12-1.39,3.2-2.45,6.06-4.91,12.12-2.94,19.72-4.92-4.23-4.16-9.05-3.5-13.49.68-4.63,2.23-9.12,3.46-13.9-6.58-.11-12.82.83-18.67-1.83,2.49-.05,4.95.33,7.42.37,2.65.05,5.32-.41,7.96-.29,3.63.17,5.13-1.7,6.48-4.83,9.48-21.98,22.52-41.86,36.81-60.94,2.28-3.04,2.57-5.19.88-8.41-6.26-11.91-15.31-21.25-25.91-29.3-12.81-9.72-27.3-16.49-41.48-23.82-6.94-3.59-13.99-7.02-20.64-11.1-8.4-5.17-15.94-11.37-21.02-20.19-7.18-12.49-7.99-25.91-6.1-39.68,1.93-14.04,5.91-27.56,11.54-41.05ZM7715.58,1315.26c1.39.51,2.13.84,2.89,1.06,24.85,7.07,50.23,9.64,76,8.83,2.54-.08,4.01-1.18,5.05-3.29,3.01-6.11,6.32-12.09,9-18.34,11.17-26.06,16.34-53.63,20.01-81.54.46-3.48.42-7.03.65-11.23-1.63,1.04-2.48,1.52-3.25,2.1-12.14,9.05-24.4,17.93-36.36,27.2-18.03,13.99-35.16,29.02-50.75,45.73-8.41,9.01-15.83,18.8-23.24,29.48ZM7791.38,1333.69c-1.8,0-2.91-.05-4.01,0-18.49,1.03-36.94.77-55.22-2.58-6.69-1.23-13.33-2.77-19.99-4.19-1.62-.35-3.22-1.05-4.26,1.08-4.19,8.57-7.84,17.32-7.96,27.05-.13,10.86,5.54,18.18,16.26,20.06,5.32.93,10.99,1.08,16.34.37,16.1-2.12,29.26-10.4,41.11-21.03,6.69-6,12.32-12.89,17.73-20.76ZM7704.66,887.32c.59.23.92.49,1.18.43,12.91-3.1,25.83-6.19,38.7-9.45.97-.24,2.27-1.69,2.32-2.63.37-6.61,1.37-13.37.43-19.83-1.53-10.51-8.65-12.53-16.58-5.43-.12.11-.26.21-.37.33-10.57,10.77-18.59,23.31-25.67,36.58ZM7914.89,923.7c40.63,33.62,68.2,75.56,80.47,127.06,12.24,51.38,6.66,101.2-14.49,149.44,25.62-49.79,30.76-101.87,16.48-155.73-13.22-49.85-40.76-90.26-82.46-120.77ZM7761.4,1134.83c13.8-5.04,25.16-11.57,32.81-23.12,6.67-10.06,6.77-21.17,4.42-32.84-6.53,6.34-29.73,41.16-37.24,55.96ZM7711.03,1323.4c26.82,7.01,53.81,9.36,81.53,6.14-.35-.6-.42-.84-.5-.84-.65-.03-1.31-.03-1.97-.03-24.58.15-48.79-2.65-72.54-9.11q-4.25-1.16-6.52,3.84Z"/>
      <path class="cls-21" d="M7684.68,999.46c-6.69,8.45-13.38,16.9-20.06,25.37-1.24,1.57-2.5,3.13-3.56,4.81-3.83,6.1-3.24,11.03,1.9,16.17.93.93,2.02,1.69,3.02,2.52,5.69-5.56,10.36-6.41,17.58-3.32,4.28,1.83,7.16,3.95,10.1,8.05-2.26-1.1-4.42-2.5-6.79-3.24-3.76-1.17-7.64-2.02-11.52-2.74-1.22-.23-2.67.17-3.87.65-2.88,1.14-3.13,2.54-.91,4.67,1.32,1.27,2.82,2.34,4.16,3.59,6.02,5.61,7.01,11.11,3.32,18.4-.83,1.63-1.7,3.24-2.66,4.8-2.46,3.96-1.78,7.6,1.02,11.04.94,1.16,1.92,2.31,3.03,3.31,3.6,3.26,4.52,7.21,3.26,11.79-.53,1.92-1.07,3.84-1.56,5.77-1.65,6.42-.64,7.51,5.78,6.8,6.51-.72,12.73-2.44,18.7-5.06,4.81-2.11,9.57-4.34,14.52-6.15-9.43,7.39-19.64,13.08-32.76,14.58,1.95,1.04,3.04,1.62,4.12,2.2,4.72,2.51,5.77,4.83,4.58,10.23-.89,4.05-2,8.07-2.71,12.15-2.68,15.36,5.12,25.5,20.63,27.47,10.61,1.35,20.92-.2,31.17-2.5,30.13-6.76,58.01-19.12,84.7-34.38,4.77-2.72,9.52-5.48,14.21-8.32,1.45-.88,2.55-1.21,3.93.18,6.24,6.32,14.41,8,22.73,8.97,5.77.67,11.6.76,18.02,1.15-1.1.68-1.73,1.3-2.49,1.51-12.41,3.37-24.71,3.46-36.57-2.01-2.54-1.17-3.94-.26-5.8.95-20.88,13.59-43.1,24.43-66.94,31.72-19.66,6.01-39.7,9.88-60.43,8.52-6.22-.41-12.15-1.83-17.59-4.99-8.48-4.94-12.31-12.58-10.76-22.24.76-4.74,2.13-9.38,3.23-14.06.11-.48.29-.95.44-1.43,2.46-8.15,1.41-10.45-6.41-14.01-6.96-3.16-7.97-5.49-5.65-12.93.15-.48.24-.98.46-1.42,2.79-5.91,1.79-10.52-3.55-14.85-5.77-4.68-6.46-10.34-3.41-17.04.34-.76.76-1.48,1.15-2.21,3.93-7.41,3.44-10.58-2.76-16.13-2.22-2-4.71-3.7-7.01-5.61-1.91-1.59-3.89-3.16-5.57-4.98-4.84-5.23-5.47-11.35-1.72-17.4,1.57-2.53,3.48-4.88,5.44-7.13,6.98-8.03,14.04-15.99,21.07-23.97.26.26.52.51.78.77Z"/>
      <path class="cls-50" d="M7721.95,1097.16c-4.27-1.17-8.69-1.96-12.77-3.6-4.9-1.97-9.52-4.63-14.23-7.05-3.67-1.89-7.3-3.87-10.85-6.04,13.64,3.13,25.21,11.01,37.68,16.8l.17-.1Z"/>
      <path class="cls-43" d="M7721.79,1097.27c1.58.35,3.16.69,4.75,1.04-13.18,1.97-25.96,1.04-38.05-5.1,5.18.88,10.36,1.79,15.55,2.63,4.57.74,9.14,1.52,13.74,2.05,1.35.16,2.78-.46,4.18-.72l-.17.1Z"/>
    </g>
    <g>
      <path class="cls-52" d="M7845.59,3607.52c-207.41-65.3-307.53-251.9-300.72-422.64,7.07-177.43,125.23-314.65,232.26-363.8-9.63,6.3-19.41,12.38-28.87,18.93-84.14,58.23-144.92,134.4-177.43,232.06-15.08,45.31-22.07,92.03-20.47,139.71,3.27,97.22,35.19,183.95,97.77,258.81,47.07,56.31,105.9,96.11,174.31,122.09,6.47,2.46,13.01,4.78,19.59,6.9,8.45,2.72,8.48,2.6,12.4-6.71-3.32-1.29-6.6-2.66-9.94-3.85-89.93-32.09-161.42-87.44-213.17-168.07-30.76-47.93-50.4-100.12-58.88-156.14-12.71-84.04-.08-164.5,38.15-240.69,42.11-83.93,104.89-147.13,189.34-188.54,5.14-2.52,10.13-5.58,15.54-7.25,7.02-2.17,10.5-6.86,13.64-13.09,11.44-22.67,25.1-44,41.82-63.16,5.9-6.76,12.82-12.74,19.79-18.44,3.64-2.97,8.23-5.1,12.72-6.64,12.26-4.21,22.95.5,28.45,12.28,5.41,11.57,5.9,23.86,4.51,36.3-.57,5.08-1.35,10.16-2.34,15.18-.85,4.36.86,5.18,4.85,4.76,21.64-2.24,43.32-2.61,65.04-1.05,106.65,7.69,199.18,46.68,274.54,123.77,56.56,57.85,92.27,126.77,108.28,205.85,8.36,41.31,10.2,82.98,5.23,125.04-10.97,92.85-49.91,172.33-114.06,239.6-64.85,68.01-144.27,109.59-236.3,127.54-.3.06-.59.13-.89.15-10.52.74-17.25,5.76-23.68,14.75-25.1,35.12-57.84,60.18-100.58,70.71-13.66,3.37-27.45,4.19-41.29,2.56-35.98-4.21-46.13-30.25-41.64-55.81,2.42-13.77,7.79-27.03,12.01-41.11ZM7819.89,2833.96c-1.86.1-2.51-.02-3.01.19-4.7,2.02-9.46,3.91-14.04,6.17-72.73,35.98-130.26,88.52-171.78,158.34-51.39,86.41-69.65,179.24-50.42,278.12,22.12,113.75,82.64,202.31,180.08,265.32,27.96,18.08,57.93,32.11,89.42,42.87,8.41,2.88,8.56,2.71,13.51-4.79,15.68-23.76,34.27-45.12,53.99-65.54,46.24-47.89,97.35-90.06,151.54-128.56,4.18-2.97,5.85-6.11,6.03-11.07.47-12.65,1.42-25.29,2.21-37.92.56-8.93,1.17-17.86,1.76-26.79,1.91,21.75,1.13,43.56,2.75,66.45,55.12-37.52,109.68-72.53,169.47-98.47-10.52,8.11-21.51,15.44-32.48,22.8-44.04,29.58-88.04,59.22-132.15,88.69-4.11,2.75-6.05,5.62-6.45,10.81-2.17,27.93-4.01,55.93-7.59,83.69-5.01,38.74-15.21,76.17-33.04,111.21-1.2,2.35-2.14,4.83-3.85,8.71,5.69-.82,10.07-1.3,14.39-2.09,93.15-16.97,171.27-61.33,231.78-133.61,83.77-100.07,114.46-215.92,88.53-343.98-24.21-119.57-91.43-210.39-196.88-271.92-72.15-42.09-150.34-58.91-233.66-51.21-7.84.73-7.97.73-10.21,8.64-6.78,23.88-15.79,46.94-28.55,68.16-15.67,26.06-32.63,51.35-49.07,76.95-1.15,1.79-2.64,3.35-3.97,5.02.64-3.53,2.28-6.29,3.98-9.02,17.99-28.91,36.99-57.32,49.98-88.96,6.96-16.95,12.27-34.6,17.97-52.05,1.94-5.93,1.18-6.56-4.57-5.56-23.47,4.11-46.58,9.58-69.01,17.8-4.02,1.47-6.64,3.54-8.18,7.57-5.36,14.06-11.68,27.79-16.24,42.1-6.8,21.32-11.26,43.2-9.83,65.81,1.49,23.46,10.5,43.18,29.75,57.4,6.29,4.64,12.83,9.05,19.67,12.81,11.62,6.37,23.49,12.29,35.39,18.14,23.28,11.44,46.33,23.21,67.5,38.4,22.87,16.41,42.25,35.83,54.88,61.35.19.38,1.02.43,1.94.79,1.94-2.05,4.01-4.2,6.03-6.4,18.44-19.96,37.57-39.24,58.93-56.09,19.66-15.52,39.9-30.37,63.33-39.8,9.41-3.79,19.42-7.07,29.42-8.14,20.08-2.16,32.36,9.63,28.33,29.86-1.4,7.04-3.28,14.13-6.08,20.72-10.63,25.07-26.54,46.5-46.34,65.1-1.4,1.31-3.01,2.41-4.52,3.61.98-3.45,2.84-6.04,4.8-8.55,15.91-20.33,28.8-42.35,36.99-66.92,1.7-5.09,2.75-10.55,3.05-15.89.48-8.5-4.15-13.13-12.62-12.72-4.41.22-8.89,1.47-13.11,2.93-20.46,7.07-38.35,18.81-55.71,31.4-30.68,22.24-57,49.22-83.21,76.36-4.07,4.22-3.68,8.11-2.39,13.07,8.99,34.54-3.05,68.47-31.59,89.8-12.44,9.3-26.17,16.33-40.99,20.57-7.59,2.17-11.99,6.03-14.31,13.13-.65,1.99-1.72,3.85-2.51,5.8-4.43,10.98-8.89,21.95-5.32,35.72-8.92-7.66-7.53-16.39-6.34-24.44,1.24-8.38,4.04-16.53,6.27-25.19-11.92-.2-23.22,1.5-33.83-3.31,4.51-.09,8.97.59,13.44.68,4.8.09,9.63-.75,14.42-.52,6.57.31,9.29-3.08,11.74-8.75,17.17-39.82,40.8-75.84,66.68-110.39,4.13-5.51,4.65-9.4,1.59-15.23-11.34-21.57-27.74-38.5-46.94-53.07-23.21-17.62-49.46-29.87-75.15-43.15-12.57-6.5-25.35-12.71-37.38-20.12-15.22-9.36-28.88-20.59-38.07-36.57-13.01-22.62-14.48-46.94-11.05-71.89,3.5-25.43,10.71-49.93,20.9-74.37ZM7866.54,3589.37c2.52.93,3.85,1.53,5.24,1.92,45.03,12.81,90.99,17.47,137.69,15.99,4.6-.15,7.26-2.15,9.15-5.97,5.45-11.07,11.46-21.9,16.31-33.22,20.24-47.21,29.59-97.16,36.24-147.73.83-6.3.76-12.73,1.18-20.35-2.94,1.89-4.49,2.76-5.89,3.81-21.99,16.39-44.21,32.48-65.87,49.28-32.67,25.34-63.69,52.57-91.94,82.85-15.23,16.33-28.68,34.05-42.11,53.41ZM8003.86,3622.76c-3.27,0-5.28-.1-7.27.01-33.51,1.86-66.92,1.39-100.03-4.68-12.13-2.22-24.15-5.02-36.22-7.59-2.93-.63-5.84-1.89-7.72,1.96-7.59,15.53-14.21,31.38-14.42,49-.24,19.68,10.04,32.94,29.46,36.33,9.64,1.68,19.91,1.96,29.6.68,29.16-3.85,53.01-18.84,74.47-38.1,12.12-10.87,22.33-23.35,32.13-37.62ZM7846.76,2814.09c1.08.41,1.67.89,2.13.78,23.39-5.62,46.79-11.22,70.11-17.13,1.75-.44,4.1-3.06,4.2-4.77.68-11.98,2.49-24.22.78-35.93-2.77-19.03-15.67-22.7-30.04-9.83-.22.2-.46.39-.67.6-19.15,19.51-33.67,42.23-46.51,66.28ZM8227.61,2879.99c73.61,60.91,123.56,136.89,145.78,230.19,22.18,93.09,12.06,183.35-26.25,270.73,46.41-90.2,55.72-184.56,29.85-282.13-23.94-90.32-73.85-163.52-149.39-218.79ZM7949.54,3262.49c25-9.13,45.58-20.97,59.45-41.88,12.09-18.22,12.27-38.36,8.01-59.5-11.82,11.49-53.87,74.57-67.46,101.38ZM7858.3,3604.12c48.6,12.7,97.48,16.95,147.71,11.13-.64-1.09-.77-1.52-.91-1.53-1.19-.06-2.38-.06-3.56-.05-44.53.27-88.39-4.81-131.41-16.5q-7.71-2.09-11.82,6.95Z"/>
      <path class="cls-76" d="M7810.56,3017.25c-12.12,15.32-24.25,30.62-36.34,45.96-2.24,2.84-4.53,5.67-6.44,8.72-6.94,11.05-5.86,19.98,3.44,29.29,1.68,1.68,3.66,3.06,5.48,4.56,10.31-10.07,18.78-11.62,31.84-6.02,7.75,3.32,12.96,7.15,18.3,14.58-4.09-2-8-4.53-12.3-5.87-6.82-2.12-13.84-3.65-20.86-4.97-2.2-.41-4.84.31-7.02,1.18-5.22,2.07-5.67,4.6-1.66,8.47,2.38,2.3,5.1,4.24,7.53,6.5,10.9,10.16,12.69,20.13,6.01,33.33-1.5,2.96-3.08,5.88-4.83,8.69-4.45,7.17-3.23,13.78,1.85,20,1.71,2.1,3.49,4.19,5.49,6.01,6.51,5.91,8.19,13.06,5.9,21.36-.96,3.48-1.93,6.96-2.83,10.46-2.98,11.63-1.17,13.61,10.48,12.32,11.79-1.3,23.06-4.42,33.88-9.16,8.72-3.82,17.34-7.86,26.3-11.14-17.08,13.39-35.59,23.69-59.34,26.42,3.54,1.89,5.5,2.94,7.47,3.98,8.54,4.54,10.46,8.75,8.3,18.54-1.62,7.35-3.62,14.62-4.91,22.02-4.85,27.82,9.27,46.2,37.38,49.77,19.21,2.44,37.9-.36,56.47-4.52,54.59-12.24,105.09-34.64,153.45-62.29,8.63-4.94,17.24-9.93,25.75-15.07,2.63-1.59,4.62-2.2,7.12.33,11.3,11.44,26.1,14.5,41.18,16.24,10.44,1.21,21.01,1.38,32.65,2.09-1.98,1.23-3.14,2.36-4.51,2.73-22.48,6.11-44.76,6.28-66.25-3.64-4.6-2.12-7.14-.47-10.51,1.72-37.83,24.62-78.09,44.26-121.28,57.46-35.62,10.88-71.92,17.9-109.48,15.44-11.27-.74-22.02-3.31-31.86-9.04-15.37-8.96-22.31-22.8-19.49-40.29,1.38-8.59,3.86-16.99,5.86-25.48.21-.88.53-1.73.79-2.59,4.46-14.77,2.56-18.93-11.62-25.38-12.6-5.73-14.44-9.94-10.24-23.43.27-.86.44-1.77.82-2.58,5.05-10.7,3.25-19.06-6.43-26.91-10.45-8.48-11.71-18.73-6.18-30.87.62-1.37,1.38-2.68,2.09-4.01,7.12-13.42,6.23-19.16-5-29.23-4.03-3.62-8.53-6.7-12.7-10.17-3.47-2.89-7.04-5.73-10.09-9.03-8.76-9.48-9.9-20.56-3.11-31.52,2.84-4.59,6.31-8.83,9.86-12.92,12.64-14.55,25.44-28.96,38.17-43.43.47.46.94.93,1.41,1.39Z"/>
      <path class="cls-71" d="M7878.08,3194.25c-7.74-2.12-15.75-3.55-23.14-6.53-8.87-3.57-17.25-8.39-25.78-12.78-6.65-3.42-13.22-7.01-19.65-10.94,24.7,5.66,45.66,19.94,68.27,30.44l.3-.19Z"/>
      <path class="cls-61" d="M7877.78,3194.44c2.87.63,5.73,1.25,8.6,1.88-23.88,3.57-47.04,1.88-68.94-9.24,9.39,1.59,18.77,3.24,28.17,4.77,8.28,1.35,16.57,2.75,24.9,3.72,2.44.28,5.04-.84,7.57-1.31l-.3.19Z"/>
    </g>
    <g>
      <path d="M10403.7,2452.12c-161.44-50.83-239.37-196.07-234.08-328.98,5.5-138.11,97.48-244.92,180.79-283.17-7.5,4.9-15.11,9.64-22.47,14.73-65.49,45.32-112.81,104.62-138.11,180.63-11.74,35.27-17.18,71.63-15.93,108.75,2.55,75.68,27.39,143.19,76.1,201.46,36.64,43.83,82.43,74.81,135.68,95.04,5.04,1.91,10.12,3.72,15.25,5.37,6.57,2.11,6.6,2.02,9.65-5.23-2.59-1.01-5.14-2.07-7.74-3-70-24.98-125.65-68.06-165.93-130.82-23.94-37.31-39.23-77.93-45.83-121.54-9.9-65.42-.06-128.05,29.69-187.35,32.78-65.33,81.64-114.52,147.38-146.76,4-1.96,7.89-4.34,12.1-5.64,5.46-1.69,8.17-5.34,10.62-10.19,8.9-17.65,19.54-34.25,32.55-49.17,4.6-5.27,9.98-9.92,15.41-14.35,2.83-2.31,6.41-3.97,9.9-5.17,9.54-3.27,17.86.39,22.15,9.56,4.21,9.01,4.59,18.57,3.51,28.26-.44,3.96-1.05,7.91-1.82,11.81-.66,3.39.67,4.03,3.78,3.71,16.84-1.74,33.72-2.03,50.62-.82,83.02,5.98,155.04,36.33,213.7,96.34,44.02,45.03,71.82,98.67,84.28,160.23,6.51,32.16,7.94,64.59,4.07,97.33-8.54,72.27-38.85,134.14-88.78,186.5-50.48,52.94-112.3,85.3-183.93,99.27-.23.04-.46.1-.69.12-8.19.57-13.43,4.48-18.43,11.48-19.54,27.34-45.02,46.84-78.29,55.04-10.63,2.62-21.37,3.26-32.14,2-28.01-3.28-35.91-23.55-32.41-43.44,1.88-10.72,6.06-21.04,9.35-32ZM10383.7,1849.99c-1.45.08-1.95-.02-2.35.15-3.66,1.57-7.36,3.04-10.93,4.81-56.61,28.01-101.39,68.91-133.71,123.24-40,67.26-54.21,139.52-39.25,216.48,17.22,88.54,64.33,157.47,140.17,206.52,21.76,14.07,45.09,24.99,69.6,33.37,6.55,2.24,6.66,2.11,10.51-3.73,12.2-18.49,26.68-35.12,42.02-51.02,35.99-37.28,75.77-70.1,117.96-100.07,3.25-2.31,4.55-4.75,4.7-8.62.36-9.85,1.1-19.68,1.72-29.52.44-6.95.91-13.9,1.37-20.86,1.49,16.93.88,33.9,2.14,51.72,42.91-29.21,85.37-56.45,131.91-76.65-8.19,6.31-16.74,12.02-25.28,17.75-34.28,23.03-68.53,46.1-102.86,69.03-3.2,2.14-4.71,4.38-5.02,8.42-1.69,21.74-3.12,43.53-5.91,65.14-3.9,30.15-11.84,59.29-25.72,86.57-.93,1.83-1.67,3.76-2.99,6.78,4.43-.64,7.84-1.01,11.2-1.62,72.5-13.21,133.31-47.74,180.42-104,65.21-77.89,89.1-168.07,68.91-267.75-18.85-93.07-71.17-163.76-153.25-211.65-56.16-32.77-117.03-45.86-181.88-39.86-6.1.56-6.2.57-7.95,6.72-5.28,18.58-12.29,36.54-22.22,53.06-12.2,20.29-25.4,39.97-38.19,59.9-.89,1.39-2.05,2.61-3.09,3.91.5-2.75,1.77-4.9,3.09-7.02,14-22.5,28.79-44.62,38.9-69.24,5.42-13.2,9.55-26.93,13.99-40.51,1.51-4.62.92-5.11-3.56-4.33-18.27,3.2-36.26,7.46-53.71,13.86-3.13,1.15-5.17,2.76-6.37,5.89-4.17,10.94-9.09,21.63-12.64,32.77-5.29,16.59-8.77,33.62-7.65,51.23,1.16,18.26,8.17,33.61,23.16,44.68,4.89,3.62,9.98,7.05,15.31,9.97,9.04,4.96,18.29,9.57,27.55,14.12,18.12,8.9,36.07,18.06,52.54,29.89,17.8,12.77,32.89,27.89,42.72,47.76.14.29.8.34,1.51.61,1.51-1.6,3.12-3.27,4.7-4.98,14.36-15.53,29.24-30.54,45.87-43.66,15.3-12.08,31.06-23.64,49.29-30.98,7.32-2.95,15.12-5.5,22.9-6.34,15.63-1.68,25.19,7.49,22.05,23.25-1.09,5.48-2.56,11-4.73,16.13-8.27,19.51-20.66,36.19-36.07,50.67-1.09,1.02-2.34,1.88-3.52,2.81.76-2.68,2.21-4.7,3.74-6.65,12.39-15.82,22.42-32.97,28.79-52.09,1.32-3.96,2.14-8.21,2.38-12.37.37-6.62-3.23-10.22-9.83-9.9-3.44.17-6.92,1.15-10.2,2.28-15.93,5.5-29.85,14.64-43.36,24.44-23.88,17.31-44.37,38.31-64.77,59.43-3.17,3.28-2.87,6.31-1.86,10.17,7,26.89-2.38,53.3-24.59,69.9-9.69,7.24-20.37,12.71-31.91,16.01-5.91,1.69-9.34,4.69-11.14,10.22-.51,1.55-1.34,3-1.96,4.52-3.45,8.54-6.92,17.09-4.14,27.81-6.94-5.96-5.86-12.76-4.94-19.02.96-6.52,3.15-12.86,4.88-19.61-9.28-.16-18.08,1.16-26.33-2.58,3.51-.07,6.98.46,10.46.53,3.74.07,7.5-.58,11.22-.4,5.12.24,7.23-2.4,9.14-6.81,13.37-30.99,31.76-59.03,51.9-85.93,3.21-4.29,3.62-7.32,1.24-11.86-8.82-16.79-21.59-29.97-36.54-41.31-18.06-13.71-38.5-23.25-58.49-33.59-9.78-5.06-19.73-9.9-29.1-15.66-11.85-7.29-22.48-16.03-29.64-28.47-10.13-17.61-11.27-36.54-8.6-55.96,2.72-19.8,8.34-38.87,16.27-57.89ZM10420.02,2438c1.96.73,3,1.19,4.08,1.5,35.05,9.97,70.83,13.6,107.18,12.45,3.58-.11,5.65-1.67,7.12-4.64,4.24-8.62,8.92-17.04,12.7-25.86,15.75-36.75,23.04-75.63,28.21-114.99.65-4.91.59-9.91.92-15.84-2.29,1.47-3.49,2.15-4.59,2.96-17.11,12.76-34.41,25.28-51.27,38.36-25.43,19.72-49.58,40.92-71.56,64.49-11.86,12.71-22.32,26.51-32.78,41.57ZM10526.9,2463.98c-2.54,0-4.11-.08-5.66.01-26.08,1.45-52.09,1.08-77.86-3.64-9.44-1.73-18.8-3.91-28.19-5.91-2.28-.49-4.55-1.47-6.01,1.52-5.91,12.08-11.06,24.43-11.22,38.14-.19,15.32,7.81,25.64,22.93,28.28,7.5,1.31,15.5,1.52,23.04.53,22.7-3,41.26-14.66,57.97-29.65,9.43-8.46,17.38-18.18,25.01-29.28ZM10404.61,1834.53c.84.32,1.3.69,1.66.6,18.21-4.38,36.42-8.73,54.58-13.33,1.36-.35,3.19-2.38,3.27-3.72.53-9.32,1.93-18.86.61-27.96-2.16-14.81-12.2-17.67-23.38-7.65-.17.16-.36.3-.52.47-14.91,15.19-26.21,32.87-36.2,51.59ZM10701.06,1885.83c57.3,47.41,96.17,106.55,113.48,179.17,17.26,72.46,9.39,142.71-20.43,210.73,36.13-70.21,43.37-143.66,23.24-219.6-18.64-70.3-57.48-127.28-116.28-170.3ZM10484.62,2183.56c19.46-7.11,35.48-16.32,46.27-32.6,9.41-14.19,9.55-29.86,6.24-46.32-9.2,8.94-41.93,58.04-52.51,78.91ZM10413.6,2449.48c37.83,9.89,75.88,13.2,114.98,8.66-.5-.85-.6-1.18-.71-1.19-.92-.05-1.85-.05-2.77-.04-34.66.21-68.8-3.74-102.29-12.84q-6-1.63-9.2,5.41Z"/>
      <path d="M10376.44,1992.67c-9.43,11.92-18.87,23.84-28.28,35.77-1.74,2.21-3.52,4.41-5.01,6.79-5.4,8.6-4.56,15.55,2.68,22.8,1.31,1.31,2.85,2.38,4.27,3.55,8.03-7.83,14.62-9.04,24.79-4.69,6.04,2.58,10.09,5.57,14.25,11.35-3.18-1.55-6.23-3.53-9.57-4.57-5.31-1.65-10.77-2.84-16.24-3.87-1.72-.32-3.77.24-5.46.92-4.07,1.61-4.41,3.58-1.29,6.59,1.86,1.79,3.97,3.3,5.86,5.06,8.48,7.91,9.88,15.67,4.68,25.95-1.16,2.3-2.4,4.58-3.76,6.77-3.46,5.58-2.51,10.72,1.44,15.57,1.33,1.63,2.71,3.26,4.27,4.67,5.07,4.6,6.37,10.17,4.59,16.62-.75,2.71-1.5,5.42-2.2,8.14-2.32,9.05-.91,10.59,8.16,9.59,9.18-1.01,17.95-3.44,26.37-7.13,6.79-2.97,13.49-6.12,20.47-8.67-13.29,10.42-27.7,18.44-46.19,20.57,2.75,1.47,4.28,2.28,5.81,3.1,6.65,3.54,8.14,6.81,6.46,14.43-1.26,5.72-2.82,11.38-3.82,17.14-3.77,21.66,7.22,35.96,29.09,38.74,14.95,1.9,29.5-.28,43.95-3.52,42.49-9.53,81.8-26.96,119.44-48.49,6.72-3.84,13.42-7.73,20.04-11.73,2.05-1.24,3.6-1.71,5.54.26,8.8,8.91,20.32,11.29,32.05,12.64,8.13.94,16.35,1.08,25.42,1.63-1.54.96-2.45,1.84-3.51,2.13-17.5,4.75-34.84,4.89-51.57-2.83-3.58-1.65-5.56-.36-8.18,1.34-29.44,19.17-60.78,34.45-94.4,44.72-27.72,8.47-55.98,13.93-85.22,12.02-8.77-.57-17.14-2.57-24.8-7.04-11.96-6.97-17.37-17.75-15.17-31.36,1.08-6.68,3-13.23,4.56-19.83.16-.68.41-1.34.62-2.02,3.48-11.5,1.99-14.74-9.04-19.76-9.81-4.46-11.24-7.74-7.97-18.24.21-.67.34-1.38.64-2.01,3.93-8.33,2.53-14.83-5-20.95-8.13-6.6-9.11-14.58-4.81-24.03.48-1.07,1.08-2.08,1.63-3.12,5.54-10.45,4.85-14.92-3.89-22.75-3.14-2.81-6.64-5.22-9.88-7.92-2.7-2.25-5.48-4.46-7.85-7.03-6.82-7.38-7.71-16-2.42-24.54,2.21-3.57,4.91-6.88,7.68-10.06,9.84-11.32,19.8-22.54,29.71-33.8.37.36.73.72,1.1,1.08Z"/>
      <path d="M10429,2130.44c-6.02-1.65-12.26-2.77-18.01-5.08-6.91-2.78-13.43-6.53-20.07-9.95-5.18-2.66-10.29-5.45-15.29-8.52,19.23,4.41,35.54,15.52,53.14,23.69l.23-.15Z"/>
      <path d="M10428.76,2130.58c2.23.49,4.46.98,6.69,1.46-18.59,2.78-36.61,1.46-53.66-7.19,7.31,1.24,14.61,2.52,21.93,3.71,6.45,1.05,12.89,2.14,19.38,2.89,1.9.22,3.93-.65,5.89-1.02l-.23.15Z"/>
    </g>
    <rect class="cls-39" x="7601.24" width="72.95" height="72.95"/>
    <rect class="cls-37" x="7601.24" y="84.32" width="72.95" height="72.95"/>
    <rect class="cls-94" x="7601.24" y="186.47" width="72.95" height="72.95"/>
    <rect class="cls-89" x="7601.24" y="280.98" width="72.95" height="72.95"/>
    <rect class="cls-6" x="7601.24" y="375.49" width="72.95" height="72.95"/>
    <rect class="cls-1" x="7601.24" y="470" width="72.95" height="72.95"/>
    <rect class="cls-46" x="7601.24" y="564.51" width="72.95" height="72.95"/>
    <rect class="cls-72" x="7711.14" y="302.54" width="465.16" height="72.95"/>
    <g>
      <path class="cls-26" d="M8602.32,3032.31c0,15.4,12.21,22.16,47.04,36.97,34.01,14.46,55.34,26.66,55.34,57.12s-24.77,52.26-56.52,52.26c-18.72,0-32.82-7.35-41.71-15.76-7.35.83-14.81,6.99-17.54,15.41h-3.67l-2.73-64.35,4.03-.12c2.96,36.5,29.98,60.67,60.67,60.67,20.97,0,35.91-11.85,35.91-30.34s-14.69-26.78-49.3-40.17c-27.85-10.78-49.18-23.34-49.18-52.14s19.79-48.11,50.24-48.11c16.47,0,28.68,6.16,37.92,13.98,9.12-.71,15.52-7.23,17.89-13.98h3.55l2.13,61.97-3.79.12c-2.61-29.27-23.46-58.07-58.54-58.07-20.74,0-31.76,9.84-31.76,24.53Z"/>
      <path class="cls-74" d="M8870.72,3008.26l2.49,57.24-3.79.12-.59-6.99c-1.9-23.23-14.69-46.33-47.28-46.33h-7.23v157.84h20.74v4.03h-76.55v-4.03h20.86v-157.84h-7.23c-32.59,0-45.98,23.11-47.28,46.33l-.36,6.99-3.91-.12,2.25-57.24h147.89Z"/>
      <path class="cls-27" d="M9060.44,3008.26v4.03h-1.3c-16.83,0-27.61,14.93-27.61,59.37v41.83c0,48.58-24.29,65.17-61.74,65.17s-63.87-18.13-63.87-60.08v-106.29h-20.74v-4.03h75.96v4.03h-20.38v107.72c0,33.18,10.43,52.26,39.93,52.26s46.57-17.66,46.57-58.3v-42.3c0-43.96-9.72-59.37-28.56-59.37h-1.66v-4.03h63.4Z"/>
      <path class="cls-4" d="M9145.64,3008.26c61.86,0,92.55,38.51,92.55,83.9,0,41.47-25.71,82-86.74,82h-80.34v-4.03h20.62v-157.84h-20.62v-4.03h74.54ZM9126.68,3012.28v157.84h24.77c41.95,0,49.06-37.09,49.06-76.79,0-43.37-9.24-81.05-54.51-81.05h-19.32Z"/>
      <path class="cls-63" d="M9307.39,3012.28v157.84h20.74v4.03h-76.31v-4.03h20.62v-157.84h-20.62v-4.03h76.31v4.03h-20.74Z"/>
      <path class="cls-3" d="M9504.93,3091.2c0,44.67-32.59,87.45-82.24,87.45s-82.12-42.78-82.12-87.45,32.47-87.45,82.12-87.45,82.24,42.78,82.24,87.45ZM9422.69,3007.78c-33.54,0-44.44,37.56-44.44,83.42s10.9,83.42,44.44,83.42,44.44-37.56,44.44-83.42-10.9-83.42-44.44-83.42Z"/>
      <path class="cls-84" d="M9759.11,3110.16v4.03h-20.03v52.02c-30.22,0-42.3,12.44-67.43,12.44-47.52,0-78.56-46.1-78.56-88.4,0-44.67,34.72-86.5,79.04-86.5,17.18,0,29.39,6.4,38.28,13.86,8.53-1.3,16-7.58,18.13-13.86h3.56l2.01,62.45-4.15.12c-2.13-34.01-26.43-57.24-52.02-57.24-34.13,0-47.16,35.55-47.16,83.9,0,41.24,9.95,81.76,42.9,81.76,18.37,0,28.08-12.56,30.57-25.95v-34.6h-22.99v-4.03h77.85Z"/>
      <path class="cls-69" d="M9910.32,3170.13h15.76v4.03h-71.22v-4.03h17.77l-20.62-55.93h-47.99c-4.27,13.75-6.04,24.29-6.04,32.23,0,18.84,9.95,23.7,22.28,23.7h.95v4.03h-61.5v-4.03h.24c14.46,0,24.17-12.21,37.92-51.07l40.17-113.88h10.78l61.5,164.95ZM9850.48,3110.16l-23.11-62.8-20.03,56.76c-.71,2.13-1.42,4.15-2.01,6.04h45.15Z"/>
      <path class="cls-92" d="M10097.31,3144.89c-.95,22.04-8.41,32.47-26.31,32.47-27.02,0-33.3-21.92-36.26-47.16-3.79-32.71-9.48-35.67-43.84-37.09v77.02h20.86v4.03h-76.43v-4.03h20.62v-157.84h-20.62v-4.03h74.89c39.34,0,62.69,14.81,62.69,41.83,0,33.18-34.37,40.53-63.16,41.59.24,0,.12.24,0,.24,52.02,2.49,61.86,17.06,63.16,54.27.36,10.67,1.3,22.87,9.12,22.87,6.52,0,10.67-9.01,11.5-24.65l3.79.47ZM9990.9,3089.07c2.96.12,6.04.24,9.36.24,6.04,0,14.58-.71,20.26-3.55,11.02-5.33,14.81-18.72,14.81-34.13,0-27.49-12.92-39.34-34.84-39.34h-9.6v76.79Z"/>
      <path class="cls-75" d="M10241.29,3066.32c-2.13-34.01-26.43-57.24-51.79-57.24-33.18,0-46.69,35.31-46.69,82.24,0,41.24,10.43,81.88,47.28,81.88,29.03,0,48.58-30.45,51.9-59.49l4.15.12-2.61,64.82h-3.55c-2.49-8.29-9.36-15.41-16.35-16.95-10.78,11.02-23.94,16.95-39.82,16.95-46.69,0-78.68-45.5-78.68-88.16s34.48-86.74,78.56-86.74c16.95,0,29.27,6.4,38.04,13.86,8.41-1.42,16-7.58,18.13-13.86h3.56l2.01,62.45-4.15.12Z"/>
      <path class="cls-67" d="M10322.81,3012.28v157.84h20.74v4.03h-76.31v-4.03h20.62v-157.84h-20.62v-4.03h76.31v4.03h-20.74Z"/>
      <path class="cls-78" d="M10502.93,3170.13h15.76v4.03h-71.22v-4.03h17.77l-20.62-55.93h-47.99c-4.27,13.75-6.04,24.29-6.04,32.23,0,18.84,9.95,23.7,22.28,23.7h.95v4.03h-61.5v-4.03h.24c14.46,0,24.17-12.21,37.92-51.07l40.17-113.88h10.78l61.5,164.95ZM10443.09,3110.16l-23.11-62.8-20.03,56.76c-.71,2.13-1.42,4.15-2.01,6.04h45.15Z"/>
    </g>
    <g>
      <path class="cls-54" d="M9021.34,3366.79c18.59,0,31.26,7.32,31.26,20.19,0,7.69-4.68,18.59-27.69,19.94.12,0,.06.12,0,.12,20.62.62,31.82,9.17,31.82,23.32,0,16-14.03,22.59-31.2,22.59h-37.66v-.8h11.08v-84.56h-11.08v-.8h33.48ZM9015.62,3406.73c4.8,0,9.66,0,14.03-1.54,7.51-2.65,10.4-8.99,10.4-18.16,0-16.31-8.8-19.45-19.2-19.45h-9.79v39.14h4.55ZM9023.5,3452.15c10.4,0,20-3.2,20-22.03,0-9.42-2.58-19.88-16.99-22.16-2.71-.43-4.25-.43-9.11-.43h-6.34v44.62h12.43Z"/>
      <path class="cls-86" d="M9130.03,3422.73h.8l-1.48,30.22h-64.37v-.8h11.08v-84.56h-11.08v-.8h63.94l.98,28.74h-.8l-.31-5.54c-.68-12.8-6.09-22.4-24.68-22.4h-15.94v41.79h5.17c3.2,0,5.91-.25,7.63-.68,5.85-1.35,8.92-8.25,9.23-15.76h.74v33.6h-.74c-.37-9.42-3.38-14.52-8.92-15.82-2.03-.49-4.74-.62-7.94-.62h-5.17v42.03h15.88c17.36,0,24.86-8.55,25.66-23.26l.31-6.15Z"/>
      <path class="cls-55" d="M9212.01,3452.15h8.62v.8h-31.51v-.8h9.66l-11.26-30.83h-27.26c-3.26,9.54-4.62,16.19-4.62,20.74,0,8.74,4.86,10.09,10.4,10.09h.74v.8h-28.56v-.8h.12c7.75,0,11.57-3.69,18.22-22.77l22.52-64.19h.74l32.19,86.96ZM9160.5,3420.52h26.71l-13.66-37.3-13.05,37.3Z"/>
      <path class="cls-25" d="M9301.44,3366.79v.8h-.92c-8.86,0-13.36,7.39-13.36,25.23v28.74c0,25.05-11.51,33.73-30.28,33.73s-30.65-8.62-30.65-31.26v-56.44h-11.14v-.8h34.28v.8h-11.08v57.85c0,19.45,6.03,28.43,21.54,28.43s26.46-8.49,26.46-32.31v-28.74c0-17.91-4-25.23-13.05-25.23h-1.05v-.8h29.23Z"/>
      <path class="cls-42" d="M9381.39,3366.79l1.05,28.62h-.8l-.31-5.35c-.74-12.99-6.09-22.46-24.49-22.46h-5.66v84.56h11.14v.8h-34.34v-.8h11.14v-84.56h-5.66c-19.26,0-23.82,10.52-24.49,22.46l-.31,5.35h-.74l.98-28.62h72.5Z"/>
      <path class="cls-30" d="M9471.43,3367.59h-.43c-6.4,0-14.15,6.52-24.19,24.19l-12.8,22.53v37.85h11.14v.8h-34.34v-.8h11.14v-35.63l-25.91-48.93h-8.62v-.8h31.88v.8h-9.97l24.25,45.91,11.63-20.62c4.37-7.75,6.71-14.34,6.71-18.59s-2.77-6.71-8.55-6.71h-.8v-.8h28.86v.8Z"/>
      <path class="cls-5" d="M9581.48,3452.15h8.62v.8h-31.51v-.8h9.66l-11.26-30.83h-27.26c-3.26,9.54-4.62,16.19-4.62,20.74,0,8.74,4.86,10.09,10.4,10.09h.74v.8h-28.56v-.8h.12c7.75,0,11.57-3.69,18.22-22.77l22.52-64.19h.74l32.19,86.96ZM9529.97,3420.52h26.71l-13.66-37.3-13.05,37.3Z"/>
      <path class="cls-66" d="M9658.29,3395.47c-1.29-22.71-17.05-30.22-28.25-30.22-18.59,0-26.03,20.86-26.03,44.8,0,21.23,6.03,44.37,26.28,44.37,16.06,0,26.46-16,28.25-31.2h.86l-1.29,32.06h-.62c-.98-4.8-4.74-8.31-8.37-8.86-5.97,6.4-12.43,8.86-19.45,8.86-23.02,0-38.96-24.19-38.96-45.79s16.92-45.05,38.77-45.05c8.55,0,14.89,3.45,18.83,6.95,4.98-.18,8.55-3.69,9.23-6.95h.68l.86,31.02h-.8Z"/>
      <path class="cls-45" d="M9742.48,3452.15h8.62v.8h-31.51v-.8h9.66l-11.26-30.83h-27.26c-3.26,9.54-4.62,16.19-4.62,20.74,0,8.74,4.86,10.09,10.4,10.09h.74v.8h-28.56v-.8h.12c7.75,0,11.57-3.69,18.22-22.77l22.52-64.19h.74l32.19,86.96ZM9690.97,3420.52h26.71l-13.66-37.3-13.05,37.3Z"/>
      <path class="cls-87" d="M9791.6,3366.79c30.9,0,46.96,20.43,46.96,43.7,0,20.56-12.92,42.46-43.57,42.46h-39.08v-.8h11.08v-84.56h-11.08v-.8h35.7ZM9779.1,3367.59v84.56h16c26.16,0,30.16-22.03,30.16-40.99,0-21.42-5.48-43.57-33.3-43.57h-12.86Z"/>
      <path class="cls-82" d="M9912.54,3422.73h.8l-1.48,30.22h-64.37v-.8h11.08v-84.56h-11.08v-.8h63.94l.98,28.74h-.8l-.31-5.54c-.68-12.8-6.09-22.4-24.68-22.4h-15.94v41.79h5.17c3.2,0,5.91-.25,7.63-.68,5.85-1.35,8.92-8.25,9.23-15.76h.74v33.6h-.74c-.37-9.42-3.38-14.52-8.92-15.82-2.03-.49-4.74-.62-7.94-.62h-5.17v42.03h15.88c17.36,0,24.86-8.55,25.66-23.26l.31-6.15Z"/>
      <path class="cls-58" d="M10024.55,3367.59h-11.08v84.56h11.08v.8h-34.28v-.8h11.08v-83.95l-29.73,84.75h-1.11l-31.76-84.19v58.1c0,17.97,3.57,25.29,13.17,25.29h.86v.8h-29.23v-.8h.86c9.23,0,13.48-7.32,13.48-25.29v-59.27h-11.69v-.8h24.92l25.79,68.01,24-68.01h23.63v.8Z"/>
      <path class="cls-51" d="M10113.36,3367.59h-.43c-6.4,0-14.15,6.52-24.19,24.19l-12.8,22.53v37.85h11.14v.8h-34.34v-.8h11.14v-35.63l-25.91-48.93h-8.62v-.8h31.88v.8h-9.97l24.25,45.91,11.63-20.62c4.37-7.75,6.71-14.34,6.71-18.59s-2.77-6.71-8.55-6.71h-.8v-.8h28.86v.8Z"/>
    </g>
  </g>
  <g id="Camada_2" data-name="Camada 2">
    <g>
      <path d="M8405.84,5719.23c-361.6-113.84-536.15-439.17-524.29-736.84,12.33-309.34,218.33-548.57,404.93-634.26-16.79,10.98-33.84,21.59-50.34,33-146.68,101.52-252.66,234.32-309.33,404.58-26.29,78.99-38.48,160.44-35.68,243.57,5.7,169.5,61.35,320.71,170.45,451.22,82.07,98.17,184.64,167.57,303.9,212.86,11.28,4.29,22.67,8.33,34.16,12.03,14.73,4.74,14.79,4.54,21.62-11.71-5.79-2.25-11.51-4.64-17.33-6.72-156.78-55.95-281.43-152.44-371.65-293.01-53.63-83.56-87.87-174.55-102.64-272.22-22.16-146.52-.14-286.8,66.5-419.62,73.42-146.33,182.86-256.5,330.09-328.7,8.96-4.39,17.66-9.72,27.09-12.64,12.23-3.78,18.3-11.96,23.79-22.83,19.95-39.53,43.76-76.72,72.91-110.12,10.29-11.79,22.34-22.22,34.51-32.15,6.34-5.18,14.35-8.89,22.18-11.58,21.37-7.33,40,.87,49.61,21.41,9.43,20.17,10.29,41.6,7.86,63.29-.99,8.86-2.36,17.71-4.07,26.46-1.49,7.6,1.5,9.03,8.46,8.31,37.73-3.9,75.53-4.56,113.39-1.83,185.94,13.4,347.25,81.38,478.64,215.77,98.6,100.86,160.87,221.01,188.78,358.89,14.58,72.03,17.79,144.68,9.12,218-19.13,161.88-87.02,300.44-198.85,417.73-113.06,118.57-251.53,191.07-411.97,222.35-.52.1-1.03.23-1.55.27-18.34,1.28-30.08,10.04-41.29,25.72-43.76,61.23-100.84,104.92-175.35,123.28-23.81,5.87-47.85,7.3-71.99,4.47-62.73-7.35-80.42-52.74-72.59-97.31,4.22-24.01,13.58-47.12,20.93-71.67ZM8361.04,4370.58c-3.25.18-4.38-.04-5.25.34-8.19,3.51-16.49,6.82-24.47,10.76-126.81,62.73-227.1,154.34-299.48,276.04-89.59,150.64-121.43,312.5-87.91,484.88,38.57,198.32,144.08,352.71,313.96,462.56,48.74,31.52,101,55.98,155.89,74.75,14.67,5.02,14.92,4.72,23.55-8.35,27.33-41.42,59.75-78.66,94.12-114.27,80.61-83.49,169.72-157.01,264.2-224.14,7.28-5.18,10.2-10.65,10.52-19.31.81-22.06,2.47-44.08,3.85-66.12.98-15.57,2.05-31.14,3.08-46.71,3.34,37.92,1.97,75.94,4.8,115.85,96.1-65.41,191.22-126.44,295.45-171.67-18.33,14.14-37.5,26.92-56.62,39.76-76.78,51.57-153.49,103.25-230.39,154.62-7.17,4.79-10.55,9.8-11.25,18.85-3.77,48.69-6.98,97.51-13.24,145.91-8.73,67.54-26.52,132.79-57.6,193.89-2.09,4.1-3.74,8.43-6.71,15.18,9.91-1.42,17.55-2.26,25.09-3.64,162.4-29.59,298.6-106.92,404.1-232.94,146.05-174.46,199.56-376.43,154.35-599.7-42.21-208.47-159.4-366.8-343.24-474.06-125.79-73.39-262.11-102.71-407.37-89.27-13.67,1.26-13.89,1.28-17.8,15.06-11.82,41.63-27.52,81.84-49.77,118.84-27.32,45.44-56.88,89.53-85.55,134.16-2,3.11-4.6,5.84-6.92,8.75,1.12-6.15,3.97-10.97,6.93-15.72,31.36-50.4,64.49-99.93,87.13-155.09,12.13-29.56,21.39-60.32,31.33-90.74,3.38-10.34,2.05-11.44-7.97-9.69-40.91,7.16-81.21,16.71-120.31,31.03-7.01,2.57-11.58,6.17-14.26,13.19-9.34,24.51-20.36,48.46-28.31,73.39-11.85,37.16-19.63,75.31-17.13,114.74,2.59,40.91,18.31,75.28,51.87,100.08,10.96,8.1,22.36,15.78,34.29,22.33,20.25,11.11,40.96,21.43,61.7,31.62,40.58,19.94,80.78,40.46,117.67,66.94,39.86,28.61,73.66,62.47,95.69,106.96.32.66,1.78.75,3.38,1.37,3.38-3.58,6.99-7.33,10.52-11.15,32.15-34.79,65.49-68.4,102.73-97.79,34.28-27.05,69.56-52.94,110.4-69.39,16.4-6.6,33.86-12.32,51.3-14.2,35.01-3.77,56.42,16.78,49.38,52.06-2.45,12.27-5.72,24.63-10.59,36.12-18.53,43.7-46.27,81.07-80.79,113.49-2.44,2.29-5.24,4.2-7.88,6.29,1.7-6.01,4.94-10.53,8.37-14.9,27.74-35.44,50.21-73.84,64.49-116.66,2.96-8.87,4.8-18.39,5.32-27.71.83-14.82-7.24-22.9-22.01-22.17-7.7.38-15.5,2.57-22.86,5.11-35.68,12.32-66.86,32.8-97.12,54.74-53.48,38.77-99.38,85.82-145.07,133.12-7.1,7.35-6.42,14.14-4.17,22.78,15.67,60.22-5.32,119.37-55.08,156.56-21.7,16.21-45.63,28.46-71.46,35.87-13.23,3.79-20.91,10.51-24.96,22.9-1.14,3.48-3,6.71-4.38,10.12-7.73,19.13-15.5,38.27-9.27,62.28-15.55-13.35-13.13-28.58-11.06-42.61,2.16-14.61,7.05-28.81,10.93-43.91-20.79-.35-40.49,2.61-58.98-5.78,7.87-.16,15.64,1.03,23.43,1.18,8.37.16,16.79-1.3,25.14-.9,11.46.54,16.2-5.37,20.46-15.26,29.94-69.42,71.14-132.22,116.26-192.46,7.19-9.61,8.11-16.39,2.77-26.56-19.77-37.6-48.36-67.12-81.84-92.53-40.46-30.71-86.23-52.07-131.01-75.23-21.92-11.34-44.19-22.17-65.18-35.07-26.54-16.32-50.36-35.9-66.38-63.76-22.68-39.44-25.24-81.83-19.26-125.33,6.09-44.34,18.68-87.06,36.44-129.66ZM8442.38,5687.59c4.39,1.62,6.72,2.66,9.14,3.35,78.5,22.34,158.64,30.45,240.06,27.88,8.02-.25,12.67-3.74,15.95-10.4,9.5-19.3,19.97-38.18,28.43-57.92,35.28-82.31,51.6-169.39,63.19-257.55,1.45-10.99,1.33-22.19,2.06-35.48-5.13,3.3-7.82,4.81-10.27,6.64-38.33,28.57-77.07,56.62-114.84,85.92-56.95,44.18-111.04,91.65-160.29,144.45-26.56,28.47-49.99,59.37-73.42,93.12ZM8681.79,5745.79c-5.7,0-9.2-.17-12.68.03-58.42,3.25-116.66,2.43-174.4-8.16-21.15-3.88-42.11-8.75-63.14-13.24-5.11-1.09-10.18-3.3-13.47,3.41-13.23,27.07-24.77,54.71-25.14,85.43-.42,34.31,17.5,57.43,51.37,63.35,16.8,2.94,34.71,3.41,51.61,1.18,50.84-6.71,92.41-32.84,129.84-66.42,21.13-18.96,38.92-40.71,56.01-65.58ZM8407.88,4335.94c1.88.71,2.92,1.54,3.71,1.35,40.78-9.81,81.58-19.56,122.24-29.86,3.06-.77,7.15-5.33,7.32-8.32,1.18-20.88,4.33-42.23,1.36-62.63-4.84-33.18-27.32-39.58-52.37-17.14-.39.35-.81.68-1.18,1.05-33.39,34.02-58.71,73.62-81.09,115.55ZM9071.86,4450.84c128.33,106.19,215.41,238.66,254.16,401.31,38.67,162.29,21.03,319.65-45.76,472.01,80.92-157.25,97.14-321.76,52.05-491.87-41.75-157.46-128.75-285.09-260.45-381.45ZM8587.08,5117.7c43.58-15.92,79.46-36.55,103.64-73.02,21.07-31.77,21.4-66.87,13.97-103.74-20.61,20.03-93.92,130-117.61,176.75ZM8428,5713.3c84.72,22.14,169.95,29.56,257.52,19.4-1.12-1.91-1.34-2.65-1.59-2.66-2.07-.11-4.14-.1-6.21-.09-77.63.47-154.1-8.38-229.11-28.77q-13.44-3.65-20.61,12.12Z"/>
      <path d="M8344.77,4690.14c-21.12,26.7-42.27,53.39-63.35,80.12-3.9,4.95-7.89,9.88-11.23,15.21-12.09,19.26-10.22,34.83,5.99,51.06,2.93,2.93,6.39,5.34,9.55,7.95,17.98-17.55,32.74-20.25,55.52-10.5,13.52,5.79,22.6,12.47,31.91,25.42-7.12-3.48-13.95-7.9-21.44-10.23-11.88-3.7-24.13-6.37-36.38-8.66-3.84-.72-8.44.55-12.23,2.05-9.11,3.61-9.89,8.02-2.89,14.77,4.16,4,8.9,7.39,13.12,11.33,19,17.71,22.13,35.09,10.47,58.12-2.61,5.15-5.37,10.25-8.41,15.15-7.76,12.51-5.63,24.02,3.22,34.88,2.98,3.66,6.08,7.31,9.56,10.47,11.36,10.3,14.28,22.77,10.29,37.24-1.67,6.07-3.37,12.13-4.93,18.23-5.2,20.27-2.03,23.72,18.27,21.48,20.56-2.27,40.2-7.7,59.07-15.97,15.2-6.66,30.23-13.71,45.85-19.42-29.78,23.34-62.04,41.3-103.46,46.06,6.16,3.29,9.59,5.12,13.02,6.94,14.89,7.92,18.23,15.26,14.48,32.32-2.82,12.81-6.31,25.49-8.56,38.39-8.45,48.51,16.16,80.55,65.16,86.77,33.5,4.26,66.08-.63,98.45-7.89,95.17-21.34,183.22-60.4,267.52-108.6,15.05-8.61,30.05-17.31,44.89-26.27,4.59-2.77,8.05-3.83,12.4.58,19.7,19.95,45.5,25.28,71.79,28.32,18.21,2.11,36.63,2.41,56.93,3.64-3.46,2.14-5.48,4.12-7.86,4.76-39.19,10.65-78.04,10.94-115.51-6.34-8.02-3.7-12.45-.82-18.32,3-65.95,42.93-136.14,77.17-211.43,100.17-62.09,18.97-125.38,31.21-190.88,26.92-19.65-1.29-38.39-5.76-55.55-15.77-26.79-15.62-38.9-39.75-33.98-70.24,2.41-14.97,6.73-29.63,10.21-44.42.36-1.53.93-3.01,1.38-4.52,7.78-25.76,4.47-33-20.25-44.25-21.97-10-25.18-17.34-17.85-40.85.47-1.5.77-3.09,1.44-4.5,8.81-18.65,5.66-33.23-11.2-46.91-18.21-14.78-20.41-32.65-10.78-53.83,1.09-2.39,2.41-4.67,3.64-6.99,12.41-23.4,10.86-33.41-8.71-50.96-7.03-6.3-14.87-11.68-22.14-17.73-6.05-5.03-12.27-9.99-17.59-15.74-15.27-16.53-17.27-35.84-5.42-54.96,4.95-7.99,11.01-15.4,17.19-22.52,22.04-25.37,44.34-50.49,66.55-75.71.82.81,1.64,1.62,2.45,2.43Z"/>
      <path d="M8462.49,4998.72c-13.49-3.69-27.45-6.19-40.34-11.38-15.47-6.22-30.07-14.63-44.95-22.28-11.6-5.96-23.05-12.22-34.26-19.08,43.07,9.87,79.61,34.77,119.03,53.07l.52-.33Z"/>
      <path d="M8461.97,4999.05c5,1.09,10,2.19,14.99,3.28-41.64,6.23-82,3.27-120.2-16.11,16.37,2.78,32.73,5.65,49.12,8.31,14.44,2.35,28.88,4.79,43.41,6.48,4.25.49,8.79-1.46,13.2-2.29l-.52.33Z"/>
    </g>
    <g>
      <path d="M7513.06,6012.89c0,18.02,14.28,25.92,55.02,43.24,39.78,16.91,64.72,31.18,64.72,66.8s-28.96,61.12-66.11,61.12c-21.9,0-38.39-8.59-48.78-18.43-8.59.97-17.32,8.18-20.51,18.02h-4.3l-3.19-75.25,4.71-.14c3.46,42.69,35.06,70.96,70.96,70.96,24.53,0,41.99-13.86,41.99-35.48s-17.19-31.32-57.65-46.98c-32.57-12.61-57.52-27.3-57.52-60.98s23.15-56.27,58.76-56.27c19.26,0,33.54,7.21,44.35,16.35,10.67-.83,18.16-8.45,20.93-16.35h4.16l2.49,72.48-4.43.14c-3.05-34.23-27.44-67.91-68.46-67.91-24.25,0-37.14,11.5-37.14,28.69Z"/>
      <path d="M7826.97,5984.75l2.91,66.94-4.43.14-.69-8.18c-2.22-27.16-17.19-54.19-55.3-54.19h-8.45v184.6h24.25v4.71h-89.53v-4.71h24.39v-184.6h-8.45c-38.11,0-53.77,27.02-55.3,54.19l-.42,8.18-4.57-.14,2.63-66.94h172.96Z"/>
      <path d="M8048.85,5984.75v4.71h-1.52c-19.68,0-32.29,17.46-32.29,69.43v48.92c0,56.82-28.41,76.22-72.21,76.22s-74.7-21.2-74.7-70.26v-124.32h-24.25v-4.71h88.84v4.71h-23.84v125.98c0,38.8,12.2,61.12,46.7,61.12s54.47-20.65,54.47-68.19v-49.48c0-51.42-11.36-69.43-33.4-69.43h-1.94v-4.71h74.15Z"/>
      <path d="M8148.5,5984.75c72.34,0,108.24,45.04,108.24,98.12,0,48.51-30.07,95.9-101.45,95.9h-93.96v-4.71h24.11v-184.6h-24.11v-4.71h87.17ZM8126.32,5989.46v184.6h28.97c49.06,0,57.38-43.38,57.38-89.81,0-50.72-10.81-94.8-63.75-94.8h-22.59Z"/>
      <path d="M8337.67,5989.46v184.6h24.25v4.71h-89.25v-4.71h24.11v-184.6h-24.11v-4.71h89.25v4.71h-24.25Z"/>
      <path d="M8568.7,6081.77c0,52.25-38.11,102.28-96.18,102.28s-96.04-50.03-96.04-102.28,37.97-102.28,96.04-102.28,96.18,50.03,96.18,102.28ZM8472.52,5984.2c-39.22,0-51.97,43.93-51.97,97.57s12.75,97.57,51.97,97.57,51.97-43.93,51.97-97.57-12.75-97.57-51.97-97.57Z"/>
      <path d="M8865.97,6103.94v4.71h-23.42v60.84c-35.34,0-49.48,14.55-78.86,14.55-55.57,0-91.88-53.91-91.88-103.39,0-52.25,40.61-101.17,92.44-101.17,20.1,0,34.37,7.48,44.76,16.21,9.98-1.52,18.71-8.87,21.2-16.21h4.16l2.36,73.04-4.85.14c-2.5-39.77-30.91-66.94-60.84-66.94-39.91,0-55.16,41.58-55.16,98.12,0,48.23,11.64,95.63,50.17,95.63,21.48,0,32.85-14.69,35.76-30.35v-40.47h-26.89v-4.71h91.05Z"/>
      <path d="M9042.81,6174.07h18.43v4.71h-83.29v-4.71h20.79l-24.11-65.41h-56.13c-4.99,16.08-7.07,28.41-7.07,37.7,0,22.04,11.64,27.72,26.05,27.72h1.11v4.71h-71.93v-4.71h.28c16.91,0,28.27-14.27,44.35-59.73l46.98-133.18h12.61l71.93,192.92ZM8972.83,6103.94l-27.02-73.45-23.42,66.38c-.83,2.49-1.66,4.85-2.36,7.07h52.8Z"/>
      <path d="M9261.51,6144.55c-1.11,25.78-9.84,37.97-30.77,37.97-31.6,0-38.94-25.64-42.41-55.16-4.43-38.25-11.09-41.71-51.28-43.38v90.08h24.39v4.71h-89.39v-4.71h24.11v-184.6h-24.11v-4.71h87.59c46.01,0,73.31,17.32,73.31,48.92,0,38.8-40.19,47.4-73.87,48.65.28,0,.14.28,0,.28,60.84,2.91,72.34,19.96,73.87,63.47.42,12.47,1.52,26.75,10.67,26.75,7.62,0,12.47-10.53,13.44-28.83l4.43.55ZM9137.05,6079.27c3.47.14,7.07.28,10.95.28,7.07,0,17.05-.83,23.7-4.16,12.89-6.24,17.32-21.9,17.32-39.91,0-32.15-15.11-46.01-40.75-46.01h-11.23v89.81Z"/>
      <path d="M9429.89,6052.66c-2.5-39.77-30.91-66.94-60.56-66.94-38.8,0-54.6,41.3-54.6,96.18,0,48.23,12.2,95.76,55.3,95.76,33.95,0,56.82-35.62,60.7-69.57l4.85.14-3.05,75.81h-4.16c-2.91-9.7-10.95-18.02-19.13-19.82-12.61,12.89-27.99,19.82-46.57,19.82-54.6,0-92.02-53.22-92.02-103.11s40.33-101.45,91.88-101.45c19.82,0,34.23,7.48,44.49,16.21,9.84-1.66,18.71-8.87,21.2-16.21h4.16l2.36,73.04-4.85.14Z"/>
      <path d="M9525.24,5989.46v184.6h24.25v4.71h-89.25v-4.71h24.11v-184.6h-24.11v-4.71h89.25v4.71h-24.25Z"/>
      <path d="M9735.9,6174.07h18.43v4.71h-83.29v-4.71h20.79l-24.11-65.41h-56.13c-4.99,16.08-7.07,28.41-7.07,37.7,0,22.04,11.64,27.72,26.05,27.72h1.11v4.71h-71.93v-4.71h.28c16.91,0,28.27-14.27,44.35-59.73l46.98-133.18h12.61l71.93,192.92ZM9665.91,6103.94l-27.02-73.45-23.42,66.38c-.83,2.49-1.66,4.85-2.36,7.07h52.8Z"/>
    </g>
    <g>
      <path d="M7935.77,6283.05c24.1,0,40.54,9.5,40.54,26.18,0,9.98-6.06,24.1-35.91,25.86.16,0,.08.16,0,.16,26.74.8,41.26,11.89,41.26,30.25,0,20.75-18.2,29.29-40.46,29.29h-48.84v-1.04h14.37v-109.66h-14.37v-1.04h43.42ZM7928.35,6334.85c6.22,0,12.53,0,18.2-1.99,9.74-3.43,13.49-11.65,13.49-23.54,0-21.15-11.41-25.22-24.9-25.22h-12.69v50.76h5.91ZM7938.56,6393.75c13.49,0,25.94-4.15,25.94-28.57,0-12.21-3.35-25.78-22.03-28.73-3.51-.56-5.51-.56-11.81-.56h-8.22v57.86h16.12Z"/>
      <path d="M8076.72,6355.6h1.04l-1.92,39.19h-83.48v-1.04h14.37v-109.66h-14.37v-1.04h82.92l1.28,37.27h-1.04l-.4-7.18c-.88-16.6-7.9-29.05-32-29.05h-20.67v54.19h6.7c4.15,0,7.66-.32,9.9-.88,7.58-1.76,11.57-10.69,11.97-20.43h.96v43.58h-.96c-.48-12.21-4.39-18.83-11.57-20.51-2.63-.64-6.15-.8-10.3-.8h-6.7v54.51h20.59c22.51,0,32.24-11.09,33.28-30.17l.4-7.98Z"/>
      <path d="M8183.03,6393.75h11.17v1.04h-40.86v-1.04h12.53l-14.61-39.98h-35.36c-4.23,12.37-5.99,20.99-5.99,26.9,0,11.33,6.31,13.09,13.49,13.09h.96v1.04h-37.03v-1.04h.16c10.06,0,15-4.79,23.62-29.53l29.21-83.24h.96l41.74,112.77ZM8116.23,6352.73h34.64l-17.72-48.36-16.92,48.36Z"/>
      <path d="M8299,6283.05v1.04h-1.2c-11.49,0-17.32,9.58-17.32,32.72v37.27c0,32.48-14.92,43.74-39.27,43.74s-39.74-11.17-39.74-40.54v-73.19h-14.45v-1.04h44.45v1.04h-14.37v75.02c0,25.22,7.82,36.87,27.93,36.87s34.32-11.01,34.32-41.9v-37.27c0-23.22-5.19-32.72-16.92-32.72h-1.36v-1.04h37.91Z"/>
      <path d="M8402.68,6283.05l1.36,37.11h-1.04l-.4-6.94c-.96-16.84-7.9-29.13-31.76-29.13h-7.34v109.66h14.45v1.04h-44.53v-1.04h14.45v-109.66h-7.34c-24.98,0-30.89,13.65-31.76,29.13l-.4,6.94h-.96l1.28-37.11h94.02Z"/>
      <path d="M8519.44,6284.09h-.56c-8.3,0-18.36,8.46-31.37,31.37l-16.6,29.21v49.08h14.45v1.04h-44.53v-1.04h14.45v-46.21l-33.6-63.45h-11.17v-1.04h41.34v1.04h-12.93l31.45,59.54,15.08-26.74c5.67-10.06,8.7-18.6,8.7-24.1s-3.59-8.7-11.09-8.7h-1.04v-1.04h37.43v1.04Z"/>
      <path d="M8662.15,6393.75h11.17v1.04h-40.86v-1.04h12.53l-14.61-39.98h-35.36c-4.23,12.37-5.99,20.99-5.99,26.9,0,11.33,6.31,13.09,13.49,13.09h.96v1.04h-37.03v-1.04h.16c10.06,0,15-4.79,23.62-29.53l29.21-83.24h.96l41.74,112.77ZM8595.35,6352.73h34.64l-17.72-48.36-16.92,48.36Z"/>
      <path d="M8761.76,6320.24c-1.68-29.45-22.11-39.19-36.63-39.19-24.1,0-33.76,27.05-33.76,58.1,0,27.53,7.82,57.54,34.08,57.54,20.83,0,34.32-20.75,36.63-40.46h1.12l-1.68,41.58h-.8c-1.28-6.23-6.15-10.77-10.85-11.49-7.74,8.3-16.12,11.49-25.22,11.49-29.85,0-50.52-31.37-50.52-59.38s21.95-58.42,50.28-58.42c11.09,0,19.31,4.47,24.42,9.02,6.46-.24,11.09-4.79,11.97-9.02h.88l1.12,40.22h-1.04Z"/>
      <path d="M8870.94,6393.75h11.17v1.04h-40.86v-1.04h12.53l-14.61-39.98h-35.36c-4.23,12.37-5.99,20.99-5.99,26.9,0,11.33,6.31,13.09,13.49,13.09h.96v1.04h-37.03v-1.04h.16c10.06,0,15-4.79,23.62-29.53l29.21-83.24h.96l41.74,112.77ZM8804.14,6352.73h34.64l-17.72-48.36-16.92,48.36Z"/>
      <path d="M8934.63,6283.05c40.06,0,60.89,26.5,60.89,56.67,0,26.66-16.76,55.07-56.5,55.07h-50.68v-1.04h14.37v-109.66h-14.37v-1.04h46.29ZM8918.43,6284.09v109.66h20.75c33.92,0,39.11-28.57,39.11-53.15,0-27.77-7.1-56.51-43.18-56.51h-16.68Z"/>
      <path d="M9091.47,6355.6h1.04l-1.92,39.19h-83.48v-1.04h14.37v-109.66h-14.37v-1.04h82.92l1.28,37.27h-1.04l-.4-7.18c-.88-16.6-7.9-29.05-32-29.05h-20.67v54.19h6.7c4.15,0,7.66-.32,9.9-.88,7.58-1.76,11.57-10.69,11.97-20.43h.96v43.58h-.96c-.48-12.21-4.39-18.83-11.57-20.51-2.63-.64-6.15-.8-10.3-.8h-6.7v54.51h20.59c22.51,0,32.24-11.09,33.28-30.17l.4-7.98Z"/>
      <path d="M9236.72,6284.09h-14.37v109.66h14.37v1.04h-44.45v-1.04h14.37v-108.86l-38.55,109.9h-1.44l-41.18-109.18v75.34c0,23.3,4.63,32.8,17.08,32.8h1.12v1.04h-37.91v-1.04h1.12c11.97,0,17.48-9.5,17.48-32.8v-76.86h-15.16v-1.04h32.32l33.44,88.19,31.13-88.19h30.65v1.04Z"/>
      <path d="M9351.89,6284.09h-.56c-8.3,0-18.36,8.46-31.37,31.37l-16.6,29.21v49.08h14.45v1.04h-44.53v-1.04h14.45v-46.21l-33.6-63.45h-11.17v-1.04h41.34v1.04h-12.93l31.45,59.54,15.08-26.74c5.67-10.06,8.7-18.6,8.7-24.1s-3.59-8.7-11.09-8.7h-1.04v-1.04h37.43v1.04Z"/>
    </g>
    <g>
      <path class="cls-44" d="M11436,5490.77c-293.75-92.48-435.56-356.77-425.92-598.6,10.01-251.3,177.36-445.64,328.96-515.26-13.64,8.92-27.49,17.54-40.89,26.81-119.16,82.47-205.26,190.36-251.29,328.67-21.36,64.17-31.26,130.34-28.99,197.87,4.63,137.7,49.84,260.54,138.47,366.56,66.67,79.75,149.99,136.13,246.88,172.93,9.17,3.48,18.42,6.77,27.75,9.77,11.96,3.85,12.02,3.68,17.56-9.51-4.71-1.83-9.35-3.77-14.08-5.46-127.37-45.45-228.62-123.84-301.92-238.04-43.57-67.88-71.38-141.8-83.39-221.14-18.01-119.03-.11-232.99,54.03-340.89,59.64-118.87,148.55-208.38,268.16-267.03,7.28-3.57,14.35-7.9,22.01-10.27,9.94-3.07,14.87-9.71,19.33-18.55,16.2-32.11,35.55-62.32,59.23-89.46,8.36-9.58,18.15-18.05,28.03-26.12,5.15-4.21,11.65-7.22,18.02-9.41,17.36-5.96,32.5.71,40.3,17.39,7.66,16.39,8.36,33.79,6.39,51.41-.81,7.2-1.92,14.39-3.31,21.49-1.21,6.17,1.22,7.33,6.87,6.75,30.65-3.17,61.36-3.7,92.11-1.49,151.06,10.89,282.1,66.11,388.83,175.29,80.1,81.94,130.69,179.55,153.36,291.55,11.84,58.51,14.45,117.53,7.41,177.1-15.54,131.51-70.69,244.07-161.54,339.35-91.85,96.32-204.34,155.22-334.68,180.64-.42.08-.84.19-1.26.22-14.9,1.04-24.44,8.15-33.54,20.89-35.55,49.74-81.92,85.24-142.45,100.15-19.35,4.77-38.88,5.93-58.48,3.63-50.96-5.97-65.34-42.84-58.97-79.05,3.43-19.51,11.03-38.28,17.01-58.23ZM11399.61,4395.15c-2.64.15-3.56-.03-4.27.28-6.65,2.85-13.4,5.54-19.88,8.74-103.01,50.96-184.49,125.38-243.29,224.25-72.78,122.38-98.65,253.87-71.41,393.9,31.33,161.11,117.04,286.53,255.05,375.77,39.6,25.6,82.05,45.47,126.64,60.72,11.92,4.07,12.12,3.84,19.13-6.78,22.21-33.65,48.54-63.9,76.46-92.83,65.48-67.83,137.88-127.55,214.63-182.09,5.92-4.2,8.29-8.65,8.55-15.68.66-17.92,2.01-35.81,3.13-53.71.79-12.65,1.66-25.3,2.5-37.95,2.71,30.8,1.6,61.69,3.9,94.11,78.07-53.14,155.34-102.72,240.02-139.46-14.89,11.49-30.46,21.87-46,32.3-62.37,41.9-124.69,83.87-187.17,125.61-5.82,3.89-8.57,7.97-9.14,15.31-3.07,39.56-5.67,79.21-10.76,118.53-7.09,54.87-21.55,107.87-46.79,157.51-1.69,3.33-3.04,6.85-5.45,12.33,8.05-1.16,14.26-1.84,20.38-2.96,131.93-24.04,242.58-86.86,328.28-189.24,118.65-141.73,162.12-305.81,125.39-487.18-34.29-169.36-129.49-297.98-278.84-385.12-102.19-59.62-212.94-83.44-330.94-72.52-11.11,1.03-11.28,1.04-14.46,12.23-9.6,33.82-22.36,66.48-40.43,96.54-22.19,36.92-46.21,72.73-69.5,108.99-1.62,2.53-3.73,4.74-5.62,7.11.91-5,3.23-8.91,5.63-12.77,25.48-40.95,52.39-81.18,70.78-125.99,9.86-24.01,17.38-49,25.45-73.72,2.74-8.4,1.67-9.3-6.47-7.87-33.24,5.82-65.97,13.57-97.74,25.21-5.7,2.09-9.41,5.02-11.58,10.72-7.59,19.91-16.54,39.36-23,59.62-9.62,30.19-15.95,61.18-13.92,93.22,2.11,33.23,14.87,61.16,42.13,81.3,8.9,6.58,18.17,12.82,27.86,18.14,16.45,9.03,33.27,17.41,50.12,25.69,32.97,16.2,65.62,32.87,95.6,54.38,32.38,23.24,59.84,50.75,77.73,86.9.26.53,1.45.61,2.75,1.11,2.74-2.91,5.67-5.95,8.55-9.06,26.12-28.27,53.21-55.57,83.46-79.44,27.85-21.97,56.51-43.01,89.69-56.37,13.32-5.36,27.51-10.01,41.67-11.54,28.44-3.06,45.84,13.63,40.12,42.3-1.99,9.97-4.65,20.01-8.61,29.34-15.05,35.5-37.59,65.86-65.64,92.2-1.98,1.86-4.26,3.41-6.4,5.11,1.38-4.88,4.02-8.55,6.8-12.1,22.54-28.79,40.79-59.99,52.39-94.77,2.4-7.2,3.9-14.94,4.33-22.51.68-12.04-5.88-18.6-17.88-18.01-6.25.31-12.59,2.09-18.57,4.15-28.98,10.01-54.31,26.65-78.9,44.47-43.45,31.49-80.73,69.72-117.85,108.15-5.77,5.97-5.21,11.49-3.39,18.51,12.73,48.92-4.32,96.98-44.75,127.19-17.63,13.17-37.07,23.12-58.05,29.14-10.75,3.08-16.99,8.54-20.27,18.6-.92,2.83-2.44,5.45-3.56,8.22-6.28,15.54-12.59,31.09-7.53,50.59-12.63-10.84-10.67-23.22-8.98-34.61,1.75-11.87,5.73-23.41,8.88-35.67-16.89-.29-32.89,2.12-47.91-4.69,6.39-.13,12.7.84,19.03.96,6.8.13,13.64-1.06,20.42-.73,9.31.44,13.16-4.36,16.63-12.4,24.33-56.4,57.79-107.41,94.44-156.35,5.84-7.8,6.59-13.32,2.25-21.57-16.06-30.55-39.29-54.53-66.48-75.17-32.87-24.95-70.06-42.3-106.43-61.12-17.8-9.21-35.9-18.01-52.95-28.49-21.56-13.26-40.91-29.17-53.92-51.8-18.43-32.04-20.5-66.48-15.65-101.82,4.95-36.02,15.17-70.72,29.6-105.33ZM11465.68,5465.07c3.57,1.32,5.46,2.16,7.42,2.72,63.77,18.15,128.87,24.74,195.02,22.65,6.52-.21,10.29-3.04,12.95-8.45,7.72-15.68,16.22-31.01,23.1-47.05,28.66-66.87,41.92-137.61,51.33-209.23,1.17-8.93,1.08-18.03,1.67-28.83-4.17,2.68-6.35,3.91-8.34,5.39-31.14,23.21-62.61,46-93.3,69.8-46.27,35.89-90.21,74.46-130.22,117.34-21.58,23.13-40.61,48.23-59.64,75.64ZM11660.17,5512.35c-4.63,0-7.47-.14-10.3.02-47.46,2.64-94.77,1.97-141.68-6.63-17.18-3.15-34.21-7.11-51.3-10.75-4.15-.89-8.27-2.68-10.94,2.77-10.75,21.99-20.12,44.44-20.42,69.4-.34,27.87,14.22,46.65,41.73,51.46,13.65,2.39,28.2,2.77,41.93.96,41.3-5.45,75.07-26.68,105.48-53.96,17.17-15.4,31.62-33.08,45.5-53.28ZM11437.66,4367.01c1.52.58,2.37,1.25,3.02,1.1,33.13-7.97,66.27-15.89,99.3-24.26,2.48-.63,5.81-4.33,5.95-6.76.96-16.96,3.52-34.31,1.1-50.88-3.93-26.96-22.2-32.15-42.54-13.92-.32.28-.66.55-.95.85-27.13,27.64-47.69,59.81-65.88,93.87ZM11977.07,4460.36c104.25,86.27,175,193.88,206.48,326.02,31.41,131.84,17.09,259.68-37.17,383.45,65.74-127.75,78.92-261.39,42.28-399.58-33.91-127.92-104.59-231.6-211.59-309.88ZM11583.23,5002.1c35.41-12.93,64.55-29.69,84.2-59.32,17.12-25.81,17.38-54.32,11.35-84.27-16.74,16.27-76.3,105.61-95.55,143.59ZM11454,5485.95c68.83,17.99,138.07,24.01,209.21,15.76-.91-1.55-1.09-2.15-1.3-2.16-1.68-.09-3.36-.08-5.05-.07-63.07.39-125.18-6.81-186.12-23.37q-10.92-2.97-16.74,9.84Z"/>
      <path class="cls-77" d="M11386.39,4654.75c-17.16,21.69-34.34,43.37-51.46,65.09-3.17,4.02-6.41,8.03-9.12,12.35-9.82,15.65-8.3,28.3,4.87,41.48,2.38,2.38,5.19,4.34,7.76,6.46,14.61-14.26,26.59-16.45,45.1-8.53,10.98,4.7,18.36,10.13,25.92,20.65-5.79-2.83-11.34-6.42-17.42-8.31-9.65-3-19.6-5.18-29.55-7.03-3.12-.58-6.86.45-9.94,1.67-7.4,2.93-8.03,6.52-2.35,12,3.38,3.25,7.23,6.01,10.66,9.21,15.44,14.39,17.98,28.51,8.51,47.21-2.12,4.19-4.36,8.33-6.83,12.31-6.3,10.16-4.57,19.51,2.62,28.33,2.42,2.97,4.94,5.94,7.77,8.51,9.23,8.37,11.6,18.5,8.36,30.25-1.36,4.93-2.74,9.86-4.01,14.81-4.22,16.47-1.65,19.27,14.84,17.45,16.7-1.85,32.66-6.26,47.99-12.98,12.35-5.41,24.55-11.14,37.25-15.78-24.19,18.96-50.4,33.55-84.05,37.42,5.01,2.67,7.79,4.16,10.58,5.64,12.1,6.44,14.81,12.4,11.76,26.25-2.29,10.4-5.13,20.71-6.95,31.19-6.87,39.41,13.13,65.43,52.94,70.49,27.21,3.46,53.68-.51,79.98-6.41,77.31-17.34,148.85-49.06,217.33-88.22,12.23-6.99,24.41-14.06,36.47-21.34,3.73-2.25,6.54-3.11,10.08.47,16.01,16.21,36.97,20.54,58.32,23.01,14.79,1.71,29.76,1.96,46.25,2.96-2.81,1.74-4.45,3.34-6.38,3.87-31.84,8.65-63.39,8.89-93.84-5.15-6.51-3-10.12-.66-14.88,2.44-53.58,34.87-110.6,62.69-171.76,81.38-50.44,15.41-101.86,25.35-155.07,21.87-15.97-1.05-31.18-4.68-45.13-12.81-21.77-12.69-31.6-32.29-27.6-57.06,1.96-12.16,5.47-24.07,8.3-36.09.29-1.24.76-2.44,1.13-3.67,6.32-20.92,3.63-26.81-16.45-35.95-17.85-8.12-20.46-14.08-14.5-33.19.38-1.22.63-2.51,1.17-3.65,7.15-15.15,4.6-26.99-9.1-38.11-14.8-12.01-16.58-26.52-8.76-43.73.88-1.94,1.96-3.79,2.96-5.67,10.08-19.01,8.82-27.14-7.08-41.4-5.71-5.12-12.08-9.49-17.99-14.4-4.91-4.09-9.97-8.11-14.29-12.79-12.41-13.43-14.03-29.12-4.4-44.65,4.03-6.49,8.94-12.51,13.97-18.3,17.9-20.61,36.02-41.02,54.06-61.51.66.66,1.33,1.31,1.99,1.97Z"/>
      <path class="cls-32" d="M11482.02,4905.44c-10.96-3-22.3-5.03-32.77-9.24-12.57-5.06-24.43-11.89-36.52-18.1-9.42-4.84-18.72-9.92-27.83-15.5,34.99,8.02,64.67,28.25,96.69,43.11l.42-.27Z"/>
      <path class="cls-53" d="M11481.6,4905.71c4.06.89,8.12,1.78,12.18,2.66-33.83,5.06-66.62,2.66-97.64-13.09,13.3,2.26,26.59,4.59,39.9,6.75,11.73,1.91,23.46,3.89,35.26,5.27,3.46.4,7.14-1.18,10.72-1.86l-.42.27Z"/>
    </g>
    <g>
      <path class="cls-36" d="M10652.21,5766.82c0,16.73,13.26,24.07,51.11,40.16,36.95,15.7,60.12,28.96,60.12,62.05s-26.9,56.77-61.4,56.77c-20.34,0-35.66-7.98-45.31-17.12-7.98.9-16.09,7.6-19.05,16.74h-3.99l-2.96-69.9,4.38-.13c3.22,39.65,32.57,65.91,65.91,65.91,22.79,0,39-12.87,39-32.95s-15.96-29.09-53.55-43.64c-30.25-11.72-53.42-25.36-53.42-56.64s21.5-52.26,54.58-52.26c17.89,0,31.15,6.69,41.19,15.19,9.91-.77,16.86-7.85,19.44-15.19h3.86l2.32,67.32-4.12.13c-2.83-31.8-25.49-63.08-63.59-63.08-22.53,0-34.5,10.68-34.5,26.65Z"/>
      <path class="cls-29" d="M10943.78,5740.69l2.7,62.18-4.12.13-.64-7.59c-2.06-25.23-15.96-50.33-51.36-50.33h-7.85v171.47h22.53v4.38h-83.16v-4.38h22.66v-171.47h-7.85c-35.4,0-49.95,25.1-51.36,50.33l-.39,7.59-4.25-.13,2.45-62.18h160.65Z"/>
      <path class="cls-83" d="M11149.87,5740.69v4.38h-1.42c-18.28,0-29.99,16.22-29.99,64.49v45.44c0,52.78-26.39,70.8-67.07,70.8s-69.38-19.7-69.38-65.27v-115.47h-22.53v-4.38h82.51v4.38h-22.14v117.01c0,36.04,11.33,56.77,43.38,56.77s50.59-19.18,50.59-63.34v-45.96c0-47.76-10.56-64.49-31.02-64.49h-1.8v-4.38h68.87Z"/>
      <path class="cls-8" d="M11242.43,5740.69c67.2,0,100.54,41.84,100.54,91.14,0,45.05-27.93,89.08-94.23,89.08h-87.28v-4.38h22.4v-171.47h-22.4v-4.38h80.97ZM11221.83,5745.06v171.47h26.9c45.57,0,53.29-40.29,53.29-83.42,0-47.11-10.04-88.05-59.21-88.05h-20.98Z"/>
      <path class="cls-24" d="M11418.14,5745.06v171.47h22.53v4.38h-82.9v-4.38h22.4v-171.47h-22.4v-4.38h82.9v4.38h-22.53Z"/>
      <path class="cls-47" d="M11632.73,5830.8c0,48.53-35.4,95-89.34,95s-89.21-46.47-89.21-95,35.27-95,89.21-95,89.34,46.47,89.34,95ZM11543.4,5740.17c-36.43,0-48.27,40.81-48.27,90.62s11.84,90.62,48.27,90.62,48.27-40.81,48.27-90.62-11.84-90.62-48.27-90.62Z"/>
      <path class="cls-79" d="M11908.86,5851.39v4.38h-21.76v56.51c-32.83,0-45.96,13.52-73.25,13.52-51.62,0-85.35-50.08-85.35-96.03,0-48.53,37.72-93.97,85.86-93.97,18.67,0,31.92,6.95,41.58,15.06,9.27-1.42,17.38-8.24,19.69-15.06h3.86l2.19,67.84-4.51.13c-2.32-36.94-28.71-62.18-56.51-62.18-37.07,0-51.23,38.62-51.23,91.14,0,44.8,10.81,88.82,46.6,88.82,19.95,0,30.51-13.65,33.21-28.19v-37.59h-24.97v-4.38h84.57Z"/>
      <path class="cls-18" d="M12073.11,5916.53h17.12v4.38h-77.37v-4.38h19.31l-22.4-60.76h-52.13c-4.63,14.93-6.56,26.39-6.56,35.01,0,20.47,10.81,25.74,24.2,25.74h1.03v4.38h-66.81v-4.38h.26c15.7,0,26.26-13.26,41.19-55.48l43.64-123.71h11.71l66.81,179.19ZM12008.11,5851.39l-25.1-68.23-21.76,61.66c-.77,2.32-1.54,4.51-2.19,6.56h49.05Z"/>
      <path class="cls-41" d="M12276.25,5889.11c-1.03,23.94-9.14,35.27-28.58,35.27-29.35,0-36.17-23.81-39.39-51.23-4.12-35.53-10.3-38.75-47.63-40.29v83.67h22.66v4.38h-83.03v-4.38h22.4v-171.47h-22.4v-4.38h81.36c42.74,0,68.1,16.09,68.1,45.44,0,36.04-37.33,44.03-68.61,45.18.26,0,.13.26,0,.26,56.51,2.7,67.2,18.54,68.61,58.96.39,11.59,1.42,24.84,9.91,24.84,7.08,0,11.59-9.78,12.49-26.77l4.12.51ZM12160.65,5828.48c3.22.13,6.57.26,10.17.26,6.57,0,15.83-.77,22.01-3.86,11.97-5.79,16.09-20.34,16.09-37.07,0-29.87-14.03-42.74-37.85-42.74h-10.43v83.42Z"/>
      <path class="cls-80" d="M12432.65,5803.76c-2.32-36.94-28.71-62.18-56.26-62.18-36.04,0-50.72,38.36-50.72,89.34,0,44.8,11.33,88.95,51.36,88.95,31.54,0,52.78-33.08,56.38-64.62l4.51.13-2.83,70.41h-3.86c-2.7-9.01-10.17-16.74-17.77-18.41-11.71,11.97-26,18.41-43.25,18.41-50.72,0-85.48-49.43-85.48-95.77s37.46-94.23,85.35-94.23c18.41,0,31.8,6.95,41.32,15.06,9.14-1.54,17.38-8.24,19.69-15.06h3.86l2.19,67.84-4.51.13Z"/>
      <path class="cls-49" d="M12521.21,5745.06v171.47h22.53v4.38h-82.9v-4.38h22.4v-171.47h-22.4v-4.38h82.9v4.38h-22.53Z"/>
      <path class="cls-70" d="M12716.88,5916.53h17.12v4.38h-77.37v-4.38h19.31l-22.4-60.76h-52.13c-4.63,14.93-6.56,26.39-6.56,35.01,0,20.47,10.81,25.74,24.2,25.74h1.03v4.38h-66.81v-4.38h.26c15.7,0,26.26-13.26,41.19-55.48l43.64-123.71h11.71l66.81,179.19ZM12651.87,5851.39l-25.1-68.23-21.76,61.66c-.77,2.32-1.54,4.51-2.19,6.56h49.05Z"/>
    </g>
    <g>
      <path class="cls-60" d="M11044.84,6017.76c22.39,0,37.66,8.82,37.66,24.32,0,9.27-5.63,22.39-33.36,24.02.15,0,.07.15,0,.15,24.83.74,38.33,11.05,38.33,28.1,0,19.27-16.9,27.21-37.58,27.21h-45.37v-.96h13.34v-101.86h-13.34v-.96h40.33ZM11037.95,6065.87c5.78,0,11.64,0,16.9-1.85,9.04-3.19,12.53-10.82,12.53-21.87,0-19.64-10.6-23.43-23.13-23.43h-11.79v47.15h5.49ZM11047.44,6120.58c12.53,0,24.09-3.86,24.09-26.54,0-11.34-3.11-23.94-20.46-26.69-3.26-.52-5.11-.52-10.97-.52h-7.64v53.74h14.97Z"/>
      <path class="cls-38" d="M11175.76,6085.14h.96l-1.78,36.4h-77.54v-.96h13.34v-101.86h-13.34v-.96h77.02l1.19,34.62h-.96l-.37-6.67c-.82-15.42-7.34-26.98-29.73-26.98h-19.2v50.34h6.23c3.86,0,7.12-.3,9.19-.82,7.04-1.63,10.75-9.93,11.12-18.98h.89v40.47h-.89c-.44-11.34-4.08-17.49-10.75-19.05-2.45-.59-5.71-.74-9.56-.74h-6.23v50.63h19.13c20.9,0,29.95-10.3,30.91-28.02l.37-7.41Z"/>
      <path class="cls-7" d="M11274.51,6120.58h10.38v.96h-37.95v-.96h11.64l-13.57-37.14h-32.84c-3.93,11.49-5.56,19.5-5.56,24.98,0,10.53,5.86,12.16,12.53,12.16h.89v.96h-34.4v-.96h.15c9.34,0,13.94-4.45,21.94-27.43l27.13-77.32h.89l38.77,104.75ZM11212.46,6082.48h32.17l-16.46-44.92-15.72,44.92Z"/>
      <path class="cls-56" d="M11382.23,6017.76v.96h-1.11c-10.67,0-16.09,8.9-16.09,30.39v34.62c0,30.17-13.86,40.62-36.47,40.62s-36.92-10.38-36.92-37.66v-67.98h-13.42v-.96h41.29v.96h-13.34v69.68c0,23.42,7.26,34.25,25.95,34.25s31.88-10.23,31.88-38.92v-34.62c0-21.57-4.82-30.39-15.72-30.39h-1.26v-.96h35.21Z"/>
      <path class="cls-34" d="M11478.53,6017.76l1.26,34.47h-.96l-.37-6.45c-.89-15.64-7.34-27.06-29.5-27.06h-6.82v101.86h13.42v.96h-41.36v-.96h13.42v-101.86h-6.82c-23.2,0-28.69,12.68-29.5,27.06l-.37,6.45h-.89l1.19-34.47h87.33Z"/>
      <path class="cls-23" d="M11586.98,6018.72h-.52c-7.71,0-17.05,7.86-29.13,29.13l-15.42,27.13v45.59h13.42v.96h-41.37v-.96h13.42v-42.92l-31.21-58.93h-10.38v-.96h38.4v.96h-12.01l29.21,55.3,14.01-24.83c5.26-9.34,8.08-17.27,8.08-22.39s-3.34-8.08-10.3-8.08h-.96v-.96h34.77v.96Z"/>
      <path class="cls-62" d="M11719.54,6120.58h10.38v.96h-37.95v-.96h11.64l-13.57-37.14h-32.84c-3.93,11.49-5.56,19.5-5.56,24.98,0,10.53,5.86,12.16,12.53,12.16h.89v.96h-34.4v-.96h.15c9.34,0,13.94-4.45,21.94-27.43l27.13-77.32h.89l38.77,104.75ZM11657.49,6082.48h32.17l-16.46-44.92-15.72,44.92Z"/>
      <path class="cls-40" d="M11812.06,6052.31c-1.56-27.35-20.53-36.4-34.03-36.4-22.39,0-31.36,25.13-31.36,53.97,0,25.57,7.27,53.45,31.65,53.45,19.35,0,31.88-19.27,34.03-37.58h1.04l-1.56,38.62h-.74c-1.19-5.78-5.71-10.01-10.08-10.67-7.19,7.71-14.97,10.67-23.43,10.67-27.72,0-46.92-29.13-46.92-55.15s20.39-54.26,46.7-54.26c10.3,0,17.94,4.15,22.68,8.38,6-.22,10.3-4.45,11.12-8.38h.82l1.04,37.36h-.96Z"/>
      <path class="cls-73" d="M11913.47,6120.58h10.38v.96h-37.95v-.96h11.64l-13.57-37.14h-32.84c-3.93,11.49-5.56,19.5-5.56,24.98,0,10.53,5.86,12.16,12.53,12.16h.89v.96h-34.4v-.96h.15c9.34,0,13.94-4.45,21.94-27.43l27.13-77.32h.89l38.77,104.75ZM11851.42,6082.48h32.17l-16.46-44.92-15.72,44.92Z"/>
      <path class="cls-20" d="M11972.63,6017.76c37.21,0,56.56,24.61,56.56,52.63,0,24.76-15.57,51.15-52.48,51.15h-47.07v-.96h13.34v-101.86h-13.34v-.96h43ZM11957.58,6018.72v101.86h19.27c31.51,0,36.32-26.54,36.32-49.37,0-25.8-6.6-52.49-40.1-52.49h-15.49Z"/>
      <path class="cls-2" d="M12118.3,6085.14h.96l-1.78,36.4h-77.54v-.96h13.34v-101.86h-13.34v-.96h77.02l1.19,34.62h-.96l-.37-6.67c-.82-15.42-7.34-26.98-29.73-26.98h-19.2v50.34h6.23c3.86,0,7.12-.3,9.19-.82,7.04-1.63,10.75-9.93,11.12-18.98h.89v40.47h-.89c-.44-11.34-4.08-17.49-10.75-19.05-2.45-.59-5.71-.74-9.56-.74h-6.23v50.63h19.13c20.9,0,29.95-10.3,30.91-28.02l.37-7.41Z"/>
      <path class="cls-64" d="M12253.23,6018.72h-13.34v101.86h13.34v.96h-41.29v-.96h13.34v-101.11l-35.8,102.08h-1.33l-38.25-101.41v69.98c0,21.65,4.3,30.47,15.86,30.47h1.04v.96h-35.21v-.96h1.04c11.12,0,16.23-8.82,16.23-30.47v-71.39h-14.08v-.96h30.02l31.06,81.91,28.91-81.91h28.47v.96Z"/>
      <path class="cls-90" d="M12360.2,6018.72h-.52c-7.71,0-17.05,7.86-29.13,29.13l-15.42,27.13v45.59h13.42v.96h-41.37v-.96h13.42v-42.92l-31.21-58.93h-10.38v-.96h38.4v.96h-12.01l29.21,55.3,14.01-24.83c5.26-9.34,8.08-17.27,8.08-22.39s-3.34-8.08-10.3-8.08h-.96v-.96h34.77v.96Z"/>
    </g>
    <text class="cls-16" transform="translate(3974.34 3273.86)"><tspan x="0" y="0">STUDIO GARCIA</tspan></text>
    <text class="cls-9" transform="translate(3777.83 3591.32)"><tspan x="0" y="0">S</tspan><tspan class="cls-81" x="165.78" y="0">T</tspan><tspan x="372.41" y="0">UDIO GARCIA</tspan></text>
    <text class="cls-10" transform="translate(468.94 2756.63)"><tspan x="0" y="0">STUDIO GARCIA</tspan></text>
    <text class="cls-17" transform="translate(713.38 3109.1)"><tspan x="0" y="0">STUDIO GARCIA</tspan></text>
    <text class="cls-15" transform="translate(340.26 3869.73)"><tspan x="0" y="0">S</tspan><tspan class="cls-31" x="162.9" y="0">T</tspan><tspan x="318.2" y="0">UD</tspan><tspan class="cls-68" x="766.66" y="0">I</tspan><tspan x="931.52" y="0">O </tspan><tspan class="cls-59" x="1165.82" y="0">G</tspan><tspan x="1313.51" y="0">A</tspan><tspan class="cls-22" x="1524.74" y="0">R</tspan><tspan class="cls-33" x="1789.21" y="0">C</tspan><tspan x="1916.78" y="0">IA</tspan></text>
    <text class="cls-13" transform="translate(340.26 4288.03)"><tspan x="0" y="0">STUDIO GARCIA</tspan></text>
    <text class="cls-12" transform="translate(246.82 4791.24)"><tspan class="cls-28" x="0" y="0">S</tspan><tspan class="cls-48" x="153.34" y="0">T</tspan><tspan x="405.11" y="0">U</tspan><tspan class="cls-57" x="642.59" y="0">D</tspan><tspan class="cls-91" x="843.36" y="0">I</tspan><tspan x="979.19" y="0">O </tspan><tspan class="cls-19" x="1280.43" y="0">G</tspan><tspan class="cls-93" x="1429.51" y="0">A</tspan><tspan x="1677.2" y="0">R</tspan><tspan class="cls-65" x="1906.53" y="0">C</tspan><tspan class="cls-88" x="2080.62" y="0">I</tspan><tspan x="2201.82" y="0">A</tspan></text>
    <text class="cls-14" transform="translate(0 5383.04)"><tspan x="0" y="0">STUDIO GARCIA</tspan></text>
    <text class="cls-11" transform="translate(495.73 3453.1)"><tspan x="0" y="0">STUDIO GARCIA</tspan></text>
  </g>
</svg>