<?xml version="1.0" standalone="no"?>
<!DOCTYPE svg PUBLIC "-//W3C//DTD SVG 20010904//EN"
 "http://www.w3.org/TR/2001/REC-SVG-20010904/DTD/svg10.dtd">
<svg version="1.0" xmlns="http://www.w3.org/2000/svg"
 width="1024.000000pt" height="1024.000000pt" viewBox="0 0 1024.000000 1024.000000"
 preserveAspectRatio="xMidYMid meet">

<g transform="translate(0.000000,1024.000000) scale(0.100000,-0.100000)"
fill="none" stroke="#C0C0C0" stroke-width="50">
<path d="M4422 9604 c-150 -75 -387 -370 -527 -657 -57 -116 -136 -326 -135
-359 1 -7 19 41 41 107 92 279 259 556 452 754 89 91 181 157 232 167 46 8
112 -12 131 -41 9 -14 22 -44 29 -67 8 -24 14 -34 14 -23 1 37 -37 104 -71
125 -45 27 -103 25 -166 -6z"/>
<path d="M4445 9509 c-145 -92 -381 -414 -494 -675 -105 -242 -160 -479 -166
-709 l-3 -150 8 145 c18 323 120 659 281 926 129 214 297 410 395 460 55 29
55 29 70 9 13 -16 15 -45 12 -155 -3 -77 -1 -120 3 -100 5 19 9 81 10 137 2
87 0 106 -16 123 -25 27 -43 25 -100 -11z"/>
<path d="M4664 9355 c0 -60 1 -84 3 -52 2 32 2 81 0 110 -2 29 -3 3 -3 -58z"/>
<path d="M4628 9131 c-14 -58 -29 -115 -33 -126 -5 -15 -4 -17 3 -5 14 21 64
208 60 224 -2 7 -15 -34 -30 -93z"/>
<path d="M4522 9168 c-7 -28 -11 -53 -8 -55 2 -2 9 19 16 47 7 28 10 53 8 55
-3 3 -10 -18 -16 -47z"/>
<path d="M4930 9131 l-95 -6 150 -8 c408 -21 727 -81 1075 -202 291 -102 614
-281 853 -474 84 -68 105 -82 92 -62 -3 5 0 13 6 17 8 5 8 9 -1 14 -7 4 -11
13 -9 19 6 15 25 0 33 -26 6 -18 4 -22 -8 -17 -37 14 1 -32 145 -176 85 -85
177 -183 203 -217 27 -35 53 -60 59 -56 6 3 7 1 3 -5 -4 -6 17 -44 47 -84 275
-375 460 -835 539 -1343 29 -191 36 -566 14 -784 -10 -89 -15 -166 -12 -169 3
-3 6 3 6 14 0 10 7 75 15 144 19 155 21 496 5 653 -7 64 -10 126 -7 137 3 11
2 18 -2 15 -4 -2 -13 32 -20 75 -6 44 -25 134 -42 200 -16 67 -26 127 -22 133
3 7 3 9 -2 5 -8 -7 -115 289 -118 325 -1 9 -4 17 -7 17 -10 0 -41 71 -35 80 3
4 1 10 -4 12 -5 1 -25 37 -46 78 -21 41 -58 110 -82 152 -25 43 -41 83 -37 89
4 8 3 9 -4 5 -11 -6 -72 75 -72 96 0 4 -9 17 -20 28 -12 12 -18 26 -14 33 4 7
4 9 -1 5 -4 -4 -21 9 -37 30 l-30 37 26 3 c14 2 26 8 26 13 0 6 -4 8 -9 5 -5
-3 -8 2 -7 11 0 10 -7 19 -16 21 -10 2 -18 -2 -18 -8 0 -6 5 -8 10 -5 6 3 10
-1 10 -11 0 -14 -2 -14 -16 -3 -8 7 -13 21 -11 31 3 11 -3 24 -15 32 -11 8
-17 19 -14 24 10 16 -17 21 -34 6 -13 -11 -20 -8 -43 22 -16 19 -25 33 -20 32
4 -1 18 3 30 10 19 11 25 8 54 -31 19 -23 36 -44 39 -47 4 -3 28 -31 53 -63
47 -58 53 -83 16 -72 -11 4 -19 2 -19 -5 0 -6 5 -8 12 -4 7 4 8 3 4 -4 -5 -8
2 -12 18 -12 20 0 24 4 20 18 -4 11 1 8 15 -8 19 -23 22 -30 20 -47 0 -3 6
-10 15 -15 9 -5 13 -15 10 -21 -4 -7 -4 -9 1 -5 11 11 58 -60 49 -74 -4 -7 -3
-8 4 -4 14 8 36 -30 26 -46 -4 -6 -3 -8 4 -4 14 8 63 -80 56 -102 -4 -12 -3
-13 3 -4 12 15 108 -172 97 -190 -4 -6 -3 -8 3 -5 6 4 18 -10 27 -33 19 -48
20 -53 4 -44 -7 5 -8 3 -4 -5 5 -7 11 -10 14 -6 5 5 70 -147 72 -167 0 -4 -10
-9 -22 -11 -20 -4 -20 -4 4 -6 25 -1 29 -8 54 -88 59 -195 103 -413 123 -613
12 -122 7 -600 -8 -705 -6 -44 -16 -111 -22 -150 -60 -418 -241 -855 -517
-1250 -270 -386 -646 -716 -1102 -967 -58 -32 -101 -58 -96 -58 20 0 207 106
327 185 398 264 702 561 932 912 354 540 507 1063 507 1733 0 353 -38 613
-133 915 -153 482 -398 892 -746 1244 -79 80 -251 231 -264 231 -10 0 -14 -38
-5 -54 6 -10 5 -16 -2 -16 -5 0 -10 5 -10 10 0 6 -6 10 -12 10 -7 0 -31 16
-52 35 -22 19 -64 52 -93 72 -39 27 -50 39 -42 49 7 8 7 14 -1 19 -5 3 -10 -1
-10 -9 0 -9 -5 -16 -11 -16 -5 0 -7 5 -4 10 4 6 3 9 -2 8 -16 -4 -74 33 -67
44 4 6 3 8 -3 5 -6 -4 -40 10 -75 31 -244 148 -581 287 -870 358 -37 9 -66 20
-63 23 2 4 -9 5 -26 3 -16 -2 -29 0 -29 5 0 6 -11 8 -24 6 -13 -3 -27 0 -30 6
-4 5 -13 8 -20 5 -8 -3 -17 -1 -20 4 -3 5 5 8 17 7 12 -1 22 -3 22 -5 0 -1 23
-3 50 -4 106 -6 474 -111 650 -186 167 -72 371 -177 361 -188 -3 -2 -11 0 -18
5 -18 14 -50 24 -44 14 3 -5 19 -14 36 -21 16 -7 30 -19 30 -26 0 -8 3 -13 8
-12 4 0 15 -2 24 -6 10 -4 23 -6 30 -3 8 4 5 8 -9 12 -13 4 -23 12 -23 17 0
24 80 -41 81 -65 0 -19 1 -19 7 -4 6 15 13 13 62 -19 101 -67 160 -116 159
-133 0 -11 -3 -9 -9 7 -10 24 -40 31 -36 8 6 -43 49 -54 59 -15 4 17 -11 33
-79 82 -461 337 -1019 542 -1598 587 -132 10 -209 10 -376 1z m358 -18 c-10
-2 -28 -2 -40 0 -13 2 -5 4 17 4 22 1 32 -1 23 -4z m152 -15 c0 -8 -110 1
-120 9 -3 3 23 3 58 1 34 -1 62 -6 62 -10z m65 -8 c-6 -10 -40 -8 -51 3 -4 4
7 7 25 7 19 0 30 -4 26 -10z m1145 -400 c0 -5 -2 -10 -4 -10 -3 0 -8 5 -11 10
-3 6 -1 10 4 10 6 0 11 -4 11 -10z m446 -317 c-6 -7 -45 20 -51 34 -2 7 9 3
25 -9 16 -12 28 -23 26 -25z m-11 -38 c0 -13 7 -19 18 -19 9 1 17 -2 17 -7 0
-16 -23 -10 -47 13 -27 26 -30 41 -5 36 9 -2 17 -12 17 -23z m66 -12 l34 -38
-40 35 c-22 19 -42 36 -44 38 -2 1 0 2 5 2 6 0 26 -17 45 -37z m9 -53 c-5 -3
-1 -13 9 -22 11 -9 22 -14 25 -11 3 4 6 -1 6 -11 0 -9 4 -15 9 -12 4 3 7 17 5
31 -2 21 0 24 12 14 9 -7 11 -17 5 -27 -9 -16 -3 -52 9 -52 4 0 11 -8 14 -17
4 -10 -20 9 -53 42 -34 33 -61 65 -61 73 0 7 -5 10 -12 6 -7 -4 -8 -3 -4 4 5
9 12 8 26 0 11 -7 15 -15 10 -18z m33 5 c-3 -9 -8 -14 -10 -11 -3 3 -2 9 2 15
9 16 15 13 8 -4z m134 -131 c2 -7 -8 -9 -28 -6 -22 3 -27 7 -18 13 17 11 41 7
46 -7z m23 -22 c0 -14 -48 -33 -55 -22 -4 6 3 10 14 10 11 0 23 5 26 10 8 12
15 13 15 2z m50 -112 c0 -5 -1 -12 -2 -14 -2 -2 6 -14 17 -27 l20 -24 -23 19
c-12 11 -20 21 -17 24 2 3 -3 11 -13 18 -16 13 -16 13 1 14 9 0 17 -4 17 -10z"/>
<path d="M4778 9113 c12 -2 30 -2 40 0 9 3 -1 5 -23 4 -22 0 -30 -2 -17 -4z"/>
<path d="M4469 8997 c-20 -56 -39 -111 -43 -122 -5 -12 -2 -10 7 5 19 32 78
201 75 211 -2 5 -19 -38 -39 -94z"/>
<path d="M4571 8949 c-6 -18 -9 -34 -7 -36 2 -2 9 10 15 28 6 18 9 34 7 36 -2
2 -9 -10 -15 -28z"/>
<path d="M3685 8901 c-144 -64 -255 -119 -255 -126 0 -3 18 4 41 15 72 37 52
15 -36 -39 -47 -28 -85 -54 -85 -58 0 -3 12 3 28 13 84 55 289 173 367 210
131 62 92 53 -60 -15z m-95 -56 c0 -6 -56 -35 -67 -35 -4 1 8 9 27 20 39 22
40 22 40 15z"/>
<path d="M4383 8780 c-17 -39 -29 -70 -27 -70 7 0 66 131 61 136 -2 2 -17 -28
-34 -66z"/>
<path d="M4522 8825 c-17 -37 -14 -45 4 -12 9 16 14 31 11 33 -2 2 -9 -7 -15
-21z"/>
<path d="M3363 8739 c-29 -17 -53 -33 -53 -36 0 -5 89 44 105 58 16 16 1 9
-52 -22z"/>
<path d="M3255 8674 c-51 -34 -69 -52 -29 -29 35 20 82 54 74 55 -3 0 -23 -12
-45 -26z"/>
<path d="M4305 8633 c-120 -218 -486 -702 -508 -671 -7 10 -8 10 -5 0 2 -8 8
-14 13 -15 14 -3 216 244 314 382 96 137 176 262 210 329 34 67 16 49 -24 -25z"/>
<path d="M4435 8650 c-9 -16 -13 -30 -11 -30 3 0 12 14 21 30 9 17 13 30 11
30 -3 0 -12 -13 -21 -30z"/>
<path d="M6700 8634 c0 -8 5 -12 10 -9 6 3 10 10 10 16 0 5 -4 9 -10 9 -5 0
-10 -7 -10 -16z"/>
<path d="M3205 8599 c-59 -45 -67 -57 -12 -18 42 29 65 50 55 49 -2 0 -21 -14
-43 -31z"/>
<path d="M4399 8588 c-7 -13 -19 -34 -27 -48 -14 -24 -13 -24 3 -5 20 24 48
75 41 75 -3 0 -11 -10 -17 -22z"/>
<path d="M3053 8535 c-39 -30 -98 -80 -130 -111 l-58 -56 60 52 c33 29 93 78
133 108 62 47 80 63 70 62 -2 0 -35 -25 -75 -55z"/>
<path d="M6797 8573 c-3 -5 1 -14 9 -21 11 -10 14 -10 14 0 0 7 6 2 13 -11 6
-14 18 -26 26 -29 9 -3 11 0 7 9 -4 8 -1 6 7 -3 8 -10 17 -15 20 -11 4 3 7 1
7 -5 0 -7 5 -12 10 -12 22 0 7 19 -43 53 -56 39 -63 42 -70 30z"/>
<path d="M3736 8503 c-44 -182 -66 -415 -49 -523 6 -42 8 -17 9 110 0 163 13
271 50 414 8 32 13 60 11 63 -3 2 -12 -27 -21 -64z"/>
<path d="M3065 8492 c-38 -32 -77 -67 -85 -78 -8 -10 12 5 45 33 33 28 74 63
90 77 17 14 28 25 25 26 -3 0 -36 -26 -75 -58z"/>
<path d="M4247 8359 c-59 -84 -101 -146 -93 -140 21 18 214 291 205 291 -2 0
-52 -68 -112 -151z"/>
<path d="M2877 8321 c-58 -60 -75 -81 -64 -81 1 0 33 34 70 75 38 41 66 75 64
75 -2 0 -34 -31 -70 -69z"/>
<path d="M2709 8218 c-137 -150 -284 -337 -388 -498 -62 -95 -224 -413 -235
-460 -3 -14 6 2 21 35 151 339 337 620 606 914 75 83 135 151 133 151 -3 0
-64 -64 -137 -142z"/>
<path d="M2702 8130 c-102 -113 -175 -208 -269 -348 -68 -102 -173 -282 -173
-297 0 -5 28 40 63 101 120 207 241 378 391 547 47 53 84 97 82 97 -3 0 -45
-45 -94 -100z"/>
<path d="M4080 8138 c-30 -35 -102 -111 -159 -170 -57 -60 -100 -108 -96 -108
10 0 208 210 299 318 11 12 17 22 15 22 -3 0 -29 -28 -59 -62z"/>
<path d="M7350 8085 c-7 -8 -9 -15 -4 -16 5 0 17 -2 27 -4 20 -4 22 8 3 24
-10 9 -16 8 -26 -4z"/>
<path d="M3702 7890 c0 -14 2 -19 5 -12 2 6 2 18 0 25 -3 6 -5 1 -5 -13z"/>
<path d="M3657 7792 c-55 -67 -137 -197 -137 -217 0 -5 18 22 40 60 21 39 60
96 87 129 61 75 77 96 70 96 -2 0 -30 -31 -60 -68z"/>
<path d="M3829 7802 c47 -119 102 -201 202 -300 75 -74 201 -172 261 -205 32
-17 32 -17 8 0 -272 197 -379 311 -450 479 -33 79 -50 99 -21 26z"/>
<path d="M7530 7828 c0 -4 7 -8 15 -8 8 0 15 -6 15 -12 0 -9 3 -8 9 2 6 8 8
17 5 21 -6 10 -44 7 -44 -3z"/>
<path d="M3699 7743 c-34 -38 -53 -63 -46 -63 2 0 21 20 41 45 41 50 44 61 5
18z"/>
<path d="M3740 7755 c0 -5 15 -41 34 -78 69 -137 203 -273 386 -393 95 -62
290 -170 290 -161 0 3 -44 29 -97 57 -177 95 -291 177 -409 294 -92 93 -118
126 -157 201 -25 50 -46 86 -47 80z"/>
<path d="M3621 7644 c-46 -59 -92 -193 -90 -264 1 -26 4 -19 10 25 14 92 56
202 97 248 8 9 12 17 9 17 -3 0 -15 -12 -26 -26z"/>
<path d="M7710 7591 c0 -6 4 -13 10 -16 6 -3 7 1 4 9 -7 18 -14 21 -14 7z"/>
<path d="M3495 7508 c-9 -29 -18 -87 -20 -128 l-4 -75 8 70 c5 39 16 94 25
124 9 30 14 56 12 59 -3 2 -12 -20 -21 -50z"/>
<path d="M6548 7503 c12 -2 30 -2 40 0 9 3 -1 5 -23 4 -22 0 -30 -2 -17 -4z"/>
<path d="M6699 7499 c54 -10 123 -50 144 -83 24 -36 37 -102 23 -117 -8 -9 -8
-10 1 -5 9 5 10 -4 6 -31 -9 -59 -43 -144 -55 -137 -7 4 -6 9 1 14 7 4 11 11
10 16 -2 5 3 27 9 49 16 54 15 130 -2 163 -34 66 -105 103 -193 101 l-58 -2
70 -7 c39 -3 80 -11 91 -18 31 -17 83 -79 90 -108 18 -72 -28 -203 -113 -322
-52 -73 -177 -201 -265 -270 -32 -25 -58 -47 -58 -49 0 -7 126 81 195 137 211
172 324 383 285 530 -21 79 -121 153 -201 149 -13 -1 -5 -5 20 -10z m121 -387
c0 -18 -81 -130 -132 -182 -94 -98 -125 -118 -40 -26 46 48 99 117 119 152 34
58 53 78 53 56z"/>
<path d="M6498 7493 c7 -3 16 -2 19 1 4 3 -2 6 -13 5 -11 0 -14 -3 -6 -6z"/>
<path d="M7745 7490 c3 -5 8 -10 11 -10 2 0 4 5 4 10 0 6 -5 10 -11 10 -5 0
-7 -4 -4 -10z"/>
<path d="M6548 7453 c7 -3 16 -2 19 1 4 3 -2 6 -13 5 -11 0 -14 -3 -6 -6z"/>
<path d="M2207 7373 c-44 -95 -98 -237 -126 -330 -36 -120 -22 -94 28 52 26
78 68 188 94 245 26 57 45 105 43 107 -1 2 -19 -32 -39 -74z"/>
<path d="M7795 7420 c3 -5 8 -10 11 -10 2 0 4 5 4 10 0 6 -5 10 -11 10 -5 0
-7 -4 -4 -10z"/>
<path d="M6220 7400 c-8 -5 -10 -10 -5 -10 6 0 17 5 25 10 8 5 11 10 5 10 -5
0 -17 -5 -25 -10z"/>
<path d="M6145 7360 c-3 -6 1 -7 9 -4 18 7 21 14 7 14 -6 0 -13 -4 -16 -10z"/>
<path d="M3517 7283 c-22 -178 -76 -276 -254 -465 -143 -151 -183 -207 -183
-256 0 -61 26 -91 125 -145 33 -17 79 -50 102 -73 55 -52 57 -88 10 -141 -82
-93 -86 -124 -27 -183 51 -51 125 -98 215 -138 l70 -31 -45 -4 c-26 -2 -11 -4
35 -4 l80 -1 -55 17 c-151 48 -330 175 -330 234 0 18 16 45 50 82 42 47 50 61
50 95 0 33 -7 47 -38 78 -21 20 -71 55 -111 77 -117 63 -143 111 -104 193 9
19 68 89 130 155 136 144 196 222 234 302 30 64 63 208 57 247 -2 13 -7 -5
-11 -39z"/>
<path d="M3461 7280 c-2 -38 -39 -167 -60 -209 -33 -64 -112 -162 -238 -293
-133 -139 -151 -172 -132 -241 14 -52 49 -89 150 -158 91 -63 119 -91 119
-119 0 -9 -20 -37 -45 -63 -76 -79 -73 -121 13 -207 51 -50 102 -89 102 -76 0
2 -22 21 -49 40 -27 20 -64 58 -81 84 -40 60 -35 89 25 153 25 27 45 57 45 68
0 30 -47 79 -120 126 -115 74 -150 118 -152 187 -1 58 26 100 137 208 107 105
207 231 240 302 30 67 58 172 52 201 -4 20 -4 20 -6 -3z"/>
<path d="M4335 7273 c6 -5 73 -46 150 -90 197 -113 223 -127 200 -108 -11 9
-92 57 -180 107 -186 106 -183 104 -170 91z"/>
<path d="M5984 7264 c-18 -14 -18 -15 4 -4 12 6 22 13 22 15 0 8 -5 6 -26 -11z"/>
<path d="M2066 7215 c-9 -26 -7 -32 5 -12 6 10 9 21 6 23 -2 3 -7 -2 -11 -11z"/>
<path d="M2041 7149 c-6 -18 -9 -34 -7 -36 2 -2 9 10 15 28 6 18 9 34 7 36 -2
2 -9 -10 -15 -28z"/>
<path d="M4467 7109 c7 -7 15 -10 18 -7 3 3 -2 9 -12 12 -14 6 -15 5 -6 -5z"/>
<path d="M4501 7096 c10 -9 69 -36 69 -32 0 6 -55 36 -66 36 -4 0 -5 -2 -3 -4z"/>
<path d="M5889 7083 c-13 -16 -12 -17 4 -4 9 7 17 15 17 17 0 8 -8 3 -21 -13z"/>
<path d="M2001 7029 c-7 -22 -11 -43 -8 -45 2 -2 9 14 16 37 7 22 11 43 8 45
-2 2 -9 -14 -16 -37z"/>
<path d="M7950 7061 c0 -6 4 -13 10 -16 6 -3 7 1 4 9 -7 18 -14 21 -14 7z"/>
<path d="M4705 6991 c72 -38 163 -89 203 -115 40 -25 72 -44 72 -41 0 16 -369
225 -396 225 -5 0 50 -31 121 -69z"/>
<path d="M4710 7057 c0 -4 21 -19 103 -71 15 -10 27 -16 27 -12 0 3 -24 20
-52 39 -74 46 -78 49 -78 44z"/>
<path d="M3800 6980 c0 -20 9 -53 19 -73 22 -44 13 -54 -40 -43 -43 8 -27 -12
30 -37 62 -27 212 -27 291 1 l55 20 -81 -5 c-51 -4 -94 -1 -119 7 -50 16 -114
75 -136 125 l-19 40 0 -35z m40 -70 c6 -11 8 -20 6 -20 -3 0 -10 9 -16 20 -6
11 -8 20 -6 20 3 0 10 -9 16 -20z m30 -30 c0 -5 -5 -10 -11 -10 -5 0 -7 5 -4
10 3 6 8 10 11 10 2 0 4 -4 4 -10z m-36 -39 c4 -5 -3 -7 -14 -4 -23 6 -26 13
-6 13 8 0 17 -4 20 -9z m191 -16 c6 -2 -11 -4 -37 -4 -27 -1 -48 3 -48 7 0 7
62 5 85 -3z m-112 -2 c-7 -2 -21 -2 -30 0 -10 3 -4 5 12 5 17 0 24 -2 18 -5z"/>
<path d="M1976 6944 c-4 -14 -5 -28 -3 -31 3 -2 8 8 11 23 4 14 5 28 3 31 -3
2 -8 -8 -11 -23z"/>
<path d="M4850 6967 c0 -3 41 -37 91 -77 50 -39 88 -74 85 -77 -3 -3 -11 -2
-19 3 -15 10 6 -8 78 -69 44 -37 47 -38 28 -12 -35 49 -126 132 -245 224 -10
7 -18 11 -18 8z m201 -174 c13 -16 12 -17 -3 -4 -17 13 -22 21 -14 21 2 0 10
-8 17 -17z"/>
<path d="M2037 6888 c-9 -37 -17 -73 -16 -80 0 -7 9 19 20 57 10 39 17 74 16
80 -2 5 -11 -21 -20 -57z"/>
<path d="M1961 6884 c0 -11 3 -14 6 -6 3 7 2 16 -1 19 -3 4 -6 -2 -5 -13z"/>
<path d="M7978 6863 c6 -2 18 -2 25 0 6 3 1 5 -13 5 -14 0 -19 -2 -12 -5z"/>
<path d="M1945 6830 c-4 -17 -5 -34 -2 -36 2 -3 7 10 11 27 8 42 0 50 -9 9z"/>
<path d="M2012 6770 c0 -14 2 -19 5 -12 2 6 2 18 0 25 -3 6 -5 1 -5 -13z"/>
<path d="M1932 6760 c0 -14 2 -19 5 -12 2 6 2 18 0 25 -3 6 -5 1 -5 -13z"/>
<path d="M8008 6753 c7 -3 16 -2 19 1 4 3 -2 6 -13 5 -11 0 -14 -3 -6 -6z"/>
<path d="M2001 6724 c0 -11 3 -14 6 -6 3 7 2 16 -1 19 -3 4 -6 -2 -5 -13z"/>
<path d="M1921 6714 c0 -11 3 -14 6 -6 3 7 2 16 -1 19 -3 4 -6 -2 -5 -13z"/>
<path d="M8029 6729 c-6 -32 -5 -39 6 -39 21 0 26 16 10 30 -8 7 -15 11 -16 9z"/>
<path d="M1992 6680 c0 -14 2 -19 5 -12 2 6 2 18 0 25 -3 6 -5 1 -5 -13z"/>
<path d="M1912 6660 c0 -14 2 -19 5 -12 2 6 2 18 0 25 -3 6 -5 1 -5 -13z"/>
<path d="M8029 6667 c7 -7 14 -8 21 -1 6 6 2 10 -12 11 -16 2 -18 -1 -9 -10z"/>
<path d="M1982 6625 c0 -16 2 -22 5 -12 2 9 2 23 0 30 -3 6 -5 -1 -5 -18z"/>
<path d="M1902 6610 c0 -14 2 -19 5 -12 2 6 2 18 0 25 -3 6 -5 1 -5 -13z"/>
<path d="M5214 6588 l-19 -23 23 19 c21 18 27 26 19 26 -2 0 -12 -10 -23 -22z"/>
<path d="M1972 6565 c0 -16 2 -22 5 -12 2 9 2 23 0 30 -3 6 -5 -1 -5 -18z"/>
<path d="M1892 6540 c0 -19 2 -27 5 -17 2 9 2 25 0 35 -3 9 -5 1 -5 -18z"/>
<path d="M8060 6550 c-13 -8 -12 -10 3 -10 9 0 17 5 17 10 0 12 -1 12 -20 0z"/>
<path d="M5154 6518 l-29 -33 33 29 c30 28 37 36 29 36 -2 0 -16 -15 -33 -32z"/>
<path d="M1962 6495 c0 -16 2 -22 5 -12 2 9 2 23 0 30 -3 6 -5 -1 -5 -18z"/>
<path d="M1882 6470 c0 -19 2 -27 5 -17 2 9 2 25 0 35 -3 9 -5 1 -5 -18z"/>
<path d="M5109 6463 c-13 -16 -12 -17 4 -4 9 7 17 15 17 17 0 8 -8 3 -21 -13z"/>
<path d="M1952 6435 c0 -16 2 -22 5 -12 2 9 2 23 0 30 -3 6 -5 -1 -5 -18z"/>
<path d="M5224 6418 l-19 -23 23 19 c21 18 27 26 19 26 -2 0 -12 -10 -23 -22z"/>
<path d="M1873 6390 c0 -25 2 -35 4 -22 2 12 2 32 0 45 -2 12 -4 2 -4 -23z"/>
<path d="M5022 6353 c-67 -89 -126 -177 -166 -245 -47 -81 -22 -53 32 36 28
46 85 129 127 185 41 56 73 101 70 101 -2 0 -31 -35 -63 -77z"/>
<path d="M1943 6355 c0 -22 2 -30 4 -17 2 12 2 30 0 40 -3 9 -5 -1 -4 -23z"/>
<path d="M5179 6363 c-13 -16 -12 -17 4 -4 16 13 21 21 13 21 -2 0 -10 -8 -17
-17z"/>
<path d="M1863 6270 c0 -30 2 -43 4 -27 2 15 2 39 0 55 -2 15 -4 2 -4 -28z"/>
<path d="M1933 6240 c0 -36 2 -50 4 -32 2 17 2 47 0 65 -2 17 -4 3 -4 -33z"/>
<path d="M5119 6283 c-13 -16 -12 -17 4 -4 16 13 21 21 13 21 -2 0 -10 -8 -17
-17z"/>
<path d="M5088 6243 c-23 -27 -80 -113 -74 -113 2 0 25 29 50 65 44 64 54 82
24 48z"/>
<path d="M1853 6050 c0 -30 2 -43 4 -27 2 15 2 39 0 55 -2 15 -4 2 -4 -28z"/>
<path d="M4970 6070 c-6 -11 -8 -20 -6 -20 3 0 10 9 16 20 6 11 8 20 6 20 -3
0 -10 -9 -16 -20z"/>
<path d="M1923 6025 c0 -22 2 -30 4 -17 2 12 2 30 0 40 -3 9 -5 -1 -4 -23z"/>
<path d="M4778 5965 c-22 -47 -39 -87 -37 -89 2 -2 23 36 46 85 23 49 39 89
37 89 -3 0 -23 -38 -46 -85z"/>
<path d="M4894 5929 c-25 -50 -44 -93 -42 -95 2 -2 25 39 51 91 26 52 45 95
42 95 -3 0 -25 -41 -51 -91z"/>
<path d="M6165 5967 c-83 -45 -195 -116 -195 -125 0 -2 10 2 23 10 130 83 148
92 163 76 13 -13 9 -19 -41 -51 -30 -21 -55 -40 -55 -43 0 -6 2 -5 98 58 173
112 215 74 157 -143 -84 -319 -125 -455 -141 -464 -62 -38 -404 -265 -404
-269 0 -3 71 41 158 98 86 57 183 118 214 135 55 31 59 36 74 89 8 32 18 64
21 72 2 8 7 24 9 35 2 11 12 46 23 79 14 45 19 54 24 37 3 -11 1 -21 -4 -21
-5 0 -9 -4 -9 -10 0 -19 28 -10 33 10 3 11 0 20 -6 20 -8 0 -8 3 1 8 7 5 14
22 15 39 1 17 5 29 9 27 3 -2 9 2 12 8 10 24 -6 -57 -32 -162 -26 -99 -28
-105 -54 -108 -16 -2 -28 -8 -28 -13 0 -5 10 -7 23 -5 12 1 30 -2 39 -8 13 -7
21 -6 35 5 27 24 334 202 339 197 2 -3 -61 -48 -141 -101 -97 -65 -150 -95
-162 -91 -14 5 -15 4 -4 -4 11 -8 10 -12 -8 -21 -12 -7 -27 -9 -34 -5 -6 4 -9
4 -5 -1 9 -9 -9 -35 -24 -35 -5 0 -6 6 -3 13 4 6 0 4 -8 -5 -10 -13 -16 -15
-25 -6 -9 9 -12 9 -12 1 0 -6 4 -13 10 -15 10 -3 -18 -110 -126 -471 -36 -120
-64 -220 -62 -223 5 -4 76 226 154 495 30 101 55 185 56 186 2 1 53 35 113 75
181 120 485 331 485 337 0 2 -15 -4 -32 -15 -18 -11 -106 -61 -196 -111 -89
-50 -203 -116 -253 -146 -51 -31 -93 -55 -94 -53 -1 2 15 71 36 154 85 336 89
453 18 489 -49 26 -97 18 -184 -28z m138 26 c-7 -2 -19 -2 -25 0 -7 3 -2 5 12
5 14 0 19 -2 13 -5z m-50 -10 c-20 -7 -15 -23 5 -17 9 3 -5 -7 -32 -21 -42
-23 -50 -25 -63 -12 -13 12 -9 17 29 36 24 11 50 21 58 20 10 0 11 -2 3 -6z
m60 -10 c-7 -2 -19 -2 -25 0 -7 3 -2 5 12 5 14 0 19 -2 13 -5z m55 -18 c-3 -3
-9 2 -12 12 -6 14 -5 15 5 6 7 -7 10 -15 7 -18z m12 -26 c0 -5 -4 -7 -10 -4
-5 3 -10 1 -10 -6 0 -7 -3 -10 -6 -6 -8 7 4 27 17 27 5 0 9 -5 9 -11z m-30
-126 c-11 -17 -11 -17 -6 0 3 10 7 28 7 40 2 22 2 22 6 0 2 -12 -1 -30 -7 -40z
m27 -25 c-3 -7 -5 -2 -5 12 0 14 2 19 5 13 2 -7 2 -19 0 -25z m-12 -18 c3 -6
-1 -7 -9 -4 -9 3 -16 1 -16 -5 0 -6 7 -11 15 -11 8 0 15 -5 15 -11 0 -6 -9 -8
-20 -4 -15 5 -20 2 -21 -12 0 -10 -3 -13 -5 -7 -6 15 13 64 25 64 5 0 13 -4
16 -10z m-8 -92 c-3 -8 -6 -5 -6 6 -1 11 2 17 5 13 3 -3 4 -12 1 -19z m-17 3
c0 -6 -4 -12 -8 -15 -5 -3 -9 1 -9 9 0 8 4 15 9 15 4 0 8 -4 8 -9z m360 -106
c-7 -8 -18 -15 -24 -15 -6 0 -2 7 8 15 25 19 32 19 16 0z"/>
<path d="M6210 5959 c0 -5 5 -7 10 -4 6 3 10 8 10 11 0 2 -4 4 -10 4 -5 0 -10
-5 -10 -11z"/>
<path d="M1933 5895 c0 -38 2 -53 4 -32 2 20 2 52 0 70 -2 17 -4 1 -4 -38z"/>
<path d="M1861 5914 c0 -11 3 -14 6 -6 3 7 2 16 -1 19 -3 4 -6 -2 -5 -13z"/>
<path d="M3301 5873 c-27 -23 -40 -70 -30 -109 5 -17 31 -56 59 -88 74 -84 74
-85 11 -256 -22 -60 -27 -144 -11 -200 16 -57 65 -126 117 -164 98 -71 215
-81 508 -45 94 11 195 19 225 17 83 -6 194 -63 270 -140 62 -62 150 -186 186
-260 9 -20 22 -34 27 -31 6 3 7 1 3 -5 -4 -6 6 -42 22 -79 17 -38 33 -78 37
-91 4 -13 9 -21 12 -18 3 2 -9 49 -27 103 -90 277 -179 396 -380 513 l-95 54
45 12 c25 7 138 36 252 65 114 29 205 55 203 57 -5 5 -257 -45 -560 -113 -193
-43 -525 -59 -624 -29 -84 24 -161 105 -182 189 l-7 30 -1 -28 c-2 -57 78
-154 157 -190 44 -21 61 -22 272 -20 216 1 304 11 455 49 18 4 18 4 3 -6 -10
-6 -18 -14 -18 -18 0 -5 29 -25 65 -46 36 -21 65 -39 65 -41 0 -2 -24 6 -52
19 -29 13 -75 28 -103 35 -27 7 -59 14 -70 17 -13 3 -16 2 -8 -3 21 -15 -373
-57 -475 -51 -189 11 -309 115 -319 278 -4 67 5 110 48 225 27 74 22 101 -30
158 -59 65 -71 88 -71 132 0 43 12 65 45 83 11 6 15 12 9 12 -7 0 -21 -8 -33
-17z m1180 -980 c38 -36 68 -68 65 -70 -2 -2 7 -15 21 -29 22 -22 93 -161 93
-181 0 -8 -70 115 -73 130 -1 5 -14 22 -29 39 -16 17 -28 34 -28 38 0 8 -82
90 -140 140 -24 20 -24 21 -2 10 13 -6 54 -41 93 -77z"/>
<path d="M1863 5840 c0 -25 2 -35 4 -22 2 12 2 32 0 45 -2 12 -4 2 -4 -23z"/>
<path d="M3332 5844 c-12 -8 -22 -23 -21 -32 0 -13 3 -11 9 5 10 25 30 31 110
36 l55 3 -65 2 c-46 1 -72 -3 -88 -14z"/>
<path d="M5978 5780 c-38 -27 -68 -52 -68 -55 0 -2 32 18 70 46 61 45 78 59
68 59 -2 0 -33 -23 -70 -50z"/>
<path d="M4832 5795 c-7 -14 -12 -31 -12 -38 1 -7 7 3 16 22 17 39 13 54 -4
16z"/>
<path d="M5899 5799 l-24 -20 28 17 c15 9 27 18 27 20 0 8 -8 4 -31 -17z"/>
<path d="M1943 5775 c0 -22 2 -30 4 -17 2 12 2 30 0 40 -3 9 -5 -1 -4 -23z"/>
<path d="M4711 5784 c0 -11 3 -14 6 -6 3 7 2 16 -1 19 -3 4 -6 -2 -5 -13z"/>
<path d="M3311 5763 c-1 -13 18 -39 49 -69 28 -27 55 -62 59 -79 8 -25 9 -26
10 -7 1 15 -17 42 -49 76 -27 28 -54 63 -59 77 -9 23 -10 23 -10 2z"/>
<path d="M1873 5735 c0 -22 2 -30 4 -17 2 12 2 30 0 40 -3 9 -5 -1 -4 -23z"/>
<path d="M4704 5660 c0 -58 1 -81 3 -52 2 28 2 76 0 105 -2 28 -3 5 -3 -53z"/>
<path d="M4811 5724 c0 -11 3 -14 6 -6 3 7 2 16 -1 19 -3 4 -6 -2 -5 -13z"/>
<path d="M1953 5685 c0 -22 2 -30 4 -17 2 12 2 30 0 40 -3 9 -5 -1 -4 -23z"/>
<path d="M5865 5694 l-30 -26 33 22 c17 12 32 23 32 26 0 7 -4 5 -35 -22z"/>
<path d="M4802 5675 c0 -16 2 -22 5 -12 2 9 2 23 0 30 -3 6 -5 -1 -5 -18z"/>
<path d="M1882 5660 c0 -19 2 -27 5 -17 2 9 2 25 0 35 -3 9 -5 1 -5 -18z"/>
<path d="M1962 5615 c0 -16 2 -22 5 -12 2 9 2 23 0 30 -3 6 -5 -1 -5 -18z"/>
<path d="M4792 5610 c0 -14 2 -19 5 -12 2 6 2 18 0 25 -3 6 -5 1 -5 -13z"/>
<path d="M5759 5613 c-13 -16 -12 -17 4 -4 16 13 21 21 13 21 -2 0 -10 -8 -17
-17z"/>
<path d="M1892 5585 c0 -16 2 -22 5 -12 2 9 2 23 0 30 -3 6 -5 -1 -5 -18z"/>
<path d="M3421 5564 c0 -11 -12 -54 -26 -94 -14 -40 -25 -78 -24 -84 0 -6 14
27 30 74 16 47 28 94 26 105 -4 19 -4 19 -6 -1z"/>
<path d="M1972 5550 c0 -14 2 -19 5 -12 2 6 2 18 0 25 -3 6 -5 1 -5 -13z"/>
<path d="M4801 5557 c-2 -30 37 -94 76 -126 21 -17 42 -31 47 -31 5 0 -10 13
-32 30 -40 29 -67 68 -83 120 -5 17 -8 19 -8 7z"/>
<path d="M5514 5544 c-18 -14 -18 -15 4 -4 12 6 22 13 22 15 0 8 -5 6 -26 -11z"/>
<path d="M4711 5537 c-1 -20 22 -68 53 -110 20 -27 116 -97 133 -97 4 0 -9 11
-30 24 -75 46 -127 108 -148 176 -5 17 -8 19 -8 7z"/>
<path d="M1902 5515 c0 -16 2 -22 5 -12 2 9 2 23 0 30 -3 6 -5 -1 -5 -18z"/>
<path d="M7992 5425 c-135 -710 -575 -1396 -1182 -1845 -113 -83 -287 -197
-380 -247 -165 -91 -451 -206 -653 -264 -86 -24 -113 -36 -100 -41 12 -6 9 -7
-12 -4 -16 2 -66 -4 -110 -14 -44 -10 -106 -23 -138 -30 -55 -11 -59 -14 -116
-88 -80 -106 -255 -280 -354 -353 -89 -67 -109 -83 -62 -54 111 68 364 309
435 414 37 54 37 54 158 72 45 7 82 16 82 20 0 5 6 6 14 3 35 -13 544 135 626
183 15 9 17 12 5 7 -144 -50 -368 -123 -395 -128 -19 -3 15 11 75 32 287 100
542 222 742 354 460 304 791 652 1048 1103 151 266 267 573 325 864 12 57 20
110 18 119 -2 8 -13 -38 -26 -103z m-2242 -2385 c-34 -11 -60 -11 -35 0 11 5
29 8 40 8 16 0 15 -2 -5 -8z m-103 -26 c-3 -3 -12 -4 -19 -1 -8 3 -5 6 6 6 11
1 17 -2 13 -5z m-40 -10 c-3 -3 -12 -4 -19 -1 -8 3 -5 6 6 6 11 1 17 -2 13 -5z"/>
<path d="M5470 5520 c-9 -6 -10 -10 -3 -10 6 0 15 5 18 10 8 12 4 12 -15 0z"/>
<path d="M1982 5500 c0 -14 2 -19 5 -12 2 6 2 18 0 25 -3 6 -5 1 -5 -13z"/>
<path d="M5430 5500 c-9 -6 -10 -10 -3 -10 6 0 15 5 18 10 8 12 4 12 -15 0z"/>
<path d="M6270 5506 c0 -2 7 -6 15 -10 8 -3 15 -1 15 4 0 6 -7 10 -15 10 -8 0
-15 -2 -15 -4z"/>
<path d="M5538 5474 c-38 -20 -36 -28 2 -9 17 9 30 18 30 20 0 7 -1 6 -32 -11z"/>
<path d="M6270 5465 c0 -13 5 -27 12 -31 7 -5 9 -2 5 8 -3 9 -1 20 4 25 7 7 5
12 -5 16 -12 5 -16 0 -16 -18z"/>
<path d="M1912 5460 c0 -14 2 -19 5 -12 2 6 2 18 0 25 -3 6 -5 1 -5 -13z"/>
<path d="M5325 5454 c-27 -13 -39 -21 -25 -18 29 7 100 43 85 43 -5 0 -32 -12
-60 -25z"/>
<path d="M1992 5450 c0 -14 2 -19 5 -12 2 6 2 18 0 25 -3 6 -5 1 -5 -13z"/>
<path d="M5470 5435 c-14 -8 -20 -14 -14 -15 5 0 19 7 30 15 24 18 16 19 -16
0z"/>
<path d="M1922 5410 c0 -14 2 -19 5 -12 2 6 2 18 0 25 -3 6 -5 1 -5 -13z"/>
<path d="M2004 5389 c5 -45 47 -201 52 -196 2 2 -10 55 -27 118 -16 63 -28 98
-25 78z"/>
<path d="M5390 5400 c-19 -11 -30 -19 -25 -19 6 0 26 8 45 19 19 11 31 19 25
19 -5 0 -26 -8 -45 -19z"/>
<path d="M6271 5413 c-1 -7 -9 -13 -18 -13 -13 0 -14 -3 -5 -12 15 -15 37 3
29 24 -4 9 -6 10 -6 1z"/>
<path d="M5188 5403 c7 -3 16 -2 19 1 4 3 -2 6 -13 5 -11 0 -14 -3 -6 -6z"/>
<path d="M4950 5390 c8 -5 28 -10 44 -10 39 0 30 6 -19 13 -27 4 -35 3 -25 -3z"/>
<path d="M5090 5390 l-45 -7 40 -1 c22 0 51 4 65 8 32 10 5 10 -60 0z"/>
<path d="M1931 5364 c0 -11 3 -14 6 -6 3 7 2 16 -1 19 -3 4 -6 -2 -5 -13z"/>
<path d="M5320 5370 c-8 -5 -10 -10 -5 -10 6 0 17 5 25 10 8 5 11 10 5 10 -5
0 -17 -5 -25 -10z"/>
<path d="M3361 5355 c-1 -11 -4 -31 -7 -45 -5 -22 -4 -23 6 -7 6 10 9 30 7 45
-3 18 -5 20 -6 7z"/>
<path d="M1942 5325 c0 -11 3 -29 8 -40 11 -25 11 1 0 35 -6 20 -8 21 -8 5z"/>
<path d="M6230 5330 c-8 -5 -12 -11 -10 -14 3 -2 14 2 24 10 22 15 10 19 -14
4z"/>
<path d="M4920 5320 c8 -5 24 -10 34 -10 26 0 18 6 -19 14 -22 5 -26 4 -15 -4z"/>
<path d="M5188 5323 c7 -3 16 -2 19 1 4 3 -2 6 -13 5 -11 0 -14 -3 -6 -6z"/>
<path d="M5055 5310 l-80 -6 75 -1 c41 -1 86 3 100 7 29 9 23 9 -95 0z"/>
<path d="M1961 5244 c0 -11 3 -14 6 -6 3 7 2 16 -1 19 -3 4 -6 -2 -5 -13z"/>
<path d="M1971 5204 c0 -11 3 -14 6 -6 3 7 2 16 -1 19 -3 4 -6 -2 -5 -13z"/>
<path d="M6070 5144 c-109 -81 -109 -87 0 -13 47 31 91 70 79 69 -2 -1 -38
-26 -79 -56z"/>
<path d="M6132 5113 c-16 -43 -51 -148 -77 -233 -26 -85 -74 -238 -107 -338
-33 -101 -58 -186 -56 -188 2 -2 34 88 70 199 172 527 206 632 203 635 -1 2
-16 -32 -33 -75z"/>
<path d="M1982 5170 c0 -8 8 -37 18 -65 10 -27 18 -43 18 -35 0 8 -8 38 -18
65 -10 28 -18 43 -18 35z"/>
<path d="M2061 5175 c-1 -15 50 -167 55 -162 2 2 -9 41 -25 88 -16 46 -30 80
-30 74z"/>
<path d="M6156 5105 c-3 -8 -1 -15 4 -15 6 0 10 7 10 15 0 8 -2 15 -4 15 -2 0
-6 -7 -10 -15z"/>
<path d="M5919 5039 c-23 -19 -23 -20 -2 -10 12 6 25 16 28 21 10 16 -1 12
-26 -11z"/>
<path d="M2020 5047 c0 -12 82 -218 86 -215 2 2 -15 51 -37 109 -38 97 -49
121 -49 106z"/>
<path d="M5836 4985 c-27 -18 -54 -39 -60 -46 -6 -6 17 7 52 30 34 23 62 44
62 46 0 7 -1 7 -54 -30z"/>
<path d="M2120 4996 c0 -14 83 -211 93 -221 12 -12 12 -11 -43 120 -42 99 -50
115 -50 101z"/>
<path d="M5679 4953 c-13 -16 -12 -17 4 -4 9 7 17 15 17 17 0 8 -8 3 -21 -13z"/>
<path d="M6128 4953 c7 -3 16 -2 19 1 4 3 -2 6 -13 5 -11 0 -14 -3 -6 -6z"/>
<path d="M5725 4904 l-30 -26 33 22 c17 12 32 23 32 26 0 7 -4 5 -35 -22z"/>
<path d="M5669 4863 c-13 -16 -12 -17 4 -4 16 13 21 21 13 21 -2 0 -10 -8 -17
-17z"/>
<path d="M5539 4853 c-13 -16 -12 -17 4 -4 9 7 17 15 17 17 0 8 -8 3 -21 -13z"/>
<path d="M5499 4823 c-13 -16 -12 -17 4 -4 9 7 17 15 17 17 0 8 -8 3 -21 -13z"/>
<path d="M2110 4818 c0 -16 102 -223 156 -315 365 -624 908 -1092 1567 -1349
78 -30 96 -41 91 -53 -18 -42 -56 -182 -65 -245 -6 -39 -9 -113 -7 -163 4 -78
10 -103 37 -157 38 -77 98 -134 186 -176 66 -31 208 -61 284 -59 33 1 22 4
-38 10 -144 15 -241 48 -318 105 -22 17 -31 30 -28 45 3 17 0 20 -15 16 -20
-5 -45 15 -33 26 3 4 1 7 -7 7 -8 0 -9 4 -3 13 5 6 6 23 2 37 -7 24 -7 24 -9
-5 -2 -30 -2 -30 -21 12 -43 94 -31 306 27 477 14 43 20 74 14 81 -5 6 -32 19
-59 29 -28 10 -51 23 -51 28 0 7 4 7 13 1 13 -10 87 -33 106 -33 6 0 31 43 55
95 58 125 128 238 225 369 44 58 75 104 70 101 -15 -10 -122 -154 -178 -240
-46 -69 -149 -263 -163 -305 -4 -12 -12 -11 -54 5 -83 31 -254 115 -364 178
-551 316 -950 731 -1252 1302 -69 131 -77 133 -12 2 80 -158 194 -337 328
-516 14 -19 23 -39 19 -44 -3 -6 -1 -7 4 -4 6 4 23 -10 39 -31 28 -36 197
-216 242 -256 17 -15 19 -22 10 -29 -9 -6 -8 -7 4 -4 9 3 22 -1 29 -9 7 -9 60
-54 118 -101 58 -48 109 -89 112 -92 4 -3 4 -14 0 -24 -6 -16 -8 -16 -26 -2
-20 15 -20 15 0 9 16 -5 17 -4 5 4 -8 6 -18 8 -22 5 -11 -6 -200 146 -290 234
-38 36 -65 70 -61 76 3 5 1 7 -4 4 -19 -12 -208 202 -339 383 -75 103 -176
271 -250 418 -40 81 -74 144 -74 140z m1122 -1291 c15 -11 24 -25 21 -30 -3
-6 -1 -7 5 -3 6 3 53 -21 104 -55 108 -71 118 -79 61 -50 -49 24 -57 26 -46 9
6 -12 -16 1 -72 39 -11 7 -19 16 -17 18 1 3 2 11 1 18 0 6 -3 5 -7 -5 -6 -14
-14 -11 -60 19 -38 26 -50 39 -42 48 5 6 6 16 2 20 -9 11 16 -4 50 -28z m213
-167 c3 -6 -1 -7 -9 -4 -18 7 -21 14 -7 14 6 0 13 -4 16 -10z m140 -58 c-3 -3
-11 0 -18 7 -9 10 -8 11 6 5 10 -3 15 -9 12 -12z m-30 -2 c3 -6 -1 -7 -9 -4
-18 7 -21 14 -7 14 6 0 13 -4 16 -10z m59 -21 c-6 -10 26 -20 39 -13 9 5 9 4
1 -5 -9 -10 -20 -8 -50 7 -35 18 -36 20 -12 19 14 -1 24 -5 22 -8z m176 -73
c0 -3 -4 -8 -10 -11 -5 -3 -10 -1 -10 4 0 6 5 11 10 11 6 0 10 -2 10 -4z"/>
<path d="M3190 3529 c0 -6 9 -13 20 -16 11 -3 17 -9 14 -14 -3 -5 0 -9 5 -9
17 0 13 14 -9 33 -24 20 -30 21 -30 6z"/>
<path d="M3311 3453 c14 -24 49 -47 49 -34 0 5 -14 20 -31 32 -29 20 -30 20
-18 2z"/>
<path d="M5419 4763 c-13 -16 -12 -17 4 -4 16 13 21 21 13 21 -2 0 -10 -8 -17
-17z"/>
<path d="M5519 4753 c-13 -16 -12 -17 4 -4 9 7 17 15 17 17 0 8 -8 3 -21 -13z"/>
<path d="M5379 4733 c-13 -16 -12 -17 4 -4 9 7 17 15 17 17 0 8 -8 3 -21 -13z"/>
<path d="M5479 4723 c-13 -16 -12 -17 4 -4 16 13 21 21 13 21 -2 0 -10 -8 -17
-17z"/>
<path d="M5230 4619 c-148 -119 -414 -355 -485 -430 -27 -29 -12 -17 35 26
133 125 329 296 460 401 105 84 128 105 118 104 -2 0 -59 -46 -128 -101z"/>
<path d="M5368 4640 c-49 -39 -88 -72 -88 -75 0 -3 41 27 90 66 78 62 98 80
88 79 -2 0 -42 -32 -90 -70z"/>
<path d="M6050 4567 c0 -3 -23 -79 -51 -168 -27 -89 -48 -163 -46 -165 2 -2
27 71 56 162 29 91 50 169 47 172 -3 3 -6 3 -6 -1z"/>
<path d="M5244 4538 l-19 -23 23 19 c12 11 22 21 22 23 0 8 -8 2 -26 -19z"/>
<path d="M5080 4402 c-74 -66 -144 -129 -155 -142 -11 -13 36 26 104 86 167
146 197 173 191 174 -3 0 -66 -53 -140 -118z"/>
<path d="M5876 4325 c-3 -9 -6 -22 -5 -28 0 -7 5 -1 10 12 5 13 8 26 5 28 -2
2 -6 -3 -10 -12z"/>
<path d="M5831 4189 c-17 -51 -29 -94 -27 -96 2 -2 18 37 35 88 17 51 29 94
27 96 -2 2 -18 -37 -35 -88z"/>
<path d="M4695 4038 l-180 -183 183 180 c169 167 187 185 179 185 -1 0 -83
-82 -182 -182z"/>
<path d="M5926 4175 c-3 -9 -6 -22 -5 -28 0 -7 5 -1 10 12 5 13 8 26 5 28 -2
2 -6 -3 -10 -12z"/>
<path d="M5901 4099 c-6 -18 -11 -37 -10 -43 0 -6 7 7 15 28 8 22 12 41 10 43
-2 2 -9 -10 -15 -28z"/>
<path d="M4575 4028 l-50 -53 53 50 c48 46 57 55 49 55 -1 0 -25 -24 -52 -52z"/>
<path d="M5781 4049 c-6 -18 -9 -34 -7 -36 2 -2 9 10 15 28 6 18 9 34 7 36 -2
2 -9 -10 -15 -28z"/>
<path d="M5866 3995 c-9 -26 -7 -32 5 -12 6 10 9 21 6 23 -2 3 -7 -2 -11 -11z"/>
<path d="M5746 3955 c-9 -26 -7 -32 5 -12 6 10 9 21 6 23 -2 3 -7 -2 -11 -11z"/>
<path d="M4420 3863 l-55 -58 58 55 c53 50 62 60 54 60 -1 0 -27 -26 -57 -57z"/>
<path d="M4460 3793 l-55 -58 58 55 c31 30 57 56 57 57 0 8 -10 -1 -60 -54z"/>
<path d="M5696 3825 c-9 -26 -7 -32 5 -12 6 10 9 21 6 23 -2 3 -7 -2 -11 -11z"/>
<path d="M4329 3763 l-34 -38 38 34 c20 19 37 36 37 38 0 8 -8 0 -41 -34z"/>
<path d="M5657 3728 c-9 -23 -15 -43 -13 -45 2 -2 11 15 20 38 9 23 15 43 13
45 -2 2 -11 -15 -20 -38z"/>
<path d="M4374 3698 l-29 -33 33 29 c17 17 32 31 32 33 0 8 -8 1 -36 -29z"/>
<path d="M5756 3705 c-9 -26 -7 -32 5 -12 6 10 9 21 6 23 -2 3 -7 -2 -11 -11z"/>
<path d="M5617 3635 c-24 -50 -20 -58 4 -12 11 22 19 41 17 43 -3 2 -12 -12
-21 -31z"/>
<path d="M4324 3638 l-19 -23 23 19 c12 11 22 21 22 23 0 8 -8 2 -26 -19z"/>
<path d="M5726 3635 c-9 -26 -7 -32 5 -12 6 10 9 21 6 23 -2 3 -7 -2 -11 -11z"/>
<path d="M4270 3570 c-17 -22 -29 -40 -27 -40 3 0 20 18 37 40 17 22 29 40 27
40 -3 0 -20 -18 -37 -40z"/>
<path d="M5702 3575 c-17 -37 -14 -45 4 -12 9 16 14 31 11 33 -2 2 -9 -7 -15
-21z"/>
<path d="M5543 3472 c-57 -119 -166 -317 -221 -402 -139 -210 -258 -344 -442
-493 -30 -24 -27 -23 15 4 122 80 339 326 463 526 38 62 72 110 75 107 3 -3 4
1 4 8 -1 7 36 89 82 181 46 92 82 170 79 172 -2 3 -27 -44 -55 -103z"/>
<path d="M5601 3369 c-46 -88 -117 -213 -157 -277 -41 -64 -61 -102 -46 -84
55 63 303 505 290 517 -2 2 -41 -69 -87 -156z"/>
<path d="M4183 3448 c-15 -18 -35 -58 -29 -58 2 0 13 16 25 35 20 35 22 46 4
23z"/>
<path d="M4128 3358 c-22 -34 -52 -95 -41 -83 13 14 65 105 60 105 -3 0 -11
-10 -19 -22z"/>
<path d="M6285 3220 c-33 -15 -55 -28 -50 -29 6 0 37 13 70 29 33 15 56 28 50
29 -5 0 -37 -13 -70 -29z"/>
<path d="M4039 3194 c-12 -25 -19 -48 -16 -50 2 -2 14 18 25 46 26 63 18 66
-9 4z"/>
<path d="M4020 3120 c0 -5 35 -20 78 -34 42 -13 72 -25 65 -25 -6 -1 -40 8
-75 19 -84 26 -87 26 -104 -16 -23 -55 -62 -212 -69 -280 -16 -150 48 -298
159 -368 71 -45 116 -56 231 -61 l100 -4 -90 9 c-144 13 -209 36 -279 99 -120
109 -140 310 -55 563 11 35 22 64 24 66 1 1 67 -15 146 -37 283 -79 492 -109
784 -116 l190 -4 -140 9 c-196 13 -391 36 -525 64 -124 26 -351 88 -406 111
-19 8 -34 10 -34 5z"/>
<path d="M4630 2430 c-9 -6 -10 -10 -3 -10 6 0 15 5 18 10 8 12 4 12 -15 0z"/>
<path d="M4560 2400 c-8 -5 -10 -10 -5 -10 6 0 17 5 25 10 8 5 11 10 5 10 -5
0 -17 -5 -25 -10z"/>
<path d="M4710 2395 c-14 -8 -20 -14 -15 -14 6 0 21 6 35 14 14 8 21 14 15 14
-5 0 -21 -6 -35 -14z"/>
<path d="M4485 2380 c-25 -11 1 -11 35 0 20 6 21 8 5 8 -11 0 -29 -3 -40 -8z"/>
<path d="M4418 2363 c6 -2 18 -2 25 0 6 3 1 5 -13 5 -14 0 -19 -2 -12 -5z"/>
<path d="M4578 2343 c7 -3 16 -2 19 1 4 3 -2 6 -13 5 -11 0 -14 -3 -6 -6z"/>
<path d="M4498 2323 c6 -2 18 -2 25 0 6 3 1 5 -13 5 -14 0 -19 -2 -12 -5z"/>
<path d="M4428 2313 c12 -2 30 -2 40 0 9 3 -1 5 -23 4 -22 0 -30 -2 -17 -4z"/>
</g>
</svg>
